<?xml version="1.0" encoding="UTF-8"?>
<svg width="350px" height="429px" viewBox="0 0 350 429" version="1.1" xmlns="http://www.w3.org/2000/svg" xmlns:xlink="http://www.w3.org/1999/xlink">
    <title>img_splash_eid</title>
    <g id="Page-1" stroke="none" stroke-width="1" fill="none" fill-rule="evenodd">
        <g id="img_splash_eid" transform="translate(0.000000, 0.000000)" fill-rule="nonzero">
            <path d="M174.63,349.28 C271.08,349.28 349.27,271.09 349.27,174.64 C349.27,78.19 271.08,-2.84217094e-14 174.63,-2.84217094e-14 C78.19,-2.84217094e-14 0,78.19 0,174.64 C0,271.09 78.19,349.28 174.63,349.28 Z" id="Path" fill="#A6DFFF"></path>
            <path d="M252.74,107.17 C248.61,101.35 242.91,96.96 236.24,94.49 C232.33,93.04 228.22,92.3 224.01,92.3 L125.07,92.3 C105.68,92.3 89.89,108.09 89.89,127.49 L89.89,344.83 C89.89,364.23 105.67,380.02 125.07,380.02 L224.01,380.02 C243.41,380.02 259.19,364.24 259.19,344.83 L259.19,127.49 C259.19,120.16 256.96,113.14 252.74,107.17 Z M248.06,344.83 C248.06,358.09 237.27,368.88 224.01,368.88 L125.08,368.88 C111.82,368.88 101.03,358.09 101.03,344.83 L101.03,127.49 C101.03,114.23 111.82,103.44 125.08,103.44 L224.01,103.44 C226.89,103.44 229.7,103.94 232.37,104.93 C241.75,108.41 248.06,117.48 248.06,127.49 L248.06,344.83 Z" id="Shape" fill="#193544"></path>
            <path d="M248.06,127.49 L248.06,344.83 C248.06,358.09 237.27,368.88 224.01,368.88 L125.08,368.88 C111.82,368.88 101.03,358.09 101.03,344.83 L101.03,127.49 C101.03,114.23 111.82,103.44 125.08,103.44 L224.01,103.44 C226.89,103.44 229.7,103.94 232.37,104.93 C241.75,108.41 248.06,117.48 248.06,127.49 Z" id="Path" fill="#FFFFFF"></path>
            <path d="M261.77,136.28 L261.77,169.64 C261.77,170.96 260.7,172.03 259.38,172.03 C259.32,172.03 259.25,172.03 259.2,172.02 C257.96,171.93 256.98,170.9 256.98,169.64 L256.98,136.28 C256.98,135.02 257.96,133.98 259.2,133.9 C259.26,133.89 259.32,133.89 259.38,133.89 C260.04,133.89 260.63,134.15 261.07,134.59 C261.51,135.02 261.77,135.62 261.77,136.28 Z" id="Path" fill="#193544"></path>
            <path d="M89.89,172.03 C88.57,172.03 87.5,170.96 87.5,169.64 L87.5,136.28 C87.5,134.96 88.57,133.88 89.89,133.88 C91.22,133.88 92.29,134.96 92.29,136.28 L92.29,169.64 C92.29,170.96 91.22,172.03 89.89,172.03 Z" id="Path" fill="#193544"></path>
            <path d="M89.89,216.82 C88.57,216.82 87.5,215.75 87.5,214.42 L87.5,181.07 C87.5,179.74 88.57,178.67 89.89,178.67 C91.22,178.67 92.29,179.74 92.29,181.07 L92.29,214.42 C92.29,215.75 91.22,216.82 89.89,216.82 Z" id="Path" fill="#193544"></path>
            <path d="M187.57,120.62 L161.69,120.62 C158.53,120.62 155.96,118.05 155.96,114.88 C155.96,111.72 158.52,109.15 161.69,109.15 L187.57,109.15 C190.74,109.15 193.31,111.72 193.31,114.88 C193.31,118.05 190.74,120.62 187.57,120.62 Z" id="Path" fill="#193544"></path>
            <path d="M169.94,137.59 L55.56,137.59 C34.53,137.59 17.49,154.64 17.49,175.66 L17.49,322.38 C17.49,343.4 34.53,360.45 55.56,360.45 L169.94,360.45 C190.96,360.45 208.01,343.4 208.01,322.38 L208.01,175.66 C208.01,154.64 190.96,137.59 169.94,137.59 Z" id="Path" fill="#FFFFFF"></path>
            <path d="M169.88,137.7 L55.61,137.7 C34.61,137.7 17.59,154.72 17.59,175.72 L17.59,322.32 C17.59,343.32 34.61,360.34 55.61,360.34 L169.88,360.34 C190.89,360.34 207.91,343.32 207.91,322.32 L207.91,175.72 C207.91,154.72 190.89,137.7 169.88,137.7 Z" id="Path" fill="#FEFEFF"></path>
            <path d="M169.83,137.8 L55.66,137.8 C34.69,137.8 17.69,154.8 17.69,175.78 L17.69,322.26 C17.69,343.24 34.69,360.24 55.66,360.24 L169.83,360.24 C190.8,360.24 207.81,343.24 207.81,322.26 L207.81,175.78 C207.81,154.8 190.8,137.8 169.83,137.8 Z" id="Path" fill="#FDFEFE"></path>
            <path d="M169.78,137.91 L55.72,137.91 C34.77,137.91 17.78,154.89 17.78,175.84 L17.78,322.21 C17.78,343.16 34.77,360.14 55.72,360.14 L169.78,360.14 C190.73,360.14 207.71,343.16 207.71,322.21 L207.71,175.84 C207.71,154.89 190.73,137.91 169.78,137.91 Z" id="Path" fill="#FCFDFE"></path>
            <path d="M169.73,138.01 L55.77,138.01 C34.84,138.01 17.88,154.97 17.88,175.89 L17.88,322.15 C17.88,343.07 34.84,360.03 55.77,360.03 L169.73,360.03 C190.65,360.03 207.61,343.07 207.61,322.15 L207.61,175.89 C207.61,154.97 190.65,138.01 169.73,138.01 Z" id="Path" fill="#FBFDFE"></path>
            <path d="M169.68,138.11 L55.82,138.11 C34.92,138.11 17.98,155.06 17.98,175.95 L17.98,322.09 C17.98,342.99 34.92,359.93 55.82,359.93 L169.68,359.93 C190.57,359.93 207.51,342.99 207.51,322.09 L207.51,175.95 C207.51,155.06 190.57,138.11 169.68,138.11 Z" id="Path" fill="#FAFCFE"></path>
            <path d="M55.87,138.22 L169.62,138.22 C190.48,138.22 207.41,155.15 207.41,176.01 L207.41,322.03 C207.41,342.89 190.48,359.82 169.62,359.82 L55.87,359.82 C35.01,359.82 18.08,342.89 18.08,322.03 L18.08,176.01 C18.08,155.15 35.01,138.22 55.87,138.22 Z" id="Path" fill="#F9FCFD"></path>
            <path d="M169.57,138.32 L55.92,138.32 C35.08,138.32 18.18,155.22 18.18,176.07 L18.18,321.97 C18.18,342.82 35.08,359.72 55.92,359.72 L169.57,359.72 C190.41,359.72 207.31,342.82 207.31,321.97 L207.31,176.07 C207.31,155.22 190.41,138.32 169.57,138.32 Z" id="Path" fill="#F8FBFD"></path>
            <path d="M169.52,138.42 L55.98,138.42 C35.16,138.42 18.28,155.3 18.28,176.12 L18.28,321.92 C18.28,342.74 35.16,359.62 55.98,359.62 L169.52,359.62 C190.34,359.62 207.22,342.74 207.22,321.92 L207.22,176.12 C207.22,155.3 190.34,138.42 169.52,138.42 Z" id="Path" fill="#F7FBFD"></path>
            <path d="M169.47,138.53 L56.03,138.53 C35.23,138.53 18.37,155.39 18.37,176.18 L18.37,321.86 C18.37,342.66 35.23,359.51 56.03,359.51 L169.47,359.51 C190.26,359.51 207.12,342.66 207.12,321.86 L207.12,176.18 C207.12,155.39 190.26,138.53 169.47,138.53 Z" id="Path" fill="#F6FAFD"></path>
            <path d="M169.41,138.63 L56.08,138.63 C35.31,138.63 18.47,155.47 18.47,176.24 L18.47,321.8 C18.47,342.57 35.31,359.41 56.08,359.41 L169.41,359.41 C190.19,359.41 207.02,342.57 207.02,321.8 L207.02,176.24 C207.02,155.47 190.19,138.63 169.41,138.63 Z" id="Path" fill="#F5F9FC"></path>
            <path d="M169.36,138.73 L56.13,138.73 C35.39,138.73 18.57,155.55 18.57,176.3 L18.57,321.75 C18.57,342.49 35.39,359.31 56.13,359.31 L169.36,359.31 C190.11,359.31 206.92,342.49 206.92,321.75 L206.92,176.3 C206.92,155.55 190.11,138.73 169.36,138.73 Z" id="Path" fill="#F4F9FC"></path>
            <path d="M169.31,138.84 L56.19,138.84 C35.47,138.84 18.67,155.64 18.67,176.36 L18.67,321.69 C18.67,342.41 35.47,359.2 56.19,359.2 L169.31,359.2 C190.03,359.2 206.83,342.41 206.83,321.69 L206.83,176.36 C206.83,155.64 190.03,138.84 169.31,138.84 Z" id="Path" fill="#F3F8FC"></path>
            <path d="M169.25,138.94 L56.24,138.94 C35.54,138.94 18.77,155.72 18.77,176.41 L18.77,321.63 C18.77,342.32 35.54,359.1 56.24,359.1 L169.25,359.1 C189.95,359.1 206.73,342.32 206.73,321.63 L206.73,176.41 C206.73,155.72 189.95,138.94 169.25,138.94 Z" id="Path" fill="#F2F8FC"></path>
            <path d="M169.2,139.04 L56.29,139.04 C35.62,139.04 18.87,155.8 18.87,176.47 L18.87,321.57 C18.87,342.24 35.62,359 56.29,359 L169.2,359 C189.87,359 206.63,342.24 206.63,321.57 L206.63,176.47 C206.63,155.8 189.87,139.04 169.2,139.04 Z" id="Path" fill="#F1F7FB"></path>
            <path d="M169.15,139.15 L56.34,139.15 C35.7,139.15 18.97,155.88 18.97,176.53 L18.97,321.51 C18.97,342.16 35.7,358.89 56.34,358.89 L169.15,358.89 C189.79,358.89 206.53,342.16 206.53,321.51 L206.53,176.53 C206.53,155.88 189.79,139.15 169.15,139.15 Z" id="Path" fill="#F0F7FB"></path>
            <path d="M169.09,139.25 L56.4,139.25 C35.78,139.25 19.06,155.97 19.06,176.59 L19.06,321.46 C19.06,342.07 35.78,358.79 56.4,358.79 L169.09,358.79 C189.71,358.79 206.43,342.07 206.43,321.46 L206.43,176.59 C206.43,155.97 189.71,139.25 169.09,139.25 Z" id="Path" fill="#EFF6FB"></path>
            <path d="M169.05,139.36 L56.45,139.36 C35.86,139.36 19.16,156.05 19.16,176.64 L19.16,321.4 C19.16,341.99 35.86,358.69 56.45,358.69 L169.05,358.69 C189.64,358.69 206.33,341.99 206.33,321.4 L206.33,176.64 C206.33,156.05 189.64,139.36 169.05,139.36 Z" id="Path" fill="#EEF6FB"></path>
            <path d="M168.99,139.46 L56.5,139.46 C35.93,139.46 19.26,156.13 19.26,176.7 L19.26,321.34 C19.26,341.91 35.93,358.58 56.5,358.58 L168.99,358.58 C189.56,358.58 206.23,341.91 206.23,321.34 L206.23,176.7 C206.23,156.13 189.56,139.46 168.99,139.46 Z" id="Path" fill="#EDF5FA"></path>
            <path d="M168.94,139.56 L56.56,139.56 C36.01,139.56 19.36,156.22 19.36,176.76 L19.36,321.28 C19.36,341.82 36.01,358.48 56.56,358.48 L168.94,358.48 C189.48,358.48 206.14,341.82 206.14,321.28 L206.14,176.76 C206.14,156.22 189.48,139.56 168.94,139.56 Z" id="Path" fill="#ECF4FA"></path>
            <path d="M168.89,139.67 L56.61,139.67 C36.09,139.67 19.46,156.3 19.46,176.82 L19.46,321.22 C19.46,341.74 36.09,358.38 56.61,358.38 L168.89,358.38 C189.4,358.38 206.04,341.74 206.04,321.22 L206.04,176.82 C206.04,156.3 189.4,139.67 168.89,139.67 Z" id="Path" fill="#EBF4FA"></path>
            <path d="M56.66,139.77 L168.83,139.77 C189.31,139.77 205.94,156.39 205.94,176.87 L205.94,321.17 C205.94,341.65 189.32,358.27 168.83,358.27 L56.66,358.27 C36.18,358.27 19.55,341.65 19.55,321.17 L19.55,176.87 C19.55,156.4 36.18,139.77 56.66,139.77 Z" id="Path" fill="#EAF3F9"></path>
            <path d="M168.78,139.87 L56.71,139.87 C36.24,139.87 19.65,156.46 19.65,176.93 L19.65,321.11 C19.65,341.57 36.24,358.17 56.71,358.17 L168.78,358.17 C189.25,358.17 205.84,341.57 205.84,321.11 L205.84,176.93 C205.84,156.46 189.25,139.87 168.78,139.87 Z" id="Path" fill="#E9F3F9"></path>
            <path d="M168.73,139.98 L56.77,139.98 C36.33,139.98 19.75,156.55 19.75,176.99 L19.75,321.05 C19.75,341.5 36.33,358.07 56.77,358.07 L168.73,358.07 C189.17,358.07 205.74,341.5 205.74,321.05 L205.74,176.99 C205.74,156.55 189.17,139.98 168.73,139.98 Z" id="Path" fill="#E8F2F9"></path>
            <path d="M168.68,140.08 L56.82,140.08 C36.4,140.08 19.85,156.63 19.85,177.05 L19.85,321 C19.85,341.41 36.4,357.96 56.82,357.96 L168.68,357.96 C189.09,357.96 205.64,341.41 205.64,321 L205.64,177.05 C205.64,156.63 189.09,140.08 168.68,140.08 Z" id="Path" fill="#E7F2F9"></path>
            <path d="M56.87,140.18 L168.63,140.18 C189,140.18 205.55,156.73 205.55,177.11 L205.55,320.94 C205.55,341.32 189,357.86 168.63,357.86 L56.87,357.86 C36.49,357.86 19.95,341.32 19.95,320.94 L19.95,177.11 C19.95,156.73 36.49,140.18 56.87,140.18 Z" id="Path" fill="#E6F1F8"></path>
            <path d="M168.57,140.29 L56.92,140.29 C36.56,140.29 20.05,156.8 20.05,177.16 L20.05,320.88 C20.05,341.25 36.56,357.75 56.92,357.75 L168.57,357.75 C188.94,357.75 205.45,341.25 205.45,320.88 L205.45,177.16 C205.45,156.8 188.94,140.29 168.57,140.29 Z" id="Path" fill="#E5F1F8"></path>
            <path d="M168.52,140.39 L56.97,140.39 C36.63,140.39 20.15,156.88 20.15,177.22 L20.15,320.82 C20.15,341.16 36.63,357.65 56.97,357.65 L168.52,357.65 C188.86,357.65 205.35,341.16 205.35,320.82 L205.35,177.22 C205.35,156.88 188.86,140.39 168.52,140.39 Z" id="Path" fill="#E4F0F8"></path>
            <path d="M168.47,140.49 L57.03,140.49 C36.71,140.49 20.24,156.96 20.24,177.28 L20.24,320.76 C20.24,341.08 36.71,357.55 57.03,357.55 L168.47,357.55 C188.78,357.55 205.25,341.08 205.25,320.76 L205.25,177.28 C205.25,156.96 188.78,140.49 168.47,140.49 Z" id="Path" fill="#E3EFF8"></path>
            <path d="M168.41,140.6 L57.08,140.6 C36.79,140.6 20.34,157.05 20.34,177.34 L20.34,320.71 C20.34,341 36.79,357.44 57.08,357.44 L168.41,357.44 C188.7,357.44 205.15,341 205.15,320.71 L205.15,177.34 C205.15,157.05 188.7,140.6 168.41,140.6 Z" id="Path" fill="#E2EFF7"></path>
            <path d="M168.36,140.7 L57.13,140.7 C36.87,140.7 20.44,157.13 20.44,177.39 L20.44,320.65 C20.44,340.91 36.87,357.34 57.13,357.34 L168.36,357.34 C188.63,357.34 205.05,340.91 205.05,320.65 L205.05,177.39 C205.05,157.13 188.63,140.7 168.36,140.7 Z" id="Path" fill="#E1EEF7"></path>
            <path d="M168.31,140.81 L57.18,140.81 C36.95,140.81 20.54,157.21 20.54,177.45 L20.54,320.59 C20.54,340.83 36.95,357.24 57.18,357.24 L168.31,357.24 C188.55,357.24 204.95,340.83 204.95,320.59 L204.95,177.45 C204.95,157.21 188.55,140.81 168.31,140.81 Z" id="Path" fill="#E0EEF7"></path>
            <path d="M168.26,140.91 L57.24,140.91 C37.02,140.91 20.64,157.29 20.64,177.51 L20.64,320.53 C20.64,340.75 37.02,357.13 57.24,357.13 L168.26,357.13 C188.47,357.13 204.86,340.75 204.86,320.53 L204.86,177.51 C204.86,157.29 188.47,140.91 168.26,140.91 Z" id="Path" fill="#DFEDF7"></path>
            <path d="M168.21,141.01 L57.29,141.01 C37.1,141.01 20.74,157.38 20.74,177.57 L20.74,320.48 C20.74,340.66 37.1,357.03 57.29,357.03 L168.21,357.03 C188.39,357.03 204.76,340.66 204.76,320.48 L204.76,177.57 C204.76,157.38 188.39,141.01 168.21,141.01 Z" id="Path" fill="#DEEDF6"></path>
            <path d="M168.15,141.12 L57.34,141.12 C37.18,141.12 20.84,157.46 20.84,177.62 L20.84,320.42 C20.84,340.58 37.18,356.92 57.34,356.92 L168.15,356.92 C188.32,356.92 204.66,340.58 204.66,320.42 L204.66,177.62 C204.66,157.46 188.32,141.12 168.15,141.12 Z" id="Path" fill="#DDECF6"></path>
            <path d="M168.1,141.22 L57.39,141.22 C37.26,141.22 20.93,157.54 20.93,177.68 L20.93,320.36 C20.93,340.5 37.26,356.82 57.39,356.82 L168.1,356.82 C188.24,356.82 204.56,340.5 204.56,320.36 L204.56,177.68 C204.56,157.54 188.24,141.22 168.1,141.22 Z" id="Path" fill="#DCECF6"></path>
            <path d="M168.05,141.32 L57.44,141.32 C37.33,141.32 21.03,157.63 21.03,177.74 L21.03,320.31 C21.03,340.42 37.33,356.72 57.44,356.72 L168.05,356.72 C188.16,356.72 204.46,340.42 204.46,320.31 L204.46,177.74 C204.46,157.63 188.16,141.32 168.05,141.32 Z" id="Path" fill="#DBEBF6"></path>
            <path d="M168,141.43 L57.5,141.43 C37.41,141.43 21.13,157.71 21.13,177.79 L21.13,320.25 C21.13,340.33 37.41,356.61 57.5,356.61 L168,356.61 C188.08,356.61 204.36,340.33 204.36,320.25 L204.36,177.79 C204.36,157.71 188.08,141.43 168,141.43 Z" id="Path" fill="#DAEAF5"></path>
            <path d="M167.94,141.53 L57.55,141.53 C37.49,141.53 21.23,157.79 21.23,177.85 L21.23,320.19 C21.23,340.25 37.49,356.51 57.55,356.51 L167.94,356.51 C188,356.51 204.27,340.25 204.27,320.19 L204.27,177.85 C204.27,157.79 188,141.53 167.94,141.53 Z" id="Path" fill="#D9EAF5"></path>
            <path d="M167.89,141.63 L57.6,141.63 C37.57,141.63 21.33,157.87 21.33,177.91 L21.33,320.13 C21.33,340.17 37.57,356.41 57.6,356.41 L167.89,356.41 C187.93,356.41 204.17,340.17 204.17,320.13 L204.17,177.91 C204.17,157.87 187.93,141.63 167.89,141.63 Z" id="Path" fill="#D8E9F5"></path>
            <path d="M167.84,141.74 L57.65,141.74 C37.65,141.74 21.42,157.96 21.42,177.97 L21.42,320.08 C21.42,340.08 37.65,356.31 57.65,356.31 L167.84,356.31 C187.85,356.31 204.07,340.08 204.07,320.08 L204.07,177.97 C204.07,157.96 187.85,141.74 167.84,141.74 Z" id="Path" fill="#D7E9F4"></path>
            <path d="M167.79,141.84 L57.71,141.84 C37.73,141.84 21.52,158.04 21.52,178.02 L21.52,320.02 C21.52,340 37.73,356.2 57.71,356.2 L167.79,356.2 C187.77,356.2 203.97,340 203.97,320.02 L203.97,178.02 C203.97,158.04 187.77,141.84 167.79,141.84 Z" id="Path" fill="#D6E8F4"></path>
            <path d="M167.73,141.95 L57.76,141.95 C37.8,141.95 21.62,158.12 21.62,178.08 L21.62,319.96 C21.62,339.92 37.8,356.1 57.76,356.1 L167.73,356.1 C187.69,356.1 203.87,339.92 203.87,319.96 L203.87,178.08 C203.87,158.12 187.69,141.95 167.73,141.95 Z" id="Path" fill="#D5E8F4"></path>
            <path d="M167.68,142.05 L57.81,142.05 C37.88,142.05 21.72,158.21 21.72,178.14 L21.72,319.9 C21.72,339.83 37.88,355.99 57.81,355.99 L167.68,355.99 C187.62,355.99 203.77,339.83 203.77,319.9 L203.77,178.14 C203.77,158.21 187.62,142.05 167.68,142.05 Z" id="Path" fill="#D4E7F4"></path>
            <path d="M167.63,142.15 L57.86,142.15 C37.96,142.15 21.82,158.29 21.82,178.2 L21.82,319.85 C21.82,339.75 37.96,355.89 57.86,355.89 L167.63,355.89 C187.54,355.89 203.67,339.75 203.67,319.85 L203.67,178.2 C203.67,158.29 187.54,142.15 167.63,142.15 Z" id="Path" fill="#D3E6F3"></path>
            <path d="M167.58,142.26 L57.91,142.26 C38.03,142.26 21.92,158.37 21.92,178.25 L21.92,319.79 C21.92,339.67 38.03,355.79 57.91,355.79 L167.58,355.79 C187.46,355.79 203.57,339.67 203.57,319.79 L203.57,178.25 C203.57,158.37 187.46,142.26 167.58,142.26 Z" id="Path" fill="#D2E6F3"></path>
            <path d="M167.53,142.36 L57.97,142.36 C38.11,142.36 22.02,158.45 22.02,178.31 L22.02,319.73 C22.02,339.58 38.11,355.68 57.97,355.68 L167.53,355.68 C187.38,355.68 203.48,339.58 203.48,319.73 L203.48,178.31 C203.48,158.45 187.38,142.36 167.53,142.36 Z" id="Path" fill="#D1E5F3"></path>
            <path d="M167.47,142.46 L58.02,142.46 C38.19,142.46 22.11,158.54 22.11,178.37 L22.11,319.67 C22.11,339.5 38.19,355.58 58.02,355.58 L167.47,355.58 C187.3,355.58 203.38,339.5 203.38,319.67 L203.38,178.37 C203.38,158.54 187.3,142.46 167.47,142.46 Z" id="Path" fill="#D0E5F3"></path>
            <path d="M167.42,142.56 L58.07,142.56 C38.27,142.56 22.21,158.62 22.21,178.43 L22.21,319.62 C22.21,339.42 38.27,355.47 58.07,355.47 L167.42,355.47 C187.23,355.47 203.28,339.42 203.28,319.62 L203.28,178.43 C203.28,158.62 187.23,142.56 167.42,142.56 Z" id="Path" fill="#CFE4F2"></path>
            <path d="M167.37,142.67 L58.13,142.67 C38.35,142.67 22.31,158.7 22.31,178.48 L22.31,319.56 C22.31,339.34 38.35,355.37 58.13,355.37 L167.37,355.37 C187.15,355.37 203.18,339.34 203.18,319.56 L203.18,178.48 C203.18,158.7 187.15,142.67 167.37,142.67 Z" id="Path" fill="#CEE4F2"></path>
            <path d="M167.32,142.77 L58.18,142.77 C38.42,142.77 22.41,158.79 22.41,178.54 L22.41,319.5 C22.41,339.25 38.42,355.27 58.18,355.27 L167.32,355.27 C187.07,355.27 203.08,339.25 203.08,319.5 L203.08,178.54 C203.08,158.79 187.07,142.77 167.32,142.77 Z" id="Path" fill="#CDE3F2"></path>
            <path d="M167.26,142.88 L58.23,142.88 C38.5,142.88 22.51,158.87 22.51,178.6 L22.51,319.44 C22.51,339.17 38.5,355.17 58.23,355.17 L167.26,355.17 C186.99,355.17 202.99,339.17 202.99,319.44 L202.99,178.6 C202.99,158.87 186.99,142.88 167.26,142.88 Z" id="Path" fill="#CCE3F2"></path>
            <path d="M167.21,142.98 L58.28,142.98 C38.58,142.98 22.61,158.95 22.61,178.66 L22.61,319.38 C22.61,339.09 38.58,355.06 58.28,355.06 L167.21,355.06 C186.92,355.06 202.89,339.09 202.89,319.38 L202.89,178.66 C202.89,158.95 186.92,142.98 167.21,142.98 Z" id="Path" fill="#CBE2F1"></path>
            <path d="M167.16,143.09 L58.33,143.09 C38.66,143.09 22.7,159.04 22.7,178.72 L22.7,319.33 C22.7,339.01 38.66,354.96 58.33,354.96 L167.16,354.96 C186.84,354.96 202.79,339.01 202.79,319.33 L202.79,178.72 C202.79,159.04 186.84,143.09 167.16,143.09 Z" id="Path" fill="#CAE1F1"></path>
            <path d="M167.1,143.19 L58.39,143.19 C38.74,143.19 22.8,159.12 22.8,178.77 L22.8,319.27 C22.8,338.92 38.74,354.85 58.39,354.85 L167.1,354.85 C186.76,354.85 202.69,338.92 202.69,319.27 L202.69,178.77 C202.69,159.12 186.76,143.19 167.1,143.19 Z" id="Path" fill="#C9E1F1"></path>
            <path d="M167.05,143.29 L58.44,143.29 C38.81,143.29 22.9,159.2 22.9,178.83 L22.9,319.21 C22.9,338.84 38.81,354.75 58.44,354.75 L167.05,354.75 C186.68,354.75 202.59,338.84 202.59,319.21 L202.59,178.83 C202.59,159.2 186.68,143.29 167.05,143.29 Z" id="Path" fill="#C8E0F1"></path>
            <path d="M167,143.4 L58.49,143.4 C38.89,143.4 23,159.29 23,178.89 L23,319.15 C23,338.75 38.89,354.65 58.49,354.65 L167,354.65 C186.6,354.65 202.49,338.75 202.49,319.15 L202.49,178.89 C202.49,159.29 186.6,143.4 167,143.4 Z" id="Path" fill="#C7E0F0"></path>
            <path d="M166.95,143.5 L58.55,143.5 C38.97,143.5 23.1,159.37 23.1,178.95 L23.1,319.1 C23.1,338.67 38.97,354.54 58.55,354.54 L166.95,354.54 C186.53,354.54 202.4,338.67 202.4,319.1 L202.4,178.95 C202.4,159.37 186.53,143.5 166.95,143.5 Z" id="Path" fill="#C6DFF0"></path>
            <path d="M166.89,143.6 L58.6,143.6 C39.05,143.6 23.2,159.45 23.2,179 L23.2,319.04 C23.2,338.59 39.05,354.44 58.6,354.44 L166.89,354.44 C186.45,354.44 202.3,338.59 202.3,319.04 L202.3,179 C202.3,159.45 186.45,143.6 166.89,143.6 Z" id="Path" fill="#C5DFF0"></path>
            <path d="M58.65,143.7 L166.84,143.7 C186.36,143.7 202.2,159.55 202.2,179.06 L202.2,318.98 C202.2,338.49 186.36,354.34 166.84,354.34 L58.65,354.34 C39.14,354.34 23.29,338.5 23.29,318.98 L23.29,179.06 C23.29,159.55 39.13,143.7 58.65,143.7 Z" id="Path" fill="#C4DEEF"></path>
            <path d="M166.79,143.81 L58.7,143.81 C39.2,143.81 23.39,159.62 23.39,179.12 L23.39,318.92 C23.39,338.42 39.2,354.23 58.7,354.23 L166.79,354.23 C186.29,354.23 202.1,338.42 202.1,318.92 L202.1,179.12 C202.1,159.62 186.29,143.81 166.79,143.81 Z" id="Path" fill="#C3DEEF"></path>
            <path d="M166.74,143.91 L58.76,143.91 C39.28,143.91 23.49,159.7 23.49,179.18 L23.49,318.87 C23.49,338.34 39.28,354.13 58.76,354.13 L166.74,354.13 C186.21,354.13 202,338.34 202,318.87 L202,179.18 C202,159.7 186.21,143.91 166.74,143.91 Z" id="Path" fill="#C2DDEF"></path>
            <path d="M166.69,144.02 L58.81,144.02 C39.36,144.02 23.59,159.78 23.59,179.23 L23.59,318.81 C23.59,338.26 39.36,354.03 58.81,354.03 L166.69,354.03 C186.14,354.03 201.9,338.26 201.9,318.81 L201.9,179.23 C201.9,159.78 186.14,144.02 166.69,144.02 Z" id="Path" fill="#C1DCEF"></path>
            <path d="M166.63,144.12 L58.86,144.12 C39.44,144.12 23.69,159.87 23.69,179.29 L23.69,318.75 C23.69,338.17 39.44,353.92 58.86,353.92 L166.63,353.92 C186.06,353.92 201.8,338.17 201.8,318.75 L201.8,179.29 C201.8,159.87 186.06,144.12 166.63,144.12 Z" id="Path" fill="#C0DCEE"></path>
            <path d="M166.58,144.22 L58.91,144.22 C39.51,144.22 23.79,159.95 23.79,179.35 L23.79,318.69 C23.79,338.09 39.51,353.82 58.91,353.82 L166.58,353.82 C185.98,353.82 201.71,338.09 201.71,318.69 L201.71,179.35 C201.71,159.95 185.98,144.22 166.58,144.22 Z" id="Path" fill="#BFDBEE"></path>
            <path d="M166.53,144.33 L58.97,144.33 C39.59,144.33 23.88,160.03 23.88,179.41 L23.88,318.63 C23.88,338.01 39.59,353.71 58.97,353.71 L166.53,353.71 C185.9,353.71 201.61,338.01 201.61,318.63 L201.61,179.41 C201.61,160.03 185.9,144.33 166.53,144.33 Z" id="Path" fill="#BEDBEE"></path>
            <path d="M166.48,144.43 L59.02,144.43 C39.67,144.43 23.98,160.12 23.98,179.47 L23.98,318.58 C23.98,337.93 39.67,353.61 59.02,353.61 L166.48,353.61 C185.83,353.61 201.51,337.93 201.51,318.58 L201.51,179.47 C201.51,160.12 185.83,144.43 166.48,144.43 Z" id="Path" fill="#BDDAEE"></path>
            <path d="M166.42,144.53 L59.07,144.53 C39.75,144.53 24.08,160.2 24.08,179.52 L24.08,318.52 C24.08,337.84 39.75,353.51 59.07,353.51 L166.42,353.51 C185.75,353.51 201.41,337.84 201.41,318.52 L201.41,179.52 C201.41,160.2 185.75,144.53 166.42,144.53 Z" id="Path" fill="#BCDAED"></path>
            <path d="M166.37,144.64 L59.12,144.64 C39.83,144.64 24.18,160.28 24.18,179.58 L24.18,318.46 C24.18,337.76 39.83,353.4 59.12,353.4 L166.37,353.4 C185.67,353.4 201.31,337.76 201.31,318.46 L201.31,179.58 C201.31,160.28 185.67,144.64 166.37,144.64 Z" id="Path" fill="#BBD9ED"></path>
            <path d="M166.32,144.74 L59.18,144.74 C39.9,144.74 24.28,160.36 24.28,179.64 L24.28,318.4 C24.28,337.68 39.9,353.3 59.18,353.3 L166.32,353.3 C185.59,353.3 201.21,337.68 201.21,318.4 L201.21,179.64 C201.21,160.36 185.59,144.74 166.32,144.74 Z" id="Path" fill="#BAD9ED"></path>
            <path d="M166.27,144.84 L59.23,144.84 C39.98,144.84 24.38,160.45 24.38,179.69 L24.38,318.35 C24.38,337.59 39.98,353.19 59.23,353.19 L166.27,353.19 C185.51,353.19 201.12,337.59 201.12,318.35 L201.12,179.69 C201.12,160.45 185.51,144.84 166.27,144.84 Z" id="Path" fill="#B9D8ED"></path>
            <path d="M166.21,144.95 L59.28,144.95 C40.06,144.95 24.48,160.53 24.48,179.75 L24.48,318.29 C24.48,337.51 40.06,353.1 59.28,353.1 L166.21,353.1 C185.44,353.1 201.02,337.51 201.02,318.29 L201.02,179.75 C201.02,160.53 185.44,144.95 166.21,144.95 Z" id="Path" fill="#B8D7EC"></path>
            <path d="M166.16,145.05 L59.33,145.05 C40.14,145.05 24.58,160.61 24.58,179.81 L24.58,318.23 C24.58,337.43 40.14,352.99 59.33,352.99 L166.16,352.99 C185.36,352.99 200.92,337.43 200.92,318.23 L200.92,179.81 C200.92,160.61 185.36,145.05 166.16,145.05 Z" id="Path" fill="#B7D7EC"></path>
            <path d="M166.11,145.16 L59.38,145.16 C40.21,145.16 24.67,160.7 24.67,179.87 L24.67,318.18 C24.67,337.35 40.21,352.89 59.38,352.89 L166.11,352.89 C185.28,352.89 200.82,337.35 200.82,318.18 L200.82,179.87 C200.82,160.7 185.28,145.16 166.11,145.16 Z" id="Path" fill="#B6D6EC"></path>
            <path d="M166.05,145.26 L59.44,145.26 C40.29,145.26 24.77,160.78 24.77,179.92 L24.77,318.12 C24.77,337.26 40.29,352.78 59.44,352.78 L166.05,352.78 C185.2,352.78 200.72,337.26 200.72,318.12 L200.72,179.92 C200.72,160.78 185.2,145.26 166.05,145.26 Z" id="Path" fill="#B5D6EC"></path>
            <path d="M166.01,145.36 L59.49,145.36 C40.37,145.36 24.87,160.86 24.87,179.98 L24.87,318.06 C24.87,337.18 40.37,352.68 59.49,352.68 L166.01,352.68 C185.13,352.68 200.63,337.18 200.63,318.06 L200.63,179.98 C200.63,160.86 185.13,145.36 166.01,145.36 Z" id="Path" fill="#B4D5EB"></path>
            <path d="M165.95,145.47 L59.54,145.47 C40.45,145.47 24.97,160.95 24.97,180.04 L24.97,318 C24.97,337.1 40.45,352.57 59.54,352.57 L165.95,352.57 C185.05,352.57 200.52,337.1 200.52,318 L200.52,180.04 C200.52,160.95 185.05,145.47 165.95,145.47 Z" id="Path" fill="#B3D5EB"></path>
            <path d="M165.9,145.57 L59.6,145.57 C40.53,145.57 25.07,161.03 25.07,180.1 L25.07,317.95 C25.07,337.01 40.53,352.47 59.6,352.47 L165.9,352.47 C184.97,352.47 200.43,337.01 200.43,317.95 L200.43,180.1 C200.43,161.03 184.97,145.57 165.9,145.57 Z" id="Path" fill="#B2D4EB"></path>
            <path d="M59.65,145.67 L165.85,145.67 C184.88,145.67 200.33,161.12 200.33,180.15 L200.33,317.89 C200.33,336.92 184.88,352.37 165.85,352.37 L59.65,352.37 C40.62,352.37 25.16,336.92 25.16,317.89 L25.16,180.15 C25.16,161.12 40.62,145.67 59.65,145.67 Z" id="Path" fill="#B1D4EB"></path>
            <path d="M165.8,145.78 L59.7,145.78 C40.68,145.78 25.27,161.2 25.27,180.21 L25.27,317.83 C25.27,336.85 40.68,352.26 59.7,352.26 L165.8,352.26 C184.81,352.26 200.23,336.85 200.23,317.83 L200.23,180.21 C200.23,161.2 184.81,145.78 165.8,145.78 Z" id="Path" fill="#B0D3EA"></path>
            <path d="M165.74,145.88 L59.75,145.88 C40.76,145.88 25.36,161.28 25.36,180.27 L25.36,317.77 C25.36,336.76 40.76,352.16 59.75,352.16 L165.74,352.16 C184.73,352.16 200.13,336.76 200.13,317.77 L200.13,180.27 C200.13,161.28 184.73,145.88 165.74,145.88 Z" id="Path" fill="#AFD2EA"></path>
            <path d="M165.69,145.98 L59.8,145.98 C40.84,145.98 25.46,161.36 25.46,180.33 L25.46,317.72 C25.46,336.68 40.84,352.06 59.8,352.06 L165.69,352.06 C184.66,352.06 200.03,336.68 200.03,317.72 L200.03,180.33 C200.03,161.36 184.66,145.98 165.69,145.98 Z" id="Path" fill="#AED2EA"></path>
            <path d="M59.86,146.09 L165.64,146.09 C184.57,146.09 199.93,161.46 199.93,180.38 L199.93,317.66 C199.93,336.59 184.57,351.95 165.64,351.95 L59.86,351.95 C40.93,351.95 25.56,336.59 25.56,317.66 L25.56,180.38 C25.56,161.46 40.93,146.09 59.86,146.09 Z" id="Path" fill="#ADD1E9"></path>
            <path d="M165.59,146.19 L59.91,146.19 C40.99,146.19 25.66,161.53 25.66,180.44 L25.66,317.6 C25.66,336.52 40.99,351.85 59.91,351.85 L165.59,351.85 C184.5,351.85 199.84,336.52 199.84,317.6 L199.84,180.44 C199.84,161.53 184.5,146.19 165.59,146.19 Z" id="Path" fill="#ACD1E9"></path>
            <path d="M165.53,146.29 L59.96,146.29 C41.07,146.29 25.76,161.61 25.76,180.5 L25.76,317.54 C25.76,336.43 41.07,351.75 59.96,351.75 L165.53,351.75 C184.42,351.75 199.74,336.43 199.74,317.54 L199.74,180.5 C199.74,161.61 184.42,146.29 165.53,146.29 Z" id="Path" fill="#ABD0E9"></path>
            <path d="M165.48,146.4 L60.01,146.4 C41.15,146.4 25.85,161.69 25.85,180.56 L25.85,317.48 C25.85,336.35 41.15,351.64 60.01,351.64 L165.48,351.64 C184.35,351.64 199.64,336.35 199.64,317.48 L199.64,180.56 C199.64,161.69 184.35,146.4 165.48,146.4 Z" id="Path" fill="#AAD0E9"></path>
            <path d="M165.43,146.5 L60.07,146.5 C41.23,146.5 25.95,161.78 25.95,180.61 L25.95,317.43 C25.95,336.27 41.23,351.54 60.07,351.54 L165.43,351.54 C184.27,351.54 199.54,336.27 199.54,317.43 L199.54,180.61 C199.54,161.78 184.27,146.5 165.43,146.5 Z" id="Path" fill="#A9CFE8"></path>
            <path d="M165.38,146.61 L60.12,146.61 C41.3,146.61 26.05,161.86 26.05,180.67 L26.05,317.37 C26.05,336.18 41.3,351.44 60.12,351.44 L165.38,351.44 C184.19,351.44 199.44,336.18 199.44,317.37 L199.44,180.67 C199.44,161.86 184.19,146.61 165.38,146.61 Z" id="Path" fill="#A8CFE8"></path>
            <path d="M165.33,146.71 L60.17,146.71 C41.38,146.71 26.15,161.94 26.15,180.73 L26.15,317.31 C26.15,336.1 41.38,351.33 60.17,351.33 L165.33,351.33 C184.11,351.33 199.35,336.1 199.35,317.31 L199.35,180.73 C199.35,161.94 184.11,146.71 165.33,146.71 Z" id="Path" fill="#A7CEE8"></path>
            <path d="M165.27,146.81 L60.22,146.81 C41.46,146.81 26.25,162.02 26.25,180.79 L26.25,317.25 C26.25,336.02 41.46,351.23 60.22,351.23 L165.27,351.23 C184.04,351.23 199.24,336.02 199.24,317.25 L199.24,180.79 C199.24,162.02 184.04,146.81 165.27,146.81 Z" id="Path" fill="#A6CDE8"></path>
            <path d="M165.22,146.92 L60.28,146.92 C41.54,146.92 26.35,162.11 26.35,180.84 L26.35,317.2 C26.35,335.94 41.54,351.13 60.28,351.13 L165.22,351.13 C183.96,351.13 199.15,335.94 199.15,317.2 L199.15,180.84 C199.15,162.11 183.96,146.92 165.22,146.92 Z" id="Path" fill="#A5CDE7"></path>
            <path d="M165.17,147.02 L60.33,147.02 C41.62,147.02 26.45,162.19 26.45,180.9 L26.45,317.14 C26.45,335.85 41.62,351.02 60.33,351.02 L165.17,351.02 C183.88,351.02 199.05,335.85 199.05,317.14 L199.05,180.9 C199.05,162.19 183.88,147.02 165.17,147.02 Z" id="Path" fill="#A4CCE7"></path>
            <path d="M165.11,147.12 L60.38,147.12 C41.7,147.12 26.55,162.27 26.55,180.96 L26.55,317.08 C26.55,335.77 41.7,350.92 60.38,350.92 L165.11,350.92 C183.8,350.92 198.95,335.77 198.95,317.08 L198.95,180.96 C198.95,162.27 183.8,147.12 165.11,147.12 Z" id="Path" fill="#A3CCE7"></path>
            <path d="M60.43,147.23 L165.06,147.23 C183.71,147.23 198.85,162.37 198.85,181.02 L198.85,317.02 C198.85,335.67 183.71,350.82 165.06,350.82 L60.43,350.82 C41.78,350.82 26.64,335.67 26.64,317.02 L26.64,181.02 C26.64,162.37 41.78,147.23 60.43,147.23 Z" id="Path" fill="#A2CBE7"></path>
            <path d="M165.01,147.33 L60.49,147.33 C41.85,147.33 26.74,162.44 26.74,181.07 L26.74,316.96 C26.74,335.6 41.85,350.71 60.49,350.71 L165.01,350.71 C183.64,350.71 198.75,335.6 198.75,316.96 L198.75,181.07 C198.75,162.44 183.64,147.33 165.01,147.33 Z" id="Path" fill="#A1CBE6"></path>
            <path d="M164.96,147.43 L60.54,147.43 C41.93,147.43 26.84,162.52 26.84,181.13 L26.84,316.91 C26.84,335.52 41.93,350.61 60.54,350.61 L164.96,350.61 C183.57,350.61 198.66,335.52 198.66,316.91 L198.66,181.13 C198.66,162.52 183.57,147.43 164.96,147.43 Z" id="Path" fill="#A0CAE6"></path>
            <path d="M164.9,147.54 L60.59,147.54 C42,147.54 26.94,162.6 26.94,181.19 L26.94,316.85 C26.94,335.44 42,350.5 60.59,350.5 L164.9,350.5 C183.49,350.5 198.56,335.44 198.56,316.85 L198.56,181.19 C198.56,162.6 183.49,147.54 164.9,147.54 Z" id="Path" fill="#9FCAE6"></path>
            <path d="M60.64,147.64 L164.85,147.64 C183.4,147.64 198.46,162.7 198.46,181.25 L198.46,316.79 C198.46,335.34 183.4,350.4 164.85,350.4 L60.64,350.4 C42.09,350.4 27.03,335.34 27.03,316.79 L27.03,181.25 C27.03,162.7 42.09,147.64 60.64,147.64 Z" id="Path" fill="#9EC9E6"></path>
            <path d="M164.8,147.74 L60.7,147.74 C42.16,147.74 27.13,162.77 27.13,181.31 L27.13,316.73 C27.13,335.27 42.16,350.3 60.7,350.3 L164.8,350.3 C183.33,350.3 198.36,335.27 198.36,316.73 L198.36,181.31 C198.36,162.77 183.33,147.74 164.8,147.74 Z" id="Path" fill="#9DC8E5"></path>
            <path d="M164.75,147.85 L60.75,147.85 C42.24,147.85 27.23,162.86 27.23,181.37 L27.23,316.68 C27.23,335.19 42.24,350.19 60.75,350.19 L164.75,350.19 C183.26,350.19 198.26,335.19 198.26,316.68 L198.26,181.37 C198.26,162.86 183.26,147.85 164.75,147.85 Z" id="Path" fill="#9CC8E5"></path>
            <path d="M164.69,147.95 L60.8,147.95 C42.32,147.95 27.33,162.94 27.33,181.42 L27.33,316.62 C27.33,335.1 42.32,350.09 60.8,350.09 L164.69,350.09 C183.18,350.09 198.16,335.1 198.16,316.62 L198.16,181.42 C198.16,162.94 183.18,147.95 164.69,147.95 Z" id="Path" fill="#9BC7E5"></path>
            <path d="M164.64,148.06 L60.85,148.06 C42.4,148.06 27.43,163.02 27.43,181.48 L27.43,316.56 C27.43,335.02 42.4,349.99 60.85,349.99 L164.64,349.99 C183.1,349.99 198.07,335.02 198.07,316.56 L198.07,181.48 C198.07,163.02 183.1,148.06 164.64,148.06 Z" id="Path" fill="#9AC7E4"></path>
            <path d="M164.59,148.16 L60.91,148.16 C42.47,148.16 27.53,163.1 27.53,181.54 L27.53,316.5 C27.53,334.94 42.47,349.88 60.91,349.88 L164.59,349.88 C183.02,349.88 197.97,334.94 197.97,316.5 L197.97,181.54 C197.97,163.1 183.02,148.16 164.59,148.16 Z" id="Path" fill="#99C6E4"></path>
            <path d="M164.53,148.26 L60.96,148.26 C42.55,148.26 27.63,163.19 27.63,181.59 L27.63,316.45 C27.63,334.86 42.55,349.78 60.96,349.78 L164.53,349.78 C182.94,349.78 197.87,334.86 197.87,316.45 L197.87,181.59 C197.87,163.19 182.94,148.26 164.53,148.26 Z" id="Path" fill="#98C6E4"></path>
            <path d="M164.49,148.37 L61.01,148.37 C42.63,148.37 27.73,163.27 27.73,181.65 L27.73,316.39 C27.73,334.77 42.63,349.67 61.01,349.67 L164.49,349.67 C182.87,349.67 197.77,334.77 197.77,316.39 L197.77,181.65 C197.77,163.27 182.87,148.37 164.49,148.37 Z" id="Path" fill="#97C5E4"></path>
            <path d="M164.43,148.47 L61.06,148.47 C42.7,148.47 27.82,163.35 27.82,181.71 L27.82,316.33 C27.82,334.69 42.7,349.57 61.06,349.57 L164.43,349.57 C182.79,349.57 197.67,334.69 197.67,316.33 L197.67,181.71 C197.67,163.35 182.79,148.47 164.43,148.47 Z" id="Path" fill="#96C5E3"></path>
            <path d="M164.38,148.57 L61.11,148.57 C42.78,148.57 27.92,163.43 27.92,181.77 L27.92,316.27 C27.92,334.61 42.78,349.47 61.11,349.47 L164.38,349.47 C182.71,349.47 197.57,334.61 197.57,316.27 L197.57,181.77 C197.57,163.43 182.71,148.57 164.38,148.57 Z" id="Path" fill="#95C4E3"></path>
            <path d="M164.33,148.68 L61.17,148.68 C42.86,148.68 28.02,163.52 28.02,181.82 L28.02,316.22 C28.02,334.52 42.86,349.37 61.17,349.37 L164.33,349.37 C182.63,349.37 197.47,334.52 197.47,316.22 L197.47,181.82 C197.47,163.52 182.63,148.68 164.33,148.68 Z" id="Path" fill="#94C3E3"></path>
            <path d="M164.28,148.78 L61.22,148.78 C42.94,148.78 28.12,163.6 28.12,181.88 L28.12,316.16 C28.12,334.44 42.94,349.26 61.22,349.26 L164.28,349.26 C182.56,349.26 197.38,334.44 197.38,316.16 L197.38,181.88 C197.38,163.6 182.56,148.78 164.28,148.78 Z" id="Path" fill="#93C3E3"></path>
            <path d="M164.22,148.88 L61.27,148.88 C43.02,148.88 28.22,163.68 28.22,181.94 L28.22,316.1 C28.22,334.36 43.02,349.16 61.27,349.16 L164.22,349.16 C182.48,349.16 197.28,334.36 197.28,316.1 L197.28,181.94 C197.28,163.68 182.48,148.88 164.22,148.88 Z" id="Path" fill="#92C2E2"></path>
            <path d="M164.17,148.99 L61.33,148.99 C43.09,148.99 28.32,163.77 28.32,182 L28.32,316.05 C28.32,334.28 43.09,349.06 61.33,349.06 L164.17,349.06 C182.4,349.06 197.18,334.28 197.18,316.05 L197.18,182 C197.18,163.77 182.4,148.99 164.17,148.99 Z" id="Path" fill="#91C2E2"></path>
            <path d="M164.12,149.09 L61.38,149.09 C43.17,149.09 28.41,163.85 28.41,182.05 L28.41,315.99 C28.41,334.19 43.17,348.95 61.38,348.95 L164.12,348.95 C182.32,348.95 197.08,334.19 197.08,315.99 L197.08,182.05 C197.08,163.85 182.32,149.09 164.12,149.09 Z" id="Path" fill="#90C1E2"></path>
            <path d="M61.43,149.2 L164.07,149.2 C182.23,149.2 196.98,163.94 196.98,182.11 L196.98,315.93 C196.98,334.1 182.23,348.85 164.07,348.85 L61.43,348.85 C43.26,348.85 28.51,334.1 28.51,315.93 L28.51,182.11 C28.51,163.94 43.26,149.2 61.43,149.2 Z" id="Path" fill="#8FC1E2"></path>
            <path d="M164.02,149.3 L61.48,149.3 C43.33,149.3 28.61,164.01 28.61,182.17 L28.61,315.87 C28.61,334.03 43.33,348.74 61.48,348.74 L164.02,348.74 C182.17,348.74 196.89,334.03 196.89,315.87 L196.89,182.17 C196.89,164.01 182.17,149.3 164.02,149.3 Z" id="Path" fill="#8EC0E1"></path>
            <path d="M163.96,149.4 L61.53,149.4 C43.4,149.4 28.71,164.1 28.71,182.23 L28.71,315.82 C28.71,333.94 43.4,348.64 61.53,348.64 L163.96,348.64 C182.09,348.64 196.79,333.94 196.79,315.82 L196.79,182.23 C196.79,164.1 182.09,149.4 163.96,149.4 Z" id="Path" fill="#8DC0E1"></path>
            <path d="M163.91,149.51 L61.59,149.51 C43.48,149.51 28.81,164.18 28.81,182.28 L28.81,315.76 C28.81,333.86 43.48,348.54 61.59,348.54 L163.91,348.54 C182.01,348.54 196.69,333.86 196.69,315.76 L196.69,182.28 C196.69,164.18 182.01,149.51 163.91,149.51 Z" id="Path" fill="#8CBFE1"></path>
            <path d="M61.64,149.61 L163.86,149.61 C181.92,149.61 196.59,164.28 196.59,182.34 L196.59,315.7 C196.59,333.77 181.92,348.43 163.86,348.43 L61.64,348.43 C43.57,348.43 28.91,333.77 28.91,315.7 L28.91,182.34 C28.91,164.28 43.57,149.61 61.64,149.61 Z" id="Path" fill="#8BBEE1"></path>
            <path d="M163.8,149.71 L61.69,149.71 C43.64,149.71 29.01,164.35 29.01,182.4 L29.01,315.64 C29.01,333.69 43.64,348.33 61.69,348.33 L163.8,348.33 C181.86,348.33 196.49,333.69 196.49,315.64 L196.49,182.4 C196.49,164.35 181.86,149.71 163.8,149.71 Z" id="Path" fill="#8ABEE0"></path>
            <path d="M163.75,149.81 L61.74,149.81 C43.72,149.81 29.1,164.43 29.1,182.45 L29.1,315.58 C29.1,333.61 43.72,348.22 61.74,348.22 L163.75,348.22 C181.78,348.22 196.39,333.61 196.39,315.58 L196.39,182.45 C196.39,164.43 181.78,149.81 163.75,149.81 Z" id="Path" fill="#89BDE0"></path>
            <path d="M163.7,149.92 L61.8,149.92 C43.8,149.92 29.2,164.51 29.2,182.51 L29.2,315.53 C29.2,333.53 43.8,348.12 61.8,348.12 L163.7,348.12 C181.7,348.12 196.29,333.53 196.29,315.53 L196.29,182.51 C196.29,164.51 181.7,149.92 163.7,149.92 Z" id="Path" fill="#88BDE0"></path>
            <path d="M61.85,150.02 L163.65,150.02 C181.61,150.02 196.19,164.61 196.19,182.57 L196.19,315.47 C196.19,333.43 181.61,348.01 163.65,348.01 L61.85,348.01 C43.88,348.01 29.3,333.43 29.3,315.47 L29.3,182.57 C29.3,164.61 43.88,150.02 61.85,150.02 Z" id="Path" fill="#87BCDF"></path>
            <path d="M163.6,150.13 L61.9,150.13 C43.95,150.13 29.4,164.68 29.4,182.63 L29.4,315.41 C29.4,333.36 43.95,347.92 61.9,347.92 L163.6,347.92 C181.54,347.92 196.1,333.36 196.1,315.41 L196.1,182.63 C196.1,164.68 181.54,150.13 163.6,150.13 Z" id="Path" fill="#86BCDF"></path>
            <path d="M163.54,150.23 L61.95,150.23 C44.03,150.23 29.5,164.76 29.5,182.69 L29.5,315.35 C29.5,333.28 44.03,347.81 61.95,347.81 L163.54,347.81 C181.47,347.81 196,333.28 196,315.35 L196,182.69 C196,164.76 181.47,150.23 163.54,150.23 Z" id="Path" fill="#85BBDF"></path>
            <path d="M163.49,150.34 L62,150.34 C44.1,150.34 29.59,164.84 29.59,182.75 L29.59,315.3 C29.59,333.2 44.1,347.71 62,347.71 L163.49,347.71 C181.39,347.71 195.9,333.2 195.9,315.3 L195.9,182.75 C195.9,164.84 181.39,150.34 163.49,150.34 Z" id="Path" fill="#84BBDF"></path>
            <path d="M163.44,150.44 L62.06,150.44 C44.18,150.44 29.69,164.93 29.69,182.8 L29.69,315.24 C29.69,333.11 44.18,347.6 62.06,347.6 L163.44,347.6 C181.31,347.6 195.8,333.11 195.8,315.24 L195.8,182.8 C195.8,164.93 181.31,150.44 163.44,150.44 Z" id="Path" fill="#83BADE"></path>
            <path d="M163.38,150.54 L62.11,150.54 C44.26,150.54 29.79,165.01 29.79,182.86 L29.79,315.18 C29.79,333.03 44.26,347.5 62.11,347.5 L163.38,347.5 C181.23,347.5 195.7,333.03 195.7,315.18 L195.7,182.86 C195.7,165.01 181.23,150.54 163.38,150.54 Z" id="Path" fill="#82B9DE"></path>
            <path d="M163.33,150.65 L62.16,150.65 C44.34,150.65 29.89,165.09 29.89,182.92 L29.89,315.13 C29.89,332.95 44.34,347.4 62.16,347.4 L163.33,347.4 C181.16,347.4 195.61,332.95 195.61,315.13 L195.61,182.92 C195.61,165.09 181.16,150.65 163.33,150.65 Z" id="Path" fill="#81B9DE"></path>
            <path d="M163.28,150.75 L62.21,150.75 C44.42,150.75 29.99,165.18 29.99,182.98 L29.99,315.07 C29.99,332.87 44.42,347.29 62.21,347.29 L163.28,347.29 C181.08,347.29 195.51,332.87 195.51,315.07 L195.51,182.98 C195.51,165.18 181.08,150.75 163.28,150.75 Z" id="Path" fill="#80B8DE"></path>
            <path d="M163.23,150.85 L62.27,150.85 C44.49,150.85 30.09,165.26 30.09,183.03 L30.09,315.01 C30.09,332.78 44.49,347.19 62.27,347.19 L163.23,347.19 C181,347.19 195.41,332.78 195.41,315.01 L195.41,183.03 C195.41,165.26 181,150.85 163.23,150.85 Z" id="Path" fill="#7FB8DD"></path>
            <path d="M163.18,150.96 L62.32,150.96 C44.57,150.96 30.19,165.34 30.19,183.09 L30.19,314.95 C30.19,332.7 44.57,347.09 62.32,347.09 L163.18,347.09 C180.92,347.09 195.31,332.7 195.31,314.95 L195.31,183.09 C195.31,165.34 180.92,150.96 163.18,150.96 Z" id="Path" fill="#7EB7DD"></path>
            <path d="M163.12,151.06 L62.38,151.06 C44.65,151.06 30.28,165.43 30.28,183.15 L30.28,314.89 C30.28,332.61 44.65,346.98 62.38,346.98 L163.12,346.98 C180.84,346.98 195.21,332.61 195.21,314.89 L195.21,183.15 C195.21,165.43 180.84,151.06 163.12,151.06 Z" id="Path" fill="#7DB7DD"></path>
            <path d="M62.43,151.16 L163.07,151.16 C180.75,151.16 195.11,165.52 195.11,183.2 L195.11,314.84 C195.11,332.52 180.76,346.88 163.07,346.88 L62.43,346.88 C44.74,346.88 30.38,332.52 30.38,314.84 L30.38,183.2 C30.38,165.52 44.74,151.16 62.43,151.16 Z" id="Path" fill="#7CB6DD"></path>
            <path d="M163.01,151.27 L62.48,151.27 C44.81,151.27 30.48,165.59 30.48,183.26 L30.48,314.78 C30.48,332.45 44.81,346.78 62.48,346.78 L163.01,346.78 C180.69,346.78 195.01,332.45 195.01,314.78 L195.01,183.26 C195.01,165.59 180.69,151.27 163.01,151.27 Z" id="Path" fill="#7BB5DC"></path>
            <path d="M162.97,151.37 L62.53,151.37 C44.88,151.37 30.58,165.67 30.58,183.32 L30.58,314.72 C30.58,332.37 44.88,346.67 62.53,346.67 L162.97,346.67 C180.61,346.67 194.92,332.37 194.92,314.72 L194.92,183.32 C194.92,165.67 180.61,151.37 162.97,151.37 Z" id="Path" fill="#7AB5DC"></path>
            <path d="M162.91,151.47 L62.58,151.47 C44.96,151.47 30.68,165.76 30.68,183.38 L30.68,314.66 C30.68,332.28 44.96,346.57 62.58,346.57 L162.91,346.57 C180.53,346.57 194.82,332.28 194.82,314.66 L194.82,183.38 C194.82,165.76 180.53,151.47 162.91,151.47 Z" id="Path" fill="#79B4DC"></path>
            <path d="M62.63,151.58 L162.86,151.58 C180.44,151.58 194.72,165.85 194.72,183.44 L194.72,314.61 C194.72,332.19 180.44,346.47 162.86,346.47 L62.63,346.47 C45.05,346.47 30.77,332.19 30.77,314.61 L30.77,183.44 C30.77,165.85 45.05,151.58 62.63,151.58 Z" id="Path" fill="#78B4DC"></path>
            <path d="M162.81,151.68 L62.69,151.68 C45.12,151.68 30.87,165.92 30.87,183.5 L30.87,314.55 C30.87,332.12 45.12,346.36 62.69,346.36 L162.81,346.36 C180.38,346.36 194.62,332.12 194.62,314.55 L194.62,183.5 C194.62,165.92 180.38,151.68 162.81,151.68 Z" id="Path" fill="#77B3DB"></path>
            <path d="M162.75,151.78 L62.74,151.78 C45.2,151.78 30.97,166.01 30.97,183.55 L30.97,314.49 C30.97,332.03 45.2,346.26 62.74,346.26 L162.75,346.26 C180.3,346.26 194.52,332.03 194.52,314.49 L194.52,183.55 C194.52,166.01 180.3,151.78 162.75,151.78 Z" id="Path" fill="#76B3DB"></path>
            <path d="M162.7,151.89 L62.79,151.89 C45.27,151.89 31.07,166.09 31.07,183.61 L31.07,314.43 C31.07,331.95 45.27,346.15 62.79,346.15 L162.7,346.15 C180.22,346.15 194.42,331.95 194.42,314.43 L194.42,183.61 C194.42,166.09 180.22,151.89 162.7,151.89 Z" id="Path" fill="#75B2DB"></path>
            <path d="M62.84,151.99 L162.65,151.99 C180.13,151.99 194.32,166.18 194.32,183.67 L194.32,314.38 C194.32,331.86 180.13,346.05 162.65,346.05 L62.84,346.05 C45.36,346.05 31.17,331.86 31.17,314.38 L31.17,183.67 C31.17,166.18 45.36,151.99 62.84,151.99 Z" id="Path" fill="#74B2DA"></path>
            <path d="M162.6,152.1 L62.9,152.1 C45.43,152.1 31.27,166.26 31.27,183.73 L31.27,314.32 C31.27,331.79 45.43,345.95 62.9,345.95 L162.6,345.95 C180.07,345.95 194.23,331.79 194.23,314.32 L194.23,183.73 C194.23,166.26 180.07,152.1 162.6,152.1 Z" id="Path" fill="#73B1DA"></path>
            <path d="M162.54,152.2 L62.95,152.2 C45.51,152.2 31.37,166.34 31.37,183.78 L31.37,314.26 C31.37,331.7 45.51,345.84 62.95,345.84 L162.54,345.84 C179.98,345.84 194.13,331.7 194.13,314.26 L194.13,183.78 C194.13,166.34 179.98,152.2 162.54,152.2 Z" id="Path" fill="#72B0DA"></path>
            <path d="M162.49,152.3 L63,152.3 C45.59,152.3 31.47,166.42 31.47,183.84 L31.47,314.2 C31.47,331.62 45.59,345.74 63,345.74 L162.49,345.74 C179.91,345.74 194.03,331.62 194.03,314.2 L194.03,183.84 C194.03,166.42 179.91,152.3 162.49,152.3 Z" id="Path" fill="#71B0DA"></path>
            <path d="M162.44,152.41 L63.05,152.41 C45.66,152.41 31.56,166.51 31.56,183.9 L31.56,314.15 C31.56,331.54 45.66,345.64 63.05,345.64 L162.44,345.64 C179.83,345.64 193.93,331.54 193.93,314.15 L193.93,183.9 C193.93,166.51 179.83,152.41 162.44,152.41 Z" id="Path" fill="#70AFD9"></path>
            <path d="M162.39,152.51 L63.11,152.51 C45.74,152.51 31.66,166.59 31.66,183.95 L31.66,314.09 C31.66,331.45 45.74,345.53 63.11,345.53 L162.39,345.53 C179.76,345.53 193.83,331.45 193.83,314.09 L193.83,183.95 C193.83,166.59 179.76,152.51 162.39,152.51 Z" id="Path" fill="#6FAFD9"></path>
            <path d="M162.33,152.61 L63.16,152.61 C45.82,152.61 31.76,166.67 31.76,184.01 L31.76,314.03 C31.76,331.37 45.82,345.43 63.16,345.43 L162.33,345.43 C179.68,345.43 193.73,331.37 193.73,314.03 L193.73,184.01 C193.73,166.67 179.68,152.61 162.33,152.61 Z" id="Path" fill="#6EAED9"></path>
            <path d="M63.21,152.72 L162.28,152.72 C179.59,152.72 193.64,166.76 193.64,184.07 L193.64,313.97 C193.64,331.28 179.59,345.32 162.28,345.32 L63.21,345.32 C45.91,345.32 31.86,331.28 31.86,313.97 L31.86,184.07 C31.86,166.76 45.91,152.72 63.21,152.72 Z" id="Path" fill="#6DAED9"></path>
            <path d="M162.23,152.82 L63.26,152.82 C45.97,152.82 31.96,166.84 31.96,184.13 L31.96,313.92 C31.96,331.21 45.97,345.22 63.26,345.22 L162.23,345.22 C179.52,345.22 193.54,331.21 193.54,313.92 L193.54,184.13 C193.54,166.84 179.52,152.82 162.23,152.82 Z" id="Path" fill="#6CADD8"></path>
            <path d="M162.18,152.92 L63.32,152.92 C46.05,152.92 32.06,166.92 32.06,184.18 L32.06,313.86 C32.06,331.12 46.05,345.12 63.32,345.12 L162.18,345.12 C179.44,345.12 193.44,331.12 193.44,313.86 L193.44,184.18 C193.44,166.92 179.44,152.92 162.18,152.92 Z" id="Path" fill="#6BADD8"></path>
            <path d="M162.13,153.03 L63.37,153.03 C46.13,153.03 32.15,167 32.15,184.24 L32.15,313.8 C32.15,331.04 46.13,345.01 63.37,345.01 L162.13,345.01 C179.36,345.01 193.34,331.04 193.34,313.8 L193.34,184.24 C193.34,167 179.36,153.03 162.13,153.03 Z" id="Path" fill="#6AACD8"></path>
            <path d="M63.42,153.13 L162.07,153.13 C179.28,153.13 193.24,167.09 193.24,184.3 L193.24,313.74 C193.24,330.94 179.28,344.91 162.07,344.91 L63.42,344.91 C46.22,344.91 32.25,330.94 32.25,313.74 L32.25,184.3 C32.25,167.09 46.22,153.13 63.42,153.13 Z" id="Path" fill="#69ABD8"></path>
            <path d="M162.02,153.23 L63.47,153.23 C46.28,153.23 32.35,167.17 32.35,184.36 L32.35,313.69 C32.35,330.87 46.28,344.81 63.47,344.81 L162.02,344.81 C179.21,344.81 193.14,330.87 193.14,313.69 L193.14,184.36 C193.14,167.17 179.21,153.23 162.02,153.23 Z" id="Path" fill="#68ABD7"></path>
            <path d="M161.97,153.34 L63.52,153.34 C46.36,153.34 32.45,167.25 32.45,184.41 L32.45,313.63 C32.45,330.79 46.36,344.7 63.52,344.7 L161.97,344.7 C179.13,344.7 193.04,330.79 193.04,313.63 L193.04,184.41 C193.04,167.25 179.13,153.34 161.97,153.34 Z" id="Path" fill="#67AAD7"></path>
            <path d="M161.92,153.44 L63.58,153.44 C46.44,153.44 32.55,167.34 32.55,184.47 L32.55,313.57 C32.55,330.71 46.44,344.6 63.58,344.6 L161.92,344.6 C179.05,344.6 192.95,330.71 192.95,313.57 L192.95,184.47 C192.95,167.34 179.05,153.44 161.92,153.44 Z" id="Path" fill="#66AAD7"></path>
            <path d="M63.63,153.54 L161.86,153.54 C178.96,153.54 192.85,167.43 192.85,184.53 L192.85,313.51 C192.85,330.61 178.96,344.5 161.86,344.5 L63.63,344.5 C46.53,344.5 32.65,330.61 32.65,313.51 L32.65,184.53 C32.65,167.43 46.53,153.54 63.63,153.54 Z" id="Path" fill="#65A9D7"></path>
            <path d="M161.81,153.65 L63.68,153.65 C46.6,153.65 32.75,167.5 32.75,184.59 L32.75,313.45 C32.75,330.54 46.6,344.39 63.68,344.39 L161.81,344.39 C178.9,344.39 192.75,330.54 192.75,313.45 L192.75,184.59 C192.75,167.5 178.9,153.65 161.81,153.65 Z" id="Path" fill="#64A9D6"></path>
            <path d="M161.76,153.75 L63.73,153.75 C46.67,153.75 32.84,167.58 32.84,184.64 L32.84,313.4 C32.84,330.46 46.67,344.29 63.73,344.29 L161.76,344.29 C178.82,344.29 192.65,330.46 192.65,313.4 L192.65,184.64 C192.65,167.58 178.82,153.75 161.76,153.75 Z" id="Path" fill="#63A8D6"></path>
            <path d="M161.71,153.86 L63.79,153.86 C46.75,153.86 32.94,167.67 32.94,184.7 L32.94,313.34 C32.94,330.38 46.75,344.19 63.79,344.19 L161.71,344.19 C178.74,344.19 192.55,330.38 192.55,313.34 L192.55,184.7 C192.55,167.67 178.74,153.86 161.71,153.86 Z" id="Path" fill="#62A8D6"></path>
            <path d="M161.65,153.96 L63.84,153.96 C46.83,153.96 33.04,167.75 33.04,184.76 L33.04,313.28 C33.04,330.29 46.83,344.08 63.84,344.08 L161.65,344.08 C178.66,344.08 192.45,330.29 192.45,313.28 L192.45,184.76 C192.45,167.75 178.66,153.96 161.65,153.96 Z" id="Path" fill="#61A7D5"></path>
            <path d="M161.6,154.06 L63.89,154.06 C46.91,154.06 33.14,167.83 33.14,184.82 L33.14,313.22 C33.14,330.21 46.91,343.98 63.89,343.98 L161.6,343.98 C178.59,343.98 192.36,330.21 192.36,313.22 L192.36,184.82 C192.36,167.83 178.59,154.06 161.6,154.06 Z" id="Path" fill="#60A6D5"></path>
            <path d="M161.55,154.17 L63.94,154.17 C46.99,154.17 33.24,167.92 33.24,184.87 L33.24,313.17 C33.24,330.13 46.99,343.88 63.94,343.88 L161.55,343.88 C178.51,343.88 192.26,330.13 192.26,313.17 L192.26,184.87 C192.26,167.92 178.51,154.17 161.55,154.17 Z" id="Path" fill="#5FA6D5"></path>
            <path d="M161.5,154.27 L63.99,154.27 C47.06,154.27 33.33,168 33.33,184.93 L33.33,313.11 C33.33,330.04 47.06,343.77 63.99,343.77 L161.5,343.77 C178.43,343.77 192.16,330.04 192.16,313.11 L192.16,184.93 C192.16,168 178.43,154.27 161.5,154.27 Z" id="Path" fill="#5EA5D5"></path>
            <path d="M161.45,154.37 L64.05,154.37 C47.14,154.37 33.43,168.08 33.43,184.99 L33.43,313.05 C33.43,329.96 47.14,343.67 64.05,343.67 L161.45,343.67 C178.36,343.67 192.06,329.96 192.06,313.05 L192.06,184.99 C192.06,168.08 178.36,154.37 161.45,154.37 Z" id="Path" fill="#5DA5D4"></path>
            <path d="M161.39,154.48 L64.1,154.48 C47.22,154.48 33.53,168.16 33.53,185.05 L33.53,313 C33.53,329.88 47.22,343.56 64.1,343.56 L161.39,343.56 C178.28,343.56 191.96,329.88 191.96,313 L191.96,185.05 C191.96,168.16 178.28,154.48 161.39,154.48 Z" id="Path" fill="#5CA4D4"></path>
            <path d="M161.34,154.58 L64.15,154.58 C47.3,154.58 33.63,168.25 33.63,185.11 L33.63,312.94 C33.63,329.8 47.3,343.46 64.15,343.46 L161.34,343.46 C178.2,343.46 191.86,329.8 191.86,312.94 L191.86,185.11 C191.86,168.25 178.2,154.58 161.34,154.58 Z" id="Path" fill="#5BA4D4"></path>
            <path d="M64.21,154.68 L161.29,154.68 C178.11,154.68 191.76,168.34 191.76,185.16 L191.76,312.88 C191.76,329.7 178.11,343.36 161.29,343.36 L64.21,343.36 C47.39,343.36 33.73,329.7 33.73,312.88 L33.73,185.16 C33.73,168.34 47.39,154.68 64.21,154.68 Z" id="Path" fill="#5AA3D4"></path>
            <path d="M161.24,154.79 L64.26,154.79 C47.45,154.79 33.83,168.41 33.83,185.22 L33.83,312.82 C33.83,329.63 47.45,343.25 64.26,343.25 L161.24,343.25 C178.04,343.25 191.67,329.63 191.67,312.82 L191.67,185.22 C191.67,168.41 178.04,154.79 161.24,154.79 Z" id="Path" fill="#59A3D3"></path>
            <path d="M161.18,154.89 L64.31,154.89 C47.53,154.89 33.93,168.5 33.93,185.28 L33.93,312.77 C33.93,329.55 47.53,343.15 64.31,343.15 L161.18,343.15 C177.96,343.15 191.57,329.55 191.57,312.77 L191.57,185.28 C191.57,168.5 177.96,154.89 161.18,154.89 Z" id="Path" fill="#58A2D3"></path>
            <path d="M161.13,154.99 L64.37,154.99 C47.61,154.99 34.03,168.58 34.03,185.34 L34.03,312.7 C34.03,329.46 47.61,343.05 64.37,343.05 L161.13,343.05 C177.89,343.05 191.47,329.46 191.47,312.7 L191.47,185.34 C191.47,168.58 177.89,154.99 161.13,154.99 Z" id="Path" fill="#57A1D3"></path>
            <path d="M64.42,155.1 L161.08,155.1 C177.8,155.1 191.37,168.67 191.37,185.39 L191.37,312.65 C191.37,329.37 177.8,342.95 161.08,342.95 L64.42,342.95 C47.7,342.95 34.12,329.37 34.12,312.65 L34.12,185.39 C34.12,168.67 47.7,155.1 64.42,155.1 Z" id="Path" fill="#56A1D3"></path>
            <path d="M161.02,155.2 L64.47,155.2 C47.76,155.2 34.22,168.74 34.22,185.45 L34.22,312.59 C34.22,329.3 47.76,342.84 64.47,342.84 L161.02,342.84 C177.73,342.84 191.27,329.3 191.27,312.59 L191.27,185.45 C191.27,168.74 177.73,155.2 161.02,155.2 Z" id="Path" fill="#55A0D2"></path>
            <path d="M160.97,155.31 L64.52,155.31 C47.84,155.31 34.32,168.83 34.32,185.51 L34.32,312.53 C34.32,329.21 47.84,342.74 64.52,342.74 L160.97,342.74 C177.65,342.74 191.18,329.21 191.18,312.53 L191.18,185.51 C191.18,168.83 177.65,155.31 160.97,155.31 Z" id="Path" fill="#54A0D2"></path>
            <path d="M160.92,155.41 L64.57,155.41 C47.92,155.41 34.42,168.91 34.42,185.56 L34.42,312.47 C34.42,329.13 47.92,342.63 64.57,342.63 L160.92,342.63 C177.57,342.63 191.08,329.13 191.08,312.47 L191.08,185.56 C191.08,168.91 177.57,155.41 160.92,155.41 Z" id="Path" fill="#539FD2"></path>
            <path d="M160.87,155.51 L64.63,155.51 C48,155.51 34.52,169 34.52,185.62 L34.52,312.42 C34.52,329.05 48,342.53 64.63,342.53 L160.87,342.53 C177.5,342.53 190.98,329.05 190.98,312.42 L190.98,185.62 C190.98,169 177.5,155.51 160.87,155.51 Z" id="Path" fill="#529FD2"></path>
            <path d="M160.82,155.62 L64.68,155.62 C48.08,155.62 34.61,169.08 34.61,185.68 L34.61,312.36 C34.61,328.96 48.08,342.42 64.68,342.42 L160.82,342.42 C177.42,342.42 190.88,328.96 190.88,312.36 L190.88,185.68 C190.88,169.08 177.42,155.62 160.82,155.62 Z" id="Path" fill="#519ED1"></path>
            <path d="M160.76,155.72 L64.73,155.72 C48.15,155.72 34.71,169.16 34.71,185.74 L34.71,312.3 C34.71,328.88 48.15,342.32 64.73,342.32 L160.76,342.32 C177.34,342.32 190.78,328.88 190.78,312.3 L190.78,185.74 C190.78,169.16 177.34,155.72 160.76,155.72 Z" id="Path" fill="#509ED1"></path>
            <path d="M160.71,155.82 L64.78,155.82 C48.23,155.82 34.81,169.24 34.81,185.8 L34.81,312.25 C34.81,328.8 48.23,342.22 64.78,342.22 L160.71,342.22 C177.26,342.22 190.68,328.8 190.68,312.25 L190.68,185.8 C190.68,169.24 177.26,155.82 160.71,155.82 Z" id="Path" fill="#4F9DD1"></path>
            <path d="M160.66,155.93 L64.84,155.93 C48.31,155.93 34.91,169.33 34.91,185.86 L34.91,312.19 C34.91,328.72 48.31,342.12 64.84,342.12 L160.66,342.12 C177.19,342.12 190.58,328.72 190.58,312.19 L190.58,185.86 C190.58,169.33 177.19,155.93 160.66,155.93 Z" id="Path" fill="#4E9CD0"></path>
            <path d="M160.6,156.03 L64.89,156.03 C48.39,156.03 35.01,169.41 35.01,185.91 L35.01,312.13 C35.01,328.63 48.39,342.01 64.89,342.01 L160.6,342.01 C177.11,342.01 190.48,328.63 190.48,312.13 L190.48,185.91 C190.48,169.41 177.11,156.03 160.6,156.03 Z" id="Path" fill="#4D9CD0"></path>
            <path d="M160.55,156.13 L64.94,156.13 C48.47,156.13 35.11,169.49 35.11,185.97 L35.11,312.07 C35.11,328.55 48.47,341.91 64.94,341.91 L160.55,341.91 C177.03,341.91 190.39,328.55 190.39,312.07 L190.39,185.97 C190.39,169.49 177.03,156.13 160.55,156.13 Z" id="Path" fill="#4C9BD0"></path>
            <path d="M160.5,156.24 L64.99,156.24 C48.54,156.24 35.21,169.57 35.21,186.03 L35.21,312.02 C35.21,328.47 48.54,341.81 64.99,341.81 L160.5,341.81 C176.95,341.81 190.29,328.47 190.29,312.02 L190.29,186.03 C190.29,169.57 176.95,156.24 160.5,156.24 Z" id="Path" fill="#4B9BD0"></path>
            <path d="M160.45,156.34 L65.05,156.34 C48.62,156.34 35.3,169.66 35.3,186.08 L35.3,311.96 C35.3,328.38 48.62,341.7 65.05,341.7 L160.45,341.7 C176.88,341.7 190.19,328.38 190.19,311.96 L190.19,186.08 C190.19,169.66 176.88,156.34 160.45,156.34 Z" id="Path" fill="#4A9ACF"></path>
            <path d="M160.4,156.45 L65.1,156.45 C48.7,156.45 35.4,169.74 35.4,186.14 L35.4,311.9 C35.4,328.3 48.7,341.6 65.1,341.6 L160.4,341.6 C176.8,341.6 190.09,328.3 190.09,311.9 L190.09,186.14 C190.09,169.74 176.8,156.45 160.4,156.45 Z" id="Path" fill="#499ACF"></path>
            <path d="M160.34,156.55 L65.15,156.55 C48.77,156.55 35.5,169.82 35.5,186.2 L35.5,311.84 C35.5,328.22 48.77,341.49 65.15,341.49 L160.34,341.49 C176.72,341.49 189.99,328.22 189.99,311.84 L189.99,186.2 C189.99,169.82 176.72,156.55 160.34,156.55 Z" id="Path" fill="#4899CF"></path>
            <path d="M65.2,156.65 L160.29,156.65 C176.63,156.65 189.9,169.92 189.9,186.26 L189.9,311.79 C189.9,328.12 176.63,341.39 160.29,341.39 L65.2,341.39 C48.87,341.39 35.6,328.12 35.6,311.79 L35.6,186.26 C35.6,169.92 48.87,156.65 65.2,156.65 Z" id="Path" fill="#4799CF"></path>
            <path d="M160.24,156.76 L65.25,156.76 C48.93,156.76 35.7,169.99 35.7,186.31 L35.7,311.73 C35.7,328.05 48.93,341.29 65.25,341.29 L160.24,341.29 C176.56,341.29 189.8,328.05 189.8,311.73 L189.8,186.31 C189.8,169.99 176.56,156.76 160.24,156.76 Z" id="Path" fill="#4698CE"></path>
            <path d="M160.19,156.86 L65.31,156.86 C49.01,156.86 35.8,170.07 35.8,186.37 L35.8,311.67 C35.8,327.97 49.01,341.18 65.31,341.18 L160.19,341.18 C176.49,341.18 189.7,327.97 189.7,311.67 L189.7,186.37 C189.7,170.07 176.49,156.86 160.19,156.86 Z" id="Path" fill="#4597CE"></path>
            <path d="M160.13,156.96 L65.36,156.96 C49.09,156.96 35.89,170.15 35.89,186.43 L35.89,311.61 C35.89,327.89 49.09,341.08 65.36,341.08 L160.13,341.08 C176.41,341.08 189.6,327.89 189.6,311.61 L189.6,186.43 C189.6,170.15 176.41,156.96 160.13,156.96 Z" id="Path" fill="#4497CE"></path>
            <path d="M65.41,157.07 L160.08,157.07 C176.32,157.07 189.5,170.25 189.5,186.49 L189.5,311.56 C189.5,327.79 176.32,340.97 160.08,340.97 L65.41,340.97 C49.18,340.97 35.99,327.79 35.99,311.56 L35.99,186.49 C35.99,170.25 49.18,157.07 65.41,157.07 Z" id="Path" fill="#4396CE"></path>
            <path d="M160.03,157.17 L65.47,157.17 C49.24,157.17 36.09,170.32 36.09,186.54 L36.09,311.5 C36.09,327.72 49.24,340.87 65.47,340.87 L160.03,340.87 C176.25,340.87 189.4,327.72 189.4,311.5 L189.4,186.54 C189.4,170.32 176.25,157.17 160.03,157.17 Z" id="Path" fill="#4296CD"></path>
            <path d="M159.98,157.27 L65.52,157.27 C49.32,157.27 36.19,170.4 36.19,186.6 L36.19,311.44 C36.19,327.63 49.32,340.77 65.52,340.77 L159.98,340.77 C176.17,340.77 189.3,327.63 189.3,311.44 L189.3,186.6 C189.3,170.4 176.17,157.27 159.98,157.27 Z" id="Path" fill="#4195CD"></path>
            <path d="M159.93,157.38 L65.57,157.38 C49.4,157.38 36.29,170.49 36.29,186.66 L36.29,311.38 C36.29,327.56 49.4,340.67 65.57,340.67 L159.93,340.67 C176.1,340.67 189.21,327.56 189.21,311.38 L189.21,186.66 C189.21,170.49 176.1,157.38 159.93,157.38 Z" id="Path" fill="#4095CD"></path>
            <path d="M65.62,157.48 L159.87,157.48 C176.01,157.48 189.11,170.58 189.11,186.72 L189.11,311.32 C189.11,327.46 176.01,340.56 159.87,340.56 L65.62,340.56 C49.49,340.56 36.39,327.46 36.39,311.32 L36.39,186.72 C36.39,170.58 49.49,157.48 65.62,157.48 Z" id="Path" fill="#3F94CD"></path>
            <path d="M159.82,157.59 L65.68,157.59 C49.55,157.59 36.49,170.65 36.49,186.77 L36.49,311.27 C36.49,327.39 49.55,340.46 65.68,340.46 L159.82,340.46 C175.94,340.46 189.01,327.39 189.01,311.27 L189.01,186.77 C189.01,170.65 175.94,157.59 159.82,157.59 Z" id="Path" fill="#3E94CC"></path>
            <path d="M159.77,157.69 L65.73,157.69 C49.63,157.69 36.58,170.73 36.58,186.83 L36.58,311.21 C36.58,327.31 49.63,340.35 65.73,340.35 L159.77,340.35 C175.86,340.35 188.91,327.31 188.91,311.21 L188.91,186.83 C188.91,170.73 175.86,157.69 159.77,157.69 Z" id="Path" fill="#3D93CC"></path>
            <path d="M159.72,157.79 L65.78,157.79 C49.71,157.79 36.68,170.82 36.68,186.89 L36.68,311.15 C36.68,327.22 49.71,340.25 65.78,340.25 L159.72,340.25 C175.79,340.25 188.81,327.22 188.81,311.15 L188.81,186.89 C188.81,170.82 175.79,157.79 159.72,157.79 Z" id="Path" fill="#3C92CC"></path>
            <path d="M159.66,157.9 L65.83,157.9 C49.79,157.9 36.78,170.9 36.78,186.95 L36.78,311.1 C36.78,327.14 49.79,340.15 65.83,340.15 L159.66,340.15 C175.71,340.15 188.71,327.14 188.71,311.1 L188.71,186.95 C188.71,170.9 175.71,157.9 159.66,157.9 Z" id="Path" fill="#3B92CC"></path>
            <path d="M159.61,158 L65.88,158 C49.87,158 36.88,170.98 36.88,187 L36.88,311.04 C36.88,327.06 49.87,340.04 65.88,340.04 L159.61,340.04 C175.63,340.04 188.62,327.06 188.62,311.04 L188.62,187 C188.62,170.98 175.63,158 159.61,158 Z" id="Path" fill="#3A91CB"></path>
            <path d="M159.56,158.1 L65.94,158.1 C49.94,158.1 36.98,171.07 36.98,187.06 L36.98,310.98 C36.98,326.97 49.94,339.94 65.94,339.94 L159.56,339.94 C175.55,339.94 188.52,326.97 188.52,310.98 L188.52,187.06 C188.52,171.07 175.55,158.1 159.56,158.1 Z" id="Path" fill="#3991CB"></path>
            <path d="M159.5,158.21 L65.99,158.21 C50.02,158.21 37.07,171.15 37.07,187.12 L37.07,310.92 C37.07,326.89 50.02,339.84 65.99,339.84 L159.5,339.84 C175.47,339.84 188.42,326.89 188.42,310.92 L188.42,187.12 C188.42,171.15 175.47,158.21 159.5,158.21 Z" id="Path" fill="#3890CB"></path>
            <path d="M159.46,158.31 L66.04,158.31 C50.1,158.31 37.17,171.23 37.17,187.18 L37.17,310.87 C37.17,326.81 50.1,339.73 66.04,339.73 L159.46,339.73 C175.4,339.73 188.32,326.81 188.32,310.87 L188.32,187.18 C188.32,171.23 175.4,158.31 159.46,158.31 Z" id="Path" fill="#3790CA"></path>
            <path d="M159.4,158.41 L66.09,158.41 C50.18,158.41 37.27,171.32 37.27,187.23 L37.27,310.81 C37.27,326.73 50.18,339.63 66.09,339.63 L159.4,339.63 C175.32,339.63 188.22,326.73 188.22,310.81 L188.22,187.23 C188.22,171.32 175.32,158.41 159.4,158.41 Z" id="Path" fill="#368FCA"></path>
            <path d="M159.35,158.52 L66.15,158.52 C50.25,158.52 37.37,171.4 37.37,187.29 L37.37,310.75 C37.37,326.64 50.25,339.52 66.15,339.52 L159.35,339.52 C175.24,339.52 188.13,326.64 188.13,310.75 L188.13,187.29 C188.13,171.4 175.24,158.52 159.35,158.52 Z" id="Path" fill="#358FCA"></path>
            <path d="M66.2,158.62 L159.3,158.62 C175.15,158.62 188.02,171.49 188.02,187.35 L188.02,310.69 C188.02,326.55 175.15,339.42 159.3,339.42 L66.2,339.42 C50.34,339.42 37.47,326.54 37.47,310.69 L37.47,187.35 C37.47,171.49 50.35,158.62 66.2,158.62 Z" id="Path" fill="#348ECA"></path>
            <path d="M159.24,158.72 L66.25,158.72 C50.41,158.72 37.57,171.56 37.57,187.41 L37.57,310.64 C37.57,326.48 50.41,339.32 66.25,339.32 L159.24,339.32 C175.09,339.32 187.93,326.48 187.93,310.64 L187.93,187.41 C187.93,171.56 175.09,158.72 159.24,158.72 Z" id="Path" fill="#338DC9"></path>
            <path d="M159.19,158.83 L66.3,158.83 C50.49,158.83 37.67,171.65 37.67,187.46 L37.67,310.58 C37.67,326.39 50.49,339.21 66.3,339.21 L159.19,339.21 C175.01,339.21 187.83,326.39 187.83,310.58 L187.83,187.46 C187.83,171.65 175.01,158.83 159.19,158.83 Z" id="Path" fill="#328DC9"></path>
            <path d="M159.14,158.93 L66.36,158.93 C50.57,158.93 37.77,171.73 37.77,187.52 L37.77,310.52 C37.77,326.31 50.57,339.11 66.36,339.11 L159.14,339.11 C174.93,339.11 187.73,326.31 187.73,310.52 L187.73,187.52 C187.73,171.73 174.93,158.93 159.14,158.93 Z" id="Path" fill="#318CC9"></path>
            <path d="M66.41,159.03 L159.09,159.03 C174.84,159.03 187.63,171.82 187.63,187.58 L187.63,310.46 C187.63,326.22 174.84,339.01 159.09,339.01 L66.41,339.01 C50.66,339.01 37.86,326.22 37.86,310.46 L37.86,187.58 C37.86,171.83 50.65,159.03 66.41,159.03 Z" id="Path" fill="#308CC9"></path>
            <path d="M159.03,159.14 L66.46,159.14 C50.72,159.14 37.96,171.9 37.96,187.64 L37.96,310.4 C37.96,326.14 50.72,338.9 66.46,338.9 L159.03,338.9 C174.77,338.9 187.53,326.14 187.53,310.4 L187.53,187.64 C187.53,171.9 174.77,159.14 159.03,159.14 Z" id="Path" fill="#2F8BC8"></path>
            <path d="M158.98,159.24 L66.51,159.24 C50.8,159.24 38.06,171.98 38.06,187.7 L38.06,310.35 C38.06,326.06 50.8,338.8 66.51,338.8 L158.98,338.8 C174.69,338.8 187.43,326.06 187.43,310.35 L187.43,187.7 C187.43,171.98 174.69,159.24 158.98,159.24 Z" id="Path" fill="#2E8BC8"></path>
            <path d="M158.93,159.35 L66.57,159.35 C50.88,159.35 38.16,172.06 38.16,187.75 L38.16,310.29 C38.16,325.98 50.88,338.7 66.57,338.7 L158.93,338.7 C174.62,338.7 187.34,325.98 187.34,310.29 L187.34,187.75 C187.34,172.06 174.62,159.35 158.93,159.35 Z" id="Path" fill="#2D8AC8"></path>
            <path d="M158.88,159.45 L66.62,159.45 C50.96,159.45 38.26,172.15 38.26,187.81 L38.26,310.23 C38.26,325.89 50.96,338.59 66.62,338.59 L158.88,338.59 C174.54,338.59 187.24,325.89 187.24,310.23 L187.24,187.81 C187.24,172.15 174.54,159.45 158.88,159.45 Z" id="Path" fill="#2C8AC8"></path>
            <path d="M158.82,159.55 L66.67,159.55 C51.03,159.55 38.35,172.23 38.35,187.87 L38.35,310.17 C38.35,325.81 51.03,338.49 66.67,338.49 L158.82,338.49 C174.46,338.49 187.14,325.81 187.14,310.17 L187.14,187.87 C187.14,172.23 174.46,159.55 158.82,159.55 Z" id="Path" fill="#2B89C7"></path>
            <path d="M158.77,159.66 L66.72,159.66 C51.11,159.66 38.45,172.31 38.45,187.93 L38.45,310.12 C38.45,325.73 51.11,338.38 66.72,338.38 L158.77,338.38 C174.38,338.38 187.04,325.73 187.04,310.12 L187.04,187.93 C187.04,172.31 174.38,159.66 158.77,159.66 Z" id="Path" fill="#2A88C7"></path>
            <path d="M158.72,159.76 L66.78,159.76 C51.19,159.76 38.55,172.4 38.55,187.98 L38.55,310.06 C38.55,325.64 51.19,338.28 66.78,338.28 L158.72,338.28 C174.31,338.28 186.94,325.64 186.94,310.06 L186.94,187.98 C186.94,172.4 174.31,159.76 158.72,159.76 Z" id="Path" fill="#2988C7"></path>
            <path d="M158.67,159.86 L66.83,159.86 C51.27,159.86 38.65,172.48 38.65,188.04 L38.65,310 C38.65,325.56 51.27,338.18 66.83,338.18 L158.67,338.18 C174.23,338.18 186.85,325.56 186.85,310 L186.85,188.04 C186.85,172.48 174.23,159.86 158.67,159.86 Z" id="Path" fill="#2887C7"></path>
            <path d="M158.61,159.97 L66.88,159.97 C51.34,159.97 38.75,172.56 38.75,188.1 L38.75,309.94 C38.75,325.48 51.34,338.07 66.88,338.07 L158.61,338.07 C174.15,338.07 186.74,325.48 186.74,309.94 L186.74,188.1 C186.74,172.56 174.15,159.97 158.61,159.97 Z" id="Path" fill="#2787C6"></path>
            <path d="M158.56,160.07 L66.93,160.07 C51.42,160.07 38.85,172.65 38.85,188.16 L38.85,309.89 C38.85,325.4 51.42,337.97 66.93,337.97 L158.56,337.97 C174.07,337.97 186.65,325.4 186.65,309.89 L186.65,188.16 C186.65,172.65 174.07,160.07 158.56,160.07 Z" id="Path" fill="#2686C6"></path>
            <path d="M158.51,160.17 L66.99,160.17 C51.5,160.17 38.95,172.73 38.95,188.21 L38.95,309.83 C38.95,325.31 51.5,337.87 66.99,337.87 L158.51,337.87 C173.99,337.87 186.55,325.31 186.55,309.83 L186.55,188.21 C186.55,172.73 173.99,160.17 158.51,160.17 Z" id="Path" fill="#2586C6"></path>
            <path d="M158.46,160.28 L67.04,160.28 C51.58,160.28 39.04,172.81 39.04,188.27 L39.04,309.77 C39.04,325.23 51.58,337.76 67.04,337.76 L158.46,337.76 C173.92,337.76 186.45,325.23 186.45,309.77 L186.45,188.27 C186.45,172.81 173.92,160.28 158.46,160.28 Z" id="Path" fill="#2485C5"></path>
            <path d="M158.41,160.38 L67.09,160.38 C51.66,160.38 39.14,172.89 39.14,188.33 L39.14,309.71 C39.14,325.15 51.66,337.66 67.09,337.66 L158.41,337.66 C173.84,337.66 186.35,325.15 186.35,309.71 L186.35,188.33 C186.35,172.89 173.84,160.38 158.41,160.38 Z" id="Path" fill="#2384C5"></path>
            <path d="M158.35,160.48 L67.14,160.48 C51.73,160.48 39.24,172.98 39.24,188.39 L39.24,309.66 C39.24,325.07 51.73,337.56 67.14,337.56 L158.35,337.56 C173.76,337.56 186.25,325.07 186.25,309.66 L186.25,188.39 C186.25,172.98 173.76,160.48 158.35,160.48 Z" id="Path" fill="#2284C5"></path>
            <path d="M158.3,160.59 L67.19,160.59 C51.81,160.59 39.34,173.06 39.34,188.44 L39.34,309.6 C39.34,324.98 51.81,337.45 67.19,337.45 L158.3,337.45 C173.69,337.45 186.16,324.98 186.16,309.6 L186.16,188.44 C186.16,173.06 173.69,160.59 158.3,160.59 Z" id="Path" fill="#2183C5"></path>
            <path d="M158.25,160.69 L67.25,160.69 C51.89,160.69 39.44,173.14 39.44,188.5 L39.44,309.54 C39.44,324.9 51.89,337.35 67.25,337.35 L158.25,337.35 C173.61,337.35 186.06,324.9 186.06,309.54 L186.06,188.5 C186.06,173.14 173.61,160.69 158.25,160.69 Z" id="Path" fill="#2083C4"></path>
            <path d="M158.2,160.79 L67.3,160.79 C51.97,160.79 39.54,173.23 39.54,188.56 L39.54,309.48 C39.54,324.82 51.97,337.25 67.3,337.25 L158.2,337.25 C173.53,337.25 185.96,324.82 185.96,309.48 L185.96,188.56 C185.96,173.23 173.53,160.79 158.2,160.79 Z" id="Path" fill="#1F82C4"></path>
            <path d="M158.14,160.9 L67.35,160.9 C52.04,160.9 39.63,173.31 39.63,188.62 L39.63,309.43 C39.63,324.73 52.04,337.14 67.35,337.14 L158.14,337.14 C173.45,337.14 185.86,324.73 185.86,309.43 L185.86,188.62 C185.86,173.31 173.45,160.9 158.14,160.9 Z" id="Path" fill="#1E82C4"></path>
            <path d="M67.41,161 L158.09,161 C173.36,161 185.76,173.4 185.76,188.67 L185.76,309.37 C185.76,324.64 173.36,337.04 158.09,337.04 L67.41,337.04 C52.13,337.04 39.73,324.64 39.73,309.37 L39.73,188.67 C39.73,173.4 52.13,161 67.41,161 Z" id="Path" fill="#1D81C4"></path>
            <path d="M158.04,161.11 L67.46,161.11 C52.2,161.11 39.83,173.47 39.83,188.73 L39.83,309.31 C39.83,324.57 52.2,336.94 67.46,336.94 L158.04,336.94 C173.29,336.94 185.66,324.57 185.66,309.31 L185.66,188.73 C185.66,173.47 173.29,161.11 158.04,161.11 Z" id="Path" fill="#1C81C3"></path>
            <path d="M157.98,161.21 L67.51,161.21 C52.28,161.21 39.93,173.56 39.93,188.79 L39.93,309.25 C39.93,324.49 52.28,336.83 67.51,336.83 L157.98,336.83 C173.22,336.83 185.56,324.49 185.56,309.25 L185.56,188.79 C185.56,173.56 173.22,161.21 157.98,161.21 Z" id="Path" fill="#1B80C3"></path>
            <path d="M157.94,161.31 L67.56,161.31 C52.36,161.31 40.03,173.64 40.03,188.84 L40.03,309.2 C40.03,324.4 52.36,336.73 67.56,336.73 L157.94,336.73 C173.14,336.73 185.47,324.4 185.47,309.2 L185.47,188.84 C185.47,173.64 173.14,161.31 157.94,161.31 Z" id="Path" fill="#1A7FC3"></path>
            <path d="M67.61,161.42 L157.88,161.42 C173.05,161.42 185.37,173.73 185.37,188.9 L185.37,309.14 C185.37,324.31 173.05,336.63 157.88,336.63 L67.61,336.63 C52.44,336.63 40.13,324.31 40.13,309.14 L40.13,188.9 C40.13,173.73 52.44,161.42 67.61,161.42 Z" id="Path" fill="#197FC3"></path>
            <path d="M157.83,161.52 L67.67,161.52 C52.51,161.52 40.23,173.81 40.23,188.96 L40.23,309.08 C40.23,324.23 52.51,336.52 67.67,336.52 L157.83,336.52 C172.99,336.52 185.27,324.23 185.27,309.08 L185.27,188.96 C185.27,173.81 172.99,161.52 157.83,161.52 Z" id="Path" fill="#187EC2"></path>
            <path d="M157.78,161.62 L67.72,161.62 C52.59,161.62 40.32,173.89 40.32,189.02 L40.32,309.02 C40.32,324.15 52.59,336.42 67.72,336.42 L157.78,336.42 C172.91,336.42 185.17,324.15 185.17,309.02 L185.17,189.02 C185.17,173.89 172.91,161.62 157.78,161.62 Z" id="Path" fill="#177EC2"></path>
            <path d="M157.72,161.73 L67.77,161.73 C52.67,161.73 40.42,173.97 40.42,189.07 L40.42,308.97 C40.42,324.07 52.67,336.31 67.77,336.31 L157.72,336.31 C172.83,336.31 185.07,324.07 185.07,308.97 L185.07,189.07 C185.07,173.97 172.83,161.73 157.72,161.73 Z" id="Path" fill="#167DC2"></path>
            <path d="M157.67,161.83 L67.82,161.83 C52.74,161.83 40.52,174.06 40.52,189.13 L40.52,308.91 C40.52,323.99 52.74,336.21 67.82,336.21 L157.67,336.21 C172.75,336.21 184.97,323.99 184.97,308.91 L184.97,189.13 C184.97,174.06 172.75,161.83 157.67,161.83 Z" id="Path" fill="#157DC2"></path>
            <path d="M157.62,161.93 L67.88,161.93 C52.82,161.93 40.62,174.14 40.62,189.19 L40.62,308.85 C40.62,323.9 52.82,336.11 67.88,336.11 L157.62,336.11 C172.67,336.11 184.88,323.9 184.88,308.85 L184.88,189.19 C184.88,174.14 172.67,161.93 157.62,161.93 Z" id="Path" fill="#147CC1"></path>
            <path d="M157.57,162.04 L67.93,162.04 C52.9,162.04 40.72,174.22 40.72,189.25 L40.72,308.79 C40.72,323.82 52.9,336 67.93,336 L157.57,336 C172.59,336 184.78,323.82 184.78,308.79 L184.78,189.25 C184.78,174.22 172.59,162.04 157.57,162.04 Z" id="Path" fill="#137CC1"></path>
            <path d="M157.52,162.14 L67.98,162.14 C52.98,162.14 40.82,174.3 40.82,189.31 L40.82,308.73 C40.82,323.74 52.98,335.9 67.98,335.9 L157.52,335.9 C172.52,335.9 184.68,323.74 184.68,308.73 L184.68,189.31 C184.68,174.3 172.52,162.14 157.52,162.14 Z" id="Path" fill="#127BC1"></path>
            <path d="M157.46,162.24 L68.03,162.24 C53.06,162.24 40.91,174.39 40.91,189.36 L40.91,308.68 C40.91,323.65 53.06,335.79 68.03,335.79 L157.46,335.79 C172.44,335.79 184.58,323.65 184.58,308.68 L184.58,189.36 C184.58,174.39 172.44,162.24 157.46,162.24 Z" id="Path" fill="#117AC0"></path>
            <path d="M157.41,162.35 L68.08,162.35 C53.13,162.35 41.01,174.47 41.01,189.42 L41.01,308.62 C41.01,323.57 53.13,335.69 68.08,335.69 L157.41,335.69 C172.36,335.69 184.48,323.57 184.48,308.62 L184.48,189.42 C184.48,174.47 172.36,162.35 157.41,162.35 Z" id="Path" fill="#107AC0"></path>
            <path d="M157.36,162.45 L68.14,162.45 C53.21,162.45 41.11,174.55 41.11,189.48 L41.11,308.56 C41.11,323.49 53.21,335.59 68.14,335.59 L157.36,335.59 C172.29,335.59 184.39,323.49 184.39,308.56 L184.39,189.48 C184.39,174.55 172.29,162.45 157.36,162.45 Z" id="Path" fill="#0F79C0"></path>
            <path d="M68.19,162.56 L157.3,162.56 C172.2,162.56 184.29,174.65 184.29,189.54 L184.29,308.5 C184.29,323.4 172.19,335.48 157.3,335.48 L68.19,335.48 C53.3,335.48 41.21,323.39 41.21,308.5 L41.21,189.54 C41.21,174.64 53.3,162.56 68.19,162.56 Z" id="Path" fill="#0E79C0"></path>
            <path d="M157.25,162.66 L68.24,162.66 C53.37,162.66 41.31,174.72 41.31,189.59 L41.31,308.45 C41.31,323.32 53.37,335.38 68.24,335.38 L157.25,335.38 C172.13,335.38 184.19,323.32 184.19,308.45 L184.19,189.59 C184.19,174.72 172.13,162.66 157.25,162.66 Z" id="Path" fill="#0D78BF"></path>
            <path d="M157.2,162.76 L68.29,162.76 C53.44,162.76 41.41,174.8 41.41,189.65 L41.41,308.39 C41.41,323.24 53.44,335.28 68.29,335.28 L157.2,335.28 C172.05,335.28 184.09,323.24 184.09,308.39 L184.09,189.65 C184.09,174.8 172.05,162.76 157.2,162.76 Z" id="Path" fill="#0C78BF"></path>
            <path d="M157.15,162.87 L68.35,162.87 C53.52,162.87 41.51,174.88 41.51,189.71 L41.51,308.33 C41.51,323.16 53.52,335.17 68.35,335.17 L157.15,335.17 C171.97,335.17 183.99,323.16 183.99,308.33 L183.99,189.71 C183.99,174.88 171.97,162.87 157.15,162.87 Z" id="Path" fill="#0B77BF"></path>
            <path d="M68.4,162.97 L157.1,162.97 C171.88,162.97 183.89,174.98 183.89,189.77 L183.89,308.28 C183.89,323.07 171.89,335.07 157.1,335.07 L68.4,335.07 C53.61,335.07 41.6,323.07 41.6,308.28 L41.6,189.77 C41.6,174.98 53.61,162.97 68.4,162.97 Z" id="Path" fill="#0A77BF"></path>
            <path d="M157.04,163.07 L68.46,163.07 C53.68,163.07 41.7,175.05 41.7,189.82 L41.7,308.22 C41.7,322.99 53.68,334.97 68.46,334.97 L157.04,334.97 C171.82,334.97 183.79,322.99 183.79,308.22 L183.79,189.82 C183.79,175.05 171.82,163.07 157.04,163.07 Z" id="Path" fill="#0976BE"></path>
            <path d="M156.99,163.18 L68.51,163.18 C53.76,163.18 41.8,175.14 41.8,189.88 L41.8,308.16 C41.8,322.91 53.76,334.87 68.51,334.87 L156.99,334.87 C171.74,334.87 183.69,322.91 183.69,308.16 L183.69,189.88 C183.69,175.14 171.74,163.18 156.99,163.18 Z" id="Path" fill="#0875BE"></path>
            <path d="M156.94,163.28 L68.56,163.28 C53.83,163.28 41.9,175.22 41.9,189.94 L41.9,308.1 C41.9,322.82 53.83,334.76 68.56,334.76 L156.94,334.76 C171.66,334.76 183.6,322.82 183.6,308.1 L183.6,189.94 C183.6,175.22 171.66,163.28 156.94,163.28 Z" id="Path" fill="#0775BE"></path>
            <path d="M156.88,163.39 L68.61,163.39 C53.91,163.39 42,175.3 42,190 L42,308.04 C42,322.74 53.91,334.66 68.61,334.66 L156.88,334.66 C171.58,334.66 183.5,322.74 183.5,308.04 L183.5,190 C183.5,175.3 171.58,163.39 156.88,163.39 Z" id="Path" fill="#0674BE"></path>
            <path d="M156.83,163.49 L68.66,163.49 C53.99,163.49 42.09,175.38 42.09,190.06 L42.09,307.98 C42.09,322.66 53.99,334.55 68.66,334.55 L156.83,334.55 C171.5,334.55 183.4,322.66 183.4,307.98 L183.4,190.06 C183.4,175.38 171.5,163.49 156.83,163.49 Z" id="Path" fill="#0574BD"></path>
            <path d="M156.78,163.59 L68.72,163.59 C54.07,163.59 42.19,175.47 42.19,190.11 L42.19,307.93 C42.19,322.58 54.07,334.45 68.72,334.45 L156.78,334.45 C171.43,334.45 183.3,322.58 183.3,307.93 L183.3,190.11 C183.3,175.47 171.43,163.59 156.78,163.59 Z" id="Path" fill="#0473BD"></path>
            <path d="M156.73,163.7 L68.77,163.7 C54.14,163.7 42.29,175.55 42.29,190.17 L42.29,307.87 C42.29,322.49 54.14,334.35 68.77,334.35 L156.73,334.35 C171.35,334.35 183.2,322.49 183.2,307.87 L183.2,190.17 C183.2,175.55 171.35,163.7 156.73,163.7 Z" id="Path" fill="#0373BD"></path>
            <path d="M156.68,163.8 L68.82,163.8 C54.22,163.8 42.39,175.63 42.39,190.23 L42.39,307.81 C42.39,322.41 54.22,334.24 68.82,334.24 L156.68,334.24 C171.27,334.24 183.11,322.41 183.11,307.81 L183.11,190.23 C183.11,175.63 171.27,163.8 156.68,163.8 Z" id="Path" fill="#0272BD"></path>
            <path d="M156.62,163.9 L68.87,163.9 C54.3,163.9 42.49,175.72 42.49,190.29 L42.49,307.76 C42.49,322.33 54.3,334.14 68.87,334.14 L156.62,334.14 C171.19,334.14 183.01,322.33 183.01,307.76 L183.01,190.29 C183.01,175.72 171.19,163.9 156.62,163.9 Z" id="Path" fill="#0172BC"></path>
            <path d="M156.57,164.01 L68.93,164.01 C54.38,164.01 42.59,175.8 42.59,190.34 L42.59,307.7 C42.59,322.24 54.38,334.04 68.93,334.04 L156.57,334.04 C171.12,334.04 182.91,322.24 182.91,307.7 L182.91,190.34 C182.91,175.8 171.12,164.01 156.57,164.01 Z" id="Path" fill="#0071BC"></path>
            <path d="M173.88,148.77 L51.54,148.77 C39.63,148.77 29.97,158.42 29.97,170.33 L29.97,327.71 C29.97,339.62 39.63,349.28 51.54,349.28 L173.88,349.28 C185.79,349.28 195.44,339.62 195.44,327.71 L195.44,170.33 C195.44,158.42 185.79,148.77 173.88,148.77 Z" id="Path" fill="#FFFFFF"></path>
            <path d="M161.27,222.32 C161.27,237.03 154.63,250.2 144.17,259.04 C135.69,266.2 124.71,270.52 112.71,270.52 C100.71,270.52 89.79,266.23 81.33,259.11 C70.82,250.27 64.15,237.07 64.15,222.32 C64.15,195.71 85.89,174.13 112.71,174.13 C139.53,174.13 161.27,195.71 161.27,222.32 Z" id="Path" fill="#1294DD"></path>
            <path d="M112.65,220.79 C120.89,220.79 127.57,214.16 127.57,205.99 C127.57,197.81 120.89,191.18 112.65,191.18 C104.41,191.18 97.73,197.81 97.73,205.99 C97.73,214.16 104.41,220.79 112.65,220.79 Z" id="Path" fill="#FFFFFF"></path>
            <path d="M144.17,259.04 C135.69,266.2 124.71,270.52 112.71,270.52 C100.71,270.52 89.79,266.23 81.33,259.11 C83.62,243.92 96.82,232.29 112.75,232.29 C128.69,232.29 141.85,243.89 144.17,259.04 L144.17,259.04 Z" id="Path" fill="#94DEFF"></path>
            <path d="M148.84,301.63 L76.58,301.63 C73.75,301.63 71.46,299.34 71.46,296.51 C71.46,293.68 73.75,291.39 76.58,291.39 L148.84,291.39 C151.66,291.39 153.96,293.68 153.96,296.51 C153.96,299.34 151.66,301.63 148.84,301.63 Z" id="Path" fill="#1294DD"></path>
            <path d="M170.54,322.74 L54.88,322.74 C52.05,322.74 49.76,320.44 49.76,317.62 C49.76,314.79 52.05,312.5 54.88,312.5 L170.54,312.5 C173.37,312.5 175.66,314.79 175.66,317.62 C175.66,320.44 173.37,322.74 170.54,322.74 Z" id="Path" fill="#A6DFFF"></path>
            <path d="M256.98,162.11 C283.06,162.11 304.2,140.97 304.2,114.88 C304.2,88.8 283.06,67.66 256.98,67.66 C230.9,67.66 209.75,88.8 209.75,114.88 C209.75,140.97 230.9,162.11 256.98,162.11 Z" id="Path" fill="#17DD32"></path>
            <path d="M249.36,133.24 C248.05,133.24 246.74,132.75 245.74,131.74 L234.5,120.5 C232.5,118.5 232.5,115.26 234.5,113.26 C236.5,111.26 239.74,111.26 241.74,113.26 L249.36,120.89 L272.22,98.03 C274.22,96.03 277.46,96.03 279.46,98.03 C281.46,100.03 281.46,103.27 279.46,105.27 L252.98,131.74 C251.98,132.75 250.67,133.24 249.36,133.24 Z" id="Path" fill="#FFFFFF"></path>
            <path d="M174.63,428.1 C234.1,428.1 282.31,424.5 282.31,420.06 C282.31,415.62 234.1,412.02 174.63,412.02 C115.17,412.02 66.96,415.62 66.96,420.06 C66.96,424.5 115.17,428.1 174.63,428.1 Z" id="Path" fill-opacity="0.30315778" fill="#000000"></path>
        </g>
    </g>
</svg>