<?xml version="1.0" encoding="UTF-8"?>
<svg width="396px" height="394px" viewBox="0 0 396 394" version="1.1" xmlns="http://www.w3.org/2000/svg" xmlns:xlink="http://www.w3.org/1999/xlink">
    <title>img_splash_ekyc</title>
    <g id="Page-1" stroke="none" stroke-width="1" fill="none" fill-rule="evenodd">
        <g id="img_splash_ekyc" transform="translate(3.000000, 3.000000)" fill-rule="nonzero">
            <path d="M100.011502,22.471962 C191.841502,-26.638038 305.791502,7.42196196 354.531502,98.551962" id="Path" stroke="#1294DD" stroke-width="4.5312" fill-opacity="0" fill="#000000"></path>
            <path d="M276.531502,352.481962 C235.561502,374.391962 190.211502,379.751962 148.191502,370.871962 C96.0215023,359.851962 49.0115023,326.891962 22.0115023,276.411962 C-2.35849768,230.841962 -5.81849768,179.641962 8.30150232,133.691962" id="Path" stroke="#1294DD" stroke-width="4.5312" fill-opacity="0" fill="#000000"></path>
            <path d="M322.601502,187.481962 C322.601502,224.811962 307.141502,258.571962 282.221502,282.761962 C279.991502,284.941962 277.671502,287.031962 275.291502,289.051962 C251.851502,308.851962 221.461502,320.801962 188.271502,320.801962 C155.081502,320.801962 124.881502,308.921962 101.471502,289.231962 C99.0815023,287.221962 96.7615023,285.131962 94.5215023,282.961962 C69.4915023,258.751962 53.9315023,224.911962 53.9315023,187.481962 C53.9315023,113.851962 114.081502,54.161962 188.271502,54.161962 C262.471502,54.161962 322.601502,113.851962 322.601502,187.481962 Z" id="Path" fill="#1294DD"></path>
            <path d="M188.071502,182.631962 C214.151502,182.631962 235.291502,161.651962 235.291502,135.771962 C235.291502,109.881962 214.151502,88.901962 188.071502,88.901962 C161.991502,88.901962 140.851502,109.881962 140.851502,135.771962 C140.851502,161.651962 161.991502,182.631962 188.071502,182.631962 Z" id="Path" fill="#FFFFFF"></path>
            <path d="M282.221502,282.761962 C279.991502,284.941962 277.681502,287.031962 275.291502,289.051962 C251.851502,308.851962 221.471502,320.801962 188.271502,320.801962 C155.081502,320.801962 124.881502,308.921962 101.471502,289.231962 C99.0815023,287.221962 96.7615023,285.131962 94.5315023,282.961962 C109.041502,245.551962 145.601502,219.001962 188.411502,219.001962 C231.221502,219.001962 267.661502,245.461962 282.231502,282.761962 L282.221502,282.761962 Z" id="Path" fill="#FFFFFF"></path>
            <path d="M307.061502,390.031962 C354.291502,390.031962 392.581502,351.741962 392.581502,304.521962 C392.581502,257.291962 354.291502,219.001962 307.061502,219.001962 C259.841502,219.001962 221.551502,257.291962 221.551502,304.521962 C221.551502,351.741962 259.841502,390.031962 307.061502,390.031962 Z" id="Path" fill="#17DD32"></path>
            <polyline id="Path" stroke="#FFFFFF" stroke-width="28.247" fill-opacity="0" fill="#000000" points="272.921502 308.131962 293.271502 328.491962 341.221502 280.551962"></polyline>
            <path d="M326.991502,112.851962 C339.131502,135.031962 346.031502,160.461962 346.031502,187.481962" id="Path" stroke="#94DEFF" stroke-width="4.48205" fill-opacity="0" fill="#000000"></path>
            <path d="M30.5115023,187.481962 C30.5115023,101.011962 101.141502,30.911962 188.271502,30.911962 C225.711502,30.911962 260.101502,43.851962 287.151502,65.471962" id="Path" stroke="#94DEFF" stroke-width="4.48205" fill-opacity="0" fill="#000000"></path>
            <path d="M188.271502,344.041962 C149.401502,344.041962 113.831502,330.091962 86.3315023,306.961962 C61.5615023,286.131962 43.3515023,257.841962 35.2215023,225.581962" id="Path" stroke="#94DEFF" stroke-width="4.48205" fill-opacity="0" fill="#000000"></path>
        </g>
    </g>
</svg>