<?xml version="1.0" encoding="UTF-8"?>
<svg width="438px" height="306px" viewBox="0 0 438 306" version="1.1" xmlns="http://www.w3.org/2000/svg" xmlns:xlink="http://www.w3.org/1999/xlink">
    <title>Group 3</title>
    <g id="Page-1" stroke="none" stroke-width="1" fill="none" fill-rule="evenodd">
        <g id="Group-3" fill="#B82B30" fill-rule="nonzero">
            <g id="ic_corner_righttop" transform="translate(410.000000, 0.000000)">
                <path d="M0,7.3828 L0,0.8203 C0,0.3673 0.3673,0 0.8203,0 L20.617,0 C24.688,0 28,3.312 28,7.383 L28,27.1797 C28,27.6327 27.6327,28 27.1797,28 L20.6172,28 C20.1641,28 19.7969,27.6327 19.7969,27.1797 L19.7969,8.2031 L0.8203,8.2031 C0.3673,8.2031 0,7.8359 0,7.3828 Z" id="Path"></path>
            </g>
            <g id="ic_corner_lefttop">
                <path d="M7.3828,28 L0.8203,28 C0.3673,28 0,27.6327 0,27.1797 L0,7.383 C0,3.312 3.312,0 7.383,0 L27.1797,0 C27.6327,0 28,0.3673 28,0.8203 L28,7.3828 C28,7.8359 27.6327,8.2031 27.1797,8.2031 L8.2031,8.2031 L8.2031,27.1797 C8.2031,27.6327 7.8359,28 7.3828,28 Z" id="Path"></path>
            </g>
            <g id="ic_corner_leftbottom" transform="translate(0.000000, 278.000000)">
                <path d="M28,20.6172 L28,27.1797 C28,27.6327 27.6327,28 27.1797,28 L7.383,28 C3.312,28 0,24.688 0,20.617 L0,0.8203 C0,0.3673 0.3673,0 0.8203,0 L7.3828,0 C7.8359,0 8.2031,0.3673 8.2031,0.8203 L8.2031,19.7969 L27.1797,19.7969 C27.6327,19.7969 28,20.1641 28,20.6172 Z" id="Path"></path>
            </g>
            <g id="ic_corner_rightbottom" transform="translate(410.000000, 278.000000)">
                <path d="M20.6172,0 L27.1797,0 C27.6327,0 28,0.3673 28,0.8203 L28,20.617 C28,24.688 24.688,28 20.617,28 L0.8203,28 C0.3673,28 0,27.6327 0,27.1797 L0,20.6172 C0,20.1641 0.3673,19.7969 0.8203,19.7969 L19.7969,19.7969 L19.7969,0.8203 C19.7969,0.3673 20.1641,0 20.6172,0 Z" id="Path"></path>
            </g>
        </g>
    </g>
</svg>