<?xml version="1.0" encoding="UTF-8"?>
<svg width="404px" height="330px" viewBox="0 0 404 330" version="1.1" xmlns="http://www.w3.org/2000/svg" xmlns:xlink="http://www.w3.org/1999/xlink">
    <title>img_splash_contract</title>
    <g id="Page-1" stroke="none" stroke-width="1" fill="none" fill-rule="evenodd">
        <g id="img_splash_contract" fill-rule="nonzero">
            <path d="M265.16,286.22 C341.42,286.22 403.23,224.4 403.23,148.15 C403.23,71.9 341.42,10.08 265.16,10.08 C188.91,10.08 127.1,71.9 127.1,148.15 C127.1,224.4 188.91,286.22 265.16,286.22 Z" id="Path" fill="#D2F1FF"></path>
            <path d="M254.53,50.79 L105.29,50.79 C83.58,50.79 65.98,68.39 65.98,90.1 L65.98,263.02 C65.98,284.74 83.58,302.34 105.29,302.34 L254.53,302.34 C276.24,302.34 293.85,284.74 293.85,263.02 L293.85,90.1 C293.85,68.39 276.24,50.79 254.53,50.79 Z" id="Path" fill="#FFFFFF"></path>
            <path d="M254.51,50.86 L105.32,50.86 C83.63,50.86 66.05,68.45 66.05,90.13 L66.05,262.99 C66.05,284.68 83.63,302.26 105.32,302.26 L254.51,302.26 C276.19,302.26 293.78,284.68 293.78,262.99 L293.78,90.13 C293.78,68.45 276.19,50.86 254.51,50.86 Z" id="Path" fill="#FEFEFE"></path>
            <path d="M254.48,50.94 L105.34,50.94 C83.68,50.94 66.12,68.5 66.12,90.16 L66.12,262.96 C66.12,284.62 83.68,302.18 105.34,302.18 L254.48,302.18 C276.15,302.18 293.71,284.62 293.71,262.96 L293.71,90.16 C293.71,68.5 276.15,50.94 254.48,50.94 Z" id="Path" fill="#FDFDFD"></path>
            <path d="M254.46,51.02 L105.36,51.02 C83.73,51.02 66.19,68.56 66.19,90.19 L66.19,262.93 C66.19,284.56 83.73,302.1 105.36,302.1 L254.46,302.1 C276.1,302.1 293.63,284.56 293.63,262.93 L293.63,90.19 C293.63,68.56 276.1,51.02 254.46,51.02 Z" id="Path" fill="#FCFCFC"></path>
            <path d="M254.43,51.1 L105.39,51.1 C83.78,51.1 66.26,68.62 66.26,90.23 L66.26,262.9 C66.26,284.5 83.78,302.02 105.39,302.02 L254.43,302.02 C276.05,302.02 293.56,284.5 293.56,262.9 L293.56,90.23 C293.56,68.62 276.05,51.1 254.43,51.1 Z" id="Path" fill="#FBFBFB"></path>
            <path d="M254.41,51.18 L105.41,51.18 C83.83,51.18 66.33,68.68 66.33,90.26 L66.33,262.87 C66.33,284.45 83.83,301.95 105.41,301.95 L254.41,301.95 C275.99,301.95 293.49,284.45 293.49,262.87 L293.49,90.26 C293.49,68.68 275.99,51.18 254.41,51.18 Z" id="Path" fill="#FAFAFA"></path>
            <path d="M254.39,51.26 L105.44,51.26 C83.88,51.26 66.4,68.73 66.4,90.29 L66.4,262.84 C66.4,284.39 83.88,301.87 105.44,301.87 L254.39,301.87 C275.94,301.87 293.42,284.39 293.42,262.84 L293.42,90.29 C293.42,68.73 275.94,51.26 254.39,51.26 Z" id="Path" fill="#F9F9F9"></path>
            <path d="M254.36,51.34 L105.46,51.34 C83.93,51.34 66.48,68.79 66.48,90.32 L66.48,262.8 C66.48,284.33 83.93,301.79 105.46,301.79 L254.36,301.79 C275.89,301.79 293.35,284.33 293.35,262.8 L293.35,90.32 C293.35,68.79 275.89,51.34 254.36,51.34 Z" id="Path" fill="#F8F8F8"></path>
            <path d="M254.34,51.41 L105.48,51.41 C83.98,51.41 66.55,68.85 66.55,90.35 L66.55,262.77 C66.55,284.28 83.98,301.71 105.48,301.71 L254.34,301.71 C275.84,301.71 293.28,284.28 293.28,262.77 L293.28,90.35 C293.28,68.85 275.84,51.41 254.34,51.41 Z" id="Path" fill="#F7F7F7"></path>
            <path d="M254.31,51.49 L105.51,51.49 C84.03,51.49 66.62,68.91 66.62,90.39 L66.62,262.74 C66.62,284.22 84.03,301.63 105.51,301.63 L254.31,301.63 C275.79,301.63 293.21,284.22 293.21,262.74 L293.21,90.39 C293.21,68.91 275.79,51.49 254.31,51.49 Z" id="Path" fill="#F6F6F6"></path>
            <path d="M254.29,51.57 L105.53,51.57 C84.08,51.57 66.69,68.96 66.69,90.41 L66.69,262.71 C66.69,284.16 84.08,301.55 105.53,301.55 L254.29,301.55 C275.74,301.55 293.13,284.16 293.13,262.71 L293.13,90.41 C293.13,68.96 275.74,51.57 254.29,51.57 Z" id="Path" fill="#F5F5F5"></path>
            <path d="M105.56,51.65 L254.27,51.65 C275.68,51.65 293.06,69.04 293.06,90.45 L293.06,262.68 C293.06,284.09 275.68,301.47 254.27,301.47 L105.56,301.47 C84.14,301.47 66.76,284.09 66.76,262.68 L66.76,90.45 C66.76,69.04 84.14,51.65 105.56,51.65 Z" id="Path" fill="#F4F4F4"></path>
            <path d="M254.24,51.73 L105.58,51.73 C84.18,51.73 66.83,69.08 66.83,90.48 L66.83,262.65 C66.83,284.05 84.18,301.4 105.58,301.4 L254.24,301.4 C275.64,301.4 292.99,284.05 292.99,262.65 L292.99,90.48 C292.99,69.08 275.64,51.73 254.24,51.73 Z" id="Path" fill="#F3F3F3"></path>
            <path d="M254.22,51.81 L105.61,51.81 C84.23,51.81 66.9,69.13 66.9,90.51 L66.9,262.62 C66.9,283.99 84.23,301.32 105.61,301.32 L254.22,301.32 C275.59,301.32 292.92,283.99 292.92,262.62 L292.92,90.51 C292.92,69.13 275.59,51.81 254.22,51.81 Z" id="Path" fill="#F2F2F2"></path>
            <path d="M105.63,51.89 L254.19,51.89 C275.53,51.89 292.85,69.21 292.85,90.54 L292.85,262.58 C292.85,283.92 275.53,301.24 254.19,301.24 L105.63,301.24 C84.29,301.24 66.97,283.92 66.97,262.58 L66.97,90.54 C66.97,69.21 84.29,51.89 105.63,51.89 Z" id="Path" fill="#F1F1F1"></path>
            <path d="M254.17,51.96 L105.65,51.96 C84.33,51.96 67.04,69.25 67.04,90.57 L67.04,262.55 C67.04,283.88 84.33,301.16 105.65,301.16 L254.17,301.16 C275.49,301.16 292.78,283.88 292.78,262.55 L292.78,90.57 C292.78,69.25 275.49,51.96 254.17,51.96 Z" id="Path" fill="#F0F0F0"></path>
            <path d="M254.15,52.04 L105.68,52.04 C84.38,52.04 67.12,69.31 67.12,90.6 L67.12,262.52 C67.12,283.82 84.38,301.08 105.68,301.08 L254.15,301.08 C275.44,301.08 292.71,283.82 292.71,262.52 L292.71,90.6 C292.71,69.31 275.44,52.04 254.15,52.04 Z" id="Path" fill="#EFEFEF"></path>
            <path d="M105.7,52.12 L254.12,52.12 C275.38,52.12 292.64,69.38 292.64,90.63 L292.64,262.49 C292.64,283.75 275.38,301 254.12,301 L105.7,301 C84.44,301 67.19,283.75 67.19,262.49 L67.19,90.63 C67.19,69.38 84.44,52.12 105.7,52.12 Z" id="Path" fill="#EEEEEE"></path>
            <path d="M254.1,52.2 L105.72,52.2 C84.48,52.2 67.26,69.42 67.26,90.67 L67.26,262.46 C67.26,283.7 84.48,300.93 105.72,300.93 L254.1,300.93 C275.34,300.93 292.57,283.7 292.57,262.46 L292.57,90.67 C292.57,69.42 275.34,52.2 254.1,52.2 Z" id="Path" fill="#EDEDED"></path>
            <path d="M254.08,52.28 L105.75,52.28 C84.53,52.28 67.33,69.48 67.33,90.7 L67.33,262.43 C67.33,283.65 84.53,300.85 105.75,300.85 L254.08,300.85 C275.3,300.85 292.5,283.65 292.5,262.43 L292.5,90.7 C292.5,69.48 275.3,52.28 254.08,52.28 Z" id="Path" fill="#ECECEC"></path>
            <path d="M105.77,52.36 L254.05,52.36 C275.23,52.36 292.42,69.55 292.42,90.73 L292.42,262.4 C292.42,283.57 275.23,300.77 254.05,300.77 L105.77,300.77 C84.6,300.77 67.4,283.57 67.4,262.4 L67.4,90.73 C67.4,69.55 84.6,52.36 105.77,52.36 Z" id="Path" fill="#EBEBEB"></path>
            <path d="M254.03,52.44 L105.8,52.44 C84.63,52.44 67.47,69.6 67.47,90.76 L67.47,262.36 C67.47,283.53 84.63,300.69 105.8,300.69 L254.03,300.69 C275.19,300.69 292.35,283.53 292.35,262.36 L292.35,90.76 C292.35,69.6 275.19,52.44 254.03,52.44 Z" id="Path" fill="#EAEAEA"></path>
            <path d="M254,52.51 L105.82,52.51 C84.68,52.51 67.54,69.65 67.54,90.79 L67.54,262.33 C67.54,283.47 84.68,300.61 105.82,300.61 L254,300.61 C275.14,300.61 292.28,283.47 292.28,262.33 L292.28,90.79 C292.28,69.65 275.14,52.51 254,52.51 Z" id="Path" fill="#E9E9E9"></path>
            <path d="M253.98,52.59 L105.85,52.59 C84.73,52.59 67.61,69.71 67.61,90.82 L67.61,262.3 C67.61,283.41 84.73,300.53 105.85,300.53 L253.98,300.53 C275.09,300.53 292.21,283.41 292.21,262.3 L292.21,90.82 C292.21,69.71 275.09,52.59 253.98,52.59 Z" id="Path" fill="#E8E8E8"></path>
            <path d="M253.96,52.67 L105.87,52.67 C84.78,52.67 67.69,69.77 67.69,90.85 L67.69,262.27 C67.69,283.36 84.78,300.45 105.87,300.45 L253.96,300.45 C275.04,300.45 292.14,283.36 292.14,262.27 L292.14,90.85 C292.14,69.77 275.04,52.67 253.96,52.67 Z" id="Path" fill="#E7E7E7"></path>
            <path d="M253.93,52.75 L105.89,52.75 C84.83,52.75 67.76,69.82 67.76,90.89 L67.76,262.24 C67.76,283.3 84.83,300.38 105.89,300.38 L253.93,300.38 C274.99,300.38 292.07,283.3 292.07,262.24 L292.07,90.89 C292.07,69.82 274.99,52.75 253.93,52.75 Z" id="Path" fill="#E6E6E6"></path>
            <path d="M253.91,52.83 L105.91,52.83 C84.88,52.83 67.83,69.88 67.83,90.91 L67.83,262.21 C67.83,283.24 84.88,300.29 105.91,300.29 L253.91,300.29 C274.94,300.29 292,283.24 292,262.21 L292,90.91 C292,69.88 274.94,52.83 253.91,52.83 Z" id="Path" fill="#E5E5E5"></path>
            <path d="M253.88,52.91 L105.94,52.91 C84.93,52.91 67.9,69.94 67.9,90.95 L67.9,262.17 C67.9,283.18 84.93,300.22 105.94,300.22 L253.88,300.22 C274.89,300.22 291.92,283.18 291.92,262.17 L291.92,90.95 C291.92,69.94 274.89,52.91 253.88,52.91 Z" id="Path" fill="#E4E4E4"></path>
            <path d="M253.86,52.99 L105.97,52.99 C84.98,52.99 67.97,70 67.97,90.98 L67.97,262.14 C67.97,283.13 84.98,300.14 105.97,300.14 L253.86,300.14 C274.84,300.14 291.86,283.13 291.86,262.14 L291.86,90.98 C291.86,70 274.84,52.99 253.86,52.99 Z" id="Path" fill="#E3E3E3"></path>
            <path d="M253.84,53.06 L105.99,53.06 C85.03,53.06 68.04,70.05 68.04,91.01 L68.04,262.11 C68.04,283.07 85.03,300.06 105.99,300.06 L253.84,300.06 C274.79,300.06 291.78,283.07 291.78,262.11 L291.78,91.01 C291.78,70.05 274.79,53.06 253.84,53.06 Z" id="Path" fill="#E2E2E2"></path>
            <path d="M253.81,53.14 L106.01,53.14 C85.08,53.14 68.11,70.11 68.11,91.04 L68.11,262.08 C68.11,283.01 85.08,299.98 106.01,299.98 L253.81,299.98 C274.74,299.98 291.71,283.01 291.71,262.08 L291.71,91.04 C291.71,70.11 274.74,53.14 253.81,53.14 Z" id="Path" fill="#E1E1E1"></path>
            <path d="M253.79,53.22 L106.03,53.22 C85.13,53.22 68.18,70.17 68.18,91.07 L68.18,262.05 C68.18,282.96 85.13,299.9 106.03,299.9 L253.79,299.9 C274.69,299.9 291.64,282.96 291.64,262.05 L291.64,91.07 C291.64,70.17 274.69,53.22 253.79,53.22 Z" id="Path" fill="#E0E0E0"></path>
            <path d="M253.76,53.3 L106.06,53.3 C85.18,53.3 68.25,70.23 68.25,91.11 L68.25,262.02 C68.25,282.9 85.18,299.82 106.06,299.82 L253.76,299.82 C274.64,299.82 291.57,282.9 291.57,262.02 L291.57,91.11 C291.57,70.23 274.64,53.3 253.76,53.3 Z" id="Path" fill="#DFDFDF"></path>
            <path d="M253.74,53.38 L106.08,53.38 C85.23,53.38 68.33,70.28 68.33,91.14 L68.33,261.99 C68.33,282.84 85.23,299.75 106.08,299.75 L253.74,299.75 C274.59,299.75 291.5,282.84 291.5,261.99 L291.5,91.14 C291.5,70.28 274.59,53.38 253.74,53.38 Z" id="Path" fill="#DEDEDE"></path>
            <path d="M253.72,53.46 L106.11,53.46 C85.28,53.46 68.4,70.34 68.4,91.17 L68.4,261.96 C68.4,282.78 85.28,299.67 106.11,299.67 L253.72,299.67 C274.54,299.67 291.43,282.78 291.43,261.96 L291.43,91.17 C291.43,70.34 274.54,53.46 253.72,53.46 Z" id="Path" fill="#DDDDDD"></path>
            <path d="M253.69,53.54 L106.13,53.54 C85.33,53.54 68.47,70.4 68.47,91.2 L68.47,261.92 C68.47,282.72 85.33,299.59 106.13,299.59 L253.69,299.59 C274.49,299.59 291.36,282.72 291.36,261.92 L291.36,91.2 C291.36,70.4 274.49,53.54 253.69,53.54 Z" id="Path" fill="#DCDCDC"></path>
            <path d="M253.67,53.61 L106.16,53.61 C85.38,53.61 68.54,70.46 68.54,91.23 L68.54,261.89 C68.54,282.67 85.38,299.51 106.16,299.51 L253.67,299.51 C274.44,299.51 291.28,282.67 291.28,261.89 L291.28,91.23 C291.28,70.46 274.44,53.61 253.67,53.61 Z" id="Path" fill="#DBDBDB"></path>
            <path d="M253.64,53.69 L106.18,53.69 C85.43,53.69 68.61,70.51 68.61,91.26 L68.61,261.86 C68.61,282.61 85.43,299.43 106.18,299.43 L253.64,299.43 C274.39,299.43 291.21,282.61 291.21,261.86 L291.21,91.26 C291.21,70.51 274.39,53.69 253.64,53.69 Z" id="Path" fill="#DADADA"></path>
            <path d="M253.62,53.77 L106.2,53.77 C85.48,53.77 68.68,70.57 68.68,91.29 L68.68,261.83 C68.68,282.55 85.48,299.35 106.2,299.35 L253.62,299.35 C274.34,299.35 291.14,282.55 291.14,261.83 L291.14,91.29 C291.14,70.57 274.34,53.77 253.62,53.77 Z" id="Path" fill="#D9D9D9"></path>
            <path d="M106.23,53.85 L253.6,53.85 C274.28,53.85 291.07,70.64 291.07,91.32 L291.07,261.8 C291.07,282.48 274.28,299.27 253.6,299.27 L106.23,299.27 C85.55,299.27 68.75,282.48 68.75,261.8 L68.75,91.32 C68.75,70.64 85.54,53.85 106.23,53.85 Z" id="Path" fill="#D8D8D8"></path>
            <path d="M253.57,53.93 L106.25,53.93 C85.58,53.93 68.83,70.68 68.83,91.36 L68.83,261.77 C68.83,282.44 85.58,299.19 106.25,299.19 L253.57,299.19 C274.24,299.19 291,282.44 291,261.77 L291,91.36 C291,70.68 274.24,53.93 253.57,53.93 Z" id="Path" fill="#D7D7D7"></path>
            <path d="M253.55,54.01 L106.27,54.01 C85.63,54.01 68.89,70.74 68.89,91.39 L68.89,261.74 C68.89,282.38 85.63,299.12 106.27,299.12 L253.55,299.12 C274.19,299.12 290.93,282.38 290.93,261.74 L290.93,91.39 C290.93,70.74 274.19,54.01 253.55,54.01 Z" id="Path" fill="#D6D6D6"></path>
            <path d="M253.52,54.09 L106.3,54.09 C85.68,54.09 68.97,70.8 68.97,91.42 L68.97,261.71 C68.97,282.32 85.68,299.04 106.3,299.04 L253.52,299.04 C274.14,299.04 290.86,282.32 290.86,261.71 L290.86,91.42 C290.86,70.8 274.14,54.09 253.52,54.09 Z" id="Path" fill="#D5D5D5"></path>
            <path d="M253.5,54.16 L106.32,54.16 C85.73,54.16 69.04,70.86 69.04,91.45 L69.04,261.67 C69.04,282.26 85.73,298.96 106.32,298.96 L253.5,298.96 C274.09,298.96 290.78,282.26 290.78,261.67 L290.78,91.45 C290.78,70.86 274.09,54.16 253.5,54.16 Z" id="Path" fill="#D4D4D4"></path>
            <path d="M253.47,54.24 L106.35,54.24 C85.78,54.24 69.11,70.92 69.11,91.48 L69.11,261.64 C69.11,282.21 85.78,298.88 106.35,298.88 L253.47,298.88 C274.04,298.88 290.72,282.21 290.72,261.64 L290.72,91.48 C290.72,70.92 274.04,54.24 253.47,54.24 Z" id="Path" fill="#D3D3D3"></path>
            <path d="M253.45,54.32 L106.37,54.32 C85.83,54.32 69.18,70.97 69.18,91.51 L69.18,261.61 C69.18,282.15 85.83,298.8 106.37,298.8 L253.45,298.8 C273.99,298.8 290.64,282.15 290.64,261.61 L290.64,91.51 C290.64,70.97 273.99,54.32 253.45,54.32 Z" id="Path" fill="#D2D2D2"></path>
            <path d="M253.43,54.4 L106.4,54.4 C85.88,54.4 69.25,71.03 69.25,91.54 L69.25,261.58 C69.25,282.09 85.88,298.72 106.4,298.72 L253.43,298.72 C273.94,298.72 290.57,282.09 290.57,261.58 L290.57,91.54 C290.57,71.03 273.94,54.4 253.43,54.4 Z" id="Path" fill="#D1D1D1"></path>
            <path d="M253.4,54.48 L106.42,54.48 C85.93,54.48 69.32,71.09 69.32,91.58 L69.32,261.55 C69.32,282.04 85.93,298.65 106.42,298.65 L253.4,298.65 C273.89,298.65 290.5,282.04 290.5,261.55 L290.5,91.58 C290.5,71.09 273.89,54.48 253.4,54.48 Z" id="Path" fill="#D0D0D0"></path>
            <path d="M253.38,54.56 L106.44,54.56 C85.98,54.56 69.39,71.15 69.39,91.61 L69.39,261.52 C69.39,281.98 85.98,298.57 106.44,298.57 L253.38,298.57 C273.84,298.57 290.43,281.98 290.43,261.52 L290.43,91.61 C290.43,71.15 273.84,54.56 253.38,54.56 Z" id="Path" fill="#CFCFCF"></path>
            <path d="M253.36,54.63 L106.47,54.63 C86.03,54.63 69.47,71.2 69.47,91.64 L69.47,261.48 C69.47,281.92 86.03,298.49 106.47,298.49 L253.36,298.49 C273.79,298.49 290.36,281.92 290.36,261.48 L290.36,91.64 C290.36,71.2 273.79,54.63 253.36,54.63 Z" id="Path" fill="#CECECE"></path>
            <path d="M253.33,54.71 L106.49,54.71 C86.08,54.71 69.54,71.26 69.54,91.67 L69.54,261.45 C69.54,281.86 86.08,298.41 106.49,298.41 L253.33,298.41 C273.74,298.41 290.29,281.86 290.29,261.45 L290.29,91.67 C290.29,71.26 273.74,54.71 253.33,54.71 Z" id="Path" fill="#CDCDCD"></path>
            <path d="M253.31,54.79 L106.52,54.79 C86.13,54.79 69.61,71.32 69.61,91.7 L69.61,261.42 C69.61,281.81 86.13,298.33 106.52,298.33 L253.31,298.33 C273.69,298.33 290.22,281.81 290.22,261.42 L290.22,91.7 C290.22,71.32 273.69,54.79 253.31,54.79 Z" id="Path" fill="#CCCCCC"></path>
            <path d="M106.54,54.87 L253.28,54.87 C273.63,54.87 290.15,71.39 290.15,91.73 L290.15,261.39 C290.15,281.73 273.63,298.25 253.28,298.25 L106.54,298.25 C86.19,298.25 69.68,281.73 69.68,261.39 L69.68,91.73 C69.68,71.39 86.19,54.87 106.54,54.87 L106.54,54.87 Z" id="Path" fill="#CBCBCB"></path>
            <path d="M253.26,54.95 L106.57,54.95 C86.23,54.95 69.75,71.43 69.75,91.76 L69.75,261.36 C69.75,281.69 86.23,298.17 106.57,298.17 L253.26,298.17 C273.59,298.17 290.07,281.69 290.07,261.36 L290.07,91.76 C290.07,71.43 273.59,54.95 253.26,54.95 Z" id="Path" fill="#CACACA"></path>
            <path d="M253.24,55.03 L106.59,55.03 C86.28,55.03 69.82,71.49 69.82,91.8 L69.82,261.33 C69.82,281.63 86.28,298.1 106.59,298.1 L253.24,298.1 C273.54,298.1 290,281.63 290,261.33 L290,91.8 C290,71.49 273.54,55.03 253.24,55.03 Z" id="Path" fill="#C9C9C9"></path>
            <path d="M106.61,55.11 L253.21,55.11 C273.48,55.11 289.93,71.56 289.93,91.83 L289.93,261.3 C289.93,281.57 273.48,298.02 253.21,298.02 L106.61,298.02 C86.35,298.02 69.89,281.57 69.89,261.3 L69.89,91.83 C69.89,71.56 86.35,55.11 106.61,55.11 Z" id="Path" fill="#C8C8C8"></path>
            <path d="M253.19,55.18 L106.64,55.18 C86.38,55.18 69.96,71.6 69.96,91.86 L69.96,261.26 C69.96,281.52 86.38,297.94 106.64,297.94 L253.19,297.94 C273.44,297.94 289.86,281.52 289.86,261.26 L289.86,91.86 C289.86,71.6 273.44,55.18 253.19,55.18 Z" id="Path" fill="#C7C7C7"></path>
            <path d="M253.16,55.26 L106.66,55.26 C86.43,55.26 70.03,71.66 70.03,91.89 L70.03,261.24 C70.03,281.46 86.43,297.86 106.66,297.86 L253.16,297.86 C273.39,297.86 289.79,281.46 289.79,261.24 L289.79,91.89 C289.79,71.66 273.39,55.26 253.16,55.26 Z" id="Path" fill="#C6C6C6"></path>
            <path d="M106.69,55.34 L253.14,55.34 C273.33,55.34 289.72,71.74 289.72,91.92 L289.72,261.2 C289.72,281.39 273.33,297.78 253.14,297.78 L106.69,297.78 C86.5,297.78 70.11,281.39 70.11,261.2 L70.11,91.92 C70.11,71.74 86.5,55.34 106.69,55.34 Z" id="Path" fill="#C5C5C5"></path>
            <path d="M253.12,55.42 L106.71,55.42 C86.53,55.42 70.18,71.78 70.18,91.95 L70.18,261.17 C70.18,281.35 86.53,297.7 106.71,297.7 L253.12,297.7 C273.29,297.7 289.65,281.35 289.65,261.17 L289.65,91.95 C289.65,71.78 273.29,55.42 253.12,55.42 Z" id="Path" fill="#C4C4C4"></path>
            <path d="M253.09,55.5 L106.73,55.5 C86.58,55.5 70.25,71.84 70.25,91.99 L70.25,261.14 C70.25,281.29 86.58,297.63 106.73,297.63 L253.09,297.63 C273.24,297.63 289.58,281.29 289.58,261.14 L289.58,91.99 C289.58,71.84 273.24,55.5 253.09,55.5 Z" id="Path" fill="#C3C3C3"></path>
            <path d="M106.76,55.58 L253.07,55.58 C273.18,55.58 289.5,71.91 289.5,92.02 L289.5,261.11 C289.5,281.22 273.18,297.54 253.07,297.54 L106.76,297.54 C86.64,297.54 70.32,281.22 70.32,261.11 L70.32,92.02 C70.32,71.9 86.65,55.58 106.76,55.58 Z" id="Path" fill="#C2C2C2"></path>
            <path d="M253.04,55.66 L106.78,55.66 C86.68,55.66 70.39,71.95 70.39,92.05 L70.39,261.08 C70.39,281.17 86.68,297.47 106.78,297.47 L253.04,297.47 C273.14,297.47 289.43,281.17 289.43,261.08 L289.43,92.05 C289.43,71.95 273.14,55.66 253.04,55.66 Z" id="Path" fill="#C1C1C1"></path>
            <path d="M253.02,55.74 L106.8,55.74 C86.73,55.74 70.46,72.01 70.46,92.08 L70.46,261.04 C70.46,281.12 86.73,297.39 106.8,297.39 L253.02,297.39 C273.09,297.39 289.36,281.12 289.36,261.04 L289.36,92.08 C289.36,72.01 273.09,55.74 253.02,55.74 Z" id="Path" fill="#C0C0C0"></path>
            <path d="M253,55.82 L106.83,55.82 C86.78,55.82 70.53,72.07 70.53,92.11 L70.53,261.01 C70.53,281.06 86.78,297.31 106.83,297.31 L253,297.31 C273.04,297.31 289.29,281.06 289.29,261.01 L289.29,92.11 C289.29,72.07 273.04,55.82 253,55.82 Z" id="Path" fill="#BFBFBF"></path>
            <path d="M252.97,55.9 L106.85,55.9 C86.83,55.9 70.6,72.12 70.6,92.14 L70.6,260.98 C70.6,281 86.83,297.23 106.85,297.23 L252.97,297.23 C272.99,297.23 289.22,281 289.22,260.98 L289.22,92.14 C289.22,72.12 272.99,55.9 252.97,55.9 Z" id="Path" fill="#BEBEBE"></path>
            <path d="M252.95,55.97 L106.88,55.97 C86.88,55.97 70.68,72.18 70.68,92.17 L70.68,260.95 C70.68,280.94 86.88,297.15 106.88,297.15 L252.95,297.15 C272.94,297.15 289.15,280.94 289.15,260.95 L289.15,92.17 C289.15,72.18 272.94,55.97 252.95,55.97 Z" id="Path" fill="#BDBDBD"></path>
            <path d="M252.92,56.05 L106.9,56.05 C86.93,56.05 70.74,72.24 70.74,92.21 L70.74,260.92 C70.74,280.89 86.93,297.07 106.9,297.07 L252.92,297.07 C272.89,297.07 289.08,280.89 289.08,260.92 L289.08,92.21 C289.08,72.24 272.89,56.05 252.92,56.05 Z" id="Path" fill="#BCBCBC"></path>
            <path d="M252.9,56.13 L106.92,56.13 C86.98,56.13 70.82,72.29 70.82,92.24 L70.82,260.89 C70.82,280.83 86.98,297 106.92,297 L252.9,297 C272.84,297 289,280.83 289,260.89 L289,92.24 C289,72.29 272.84,56.13 252.9,56.13 Z" id="Path" fill="#BBBBBB"></path>
            <path d="M252.88,56.21 L106.95,56.21 C87.03,56.21 70.89,72.35 70.89,92.27 L70.89,260.86 C70.89,280.77 87.03,296.92 106.95,296.92 L252.88,296.92 C272.79,296.92 288.94,280.77 288.94,260.86 L288.94,92.27 C288.94,72.35 272.79,56.21 252.88,56.21 Z" id="Path" fill="#BABABA"></path>
            <path d="M252.85,56.29 L106.97,56.29 C87.08,56.29 70.96,72.41 70.96,92.3 L70.96,260.83 C70.96,280.72 87.08,296.84 106.97,296.84 L252.85,296.84 C272.74,296.84 288.87,280.72 288.87,260.83 L288.87,92.3 C288.87,72.41 272.74,56.29 252.85,56.29 Z" id="Path" fill="#B9B9B9"></path>
            <path d="M252.83,56.37 L107,56.37 C87.13,56.37 71.03,72.47 71.03,92.33 L71.03,260.79 C71.03,280.66 87.13,296.76 107,296.76 L252.83,296.76 C272.69,296.76 288.79,280.66 288.79,260.79 L288.79,92.33 C288.79,72.47 272.69,56.37 252.83,56.37 Z" id="Path" fill="#B8B8B8"></path>
            <path d="M252.8,56.44 L107.02,56.44 C87.18,56.44 71.1,72.52 71.1,92.36 L71.1,260.76 C71.1,280.6 87.18,296.68 107.02,296.68 L252.8,296.68 C272.64,296.68 288.72,280.6 288.72,260.76 L288.72,92.36 C288.72,72.52 272.64,56.44 252.8,56.44 Z" id="Path" fill="#B7B7B7"></path>
            <path d="M252.78,56.52 L107.04,56.52 C87.23,56.52 71.17,72.58 71.17,92.39 L71.17,260.73 C71.17,280.54 87.23,296.6 107.04,296.6 L252.78,296.6 C272.59,296.6 288.65,280.54 288.65,260.73 L288.65,92.39 C288.65,72.58 272.59,56.52 252.78,56.52 Z" id="Path" fill="#B6B6B6"></path>
            <path d="M252.76,56.6 L107.07,56.6 C87.28,56.6 71.24,72.64 71.24,92.43 L71.24,260.7 C71.24,280.49 87.28,296.52 107.07,296.52 L252.76,296.52 C272.54,296.52 288.58,280.49 288.58,260.7 L288.58,92.43 C288.58,72.64 272.54,56.6 252.76,56.6 Z" id="Path" fill="#B5B5B5"></path>
            <path d="M252.73,56.68 L107.09,56.68 C87.33,56.68 71.32,72.7 71.32,92.45 L71.32,260.67 C71.32,280.43 87.33,296.44 107.09,296.44 L252.73,296.44 C272.49,296.44 288.51,280.43 288.51,260.67 L288.51,92.45 C288.51,72.7 272.49,56.68 252.73,56.68 Z" id="Path" fill="#B4B4B4"></path>
            <path d="M252.71,56.76 L107.12,56.76 C87.38,56.76 71.39,72.75 71.39,92.49 L71.39,260.64 C71.39,280.37 87.38,296.37 107.12,296.37 L252.71,296.37 C272.44,296.37 288.44,280.37 288.44,260.64 L288.44,92.49 C288.44,72.75 272.44,56.76 252.71,56.76 Z" id="Path" fill="#B3B3B3"></path>
            <path d="M107.14,56.84 L252.68,56.84 C272.38,56.84 288.37,72.83 288.37,92.52 L288.37,260.6 C288.37,280.3 272.38,296.29 252.68,296.29 L107.14,296.29 C87.45,296.29 71.46,280.3 71.46,260.6 L71.46,92.52 C71.46,72.82 87.45,56.84 107.14,56.84 Z" id="Path" fill="#B2B2B2"></path>
            <path d="M252.66,56.92 L107.16,56.92 C87.48,56.92 71.53,72.87 71.53,92.55 L71.53,260.57 C71.53,280.25 87.48,296.21 107.16,296.21 L252.66,296.21 C272.34,296.21 288.29,280.25 288.29,260.57 L288.29,92.55 C288.29,72.87 272.34,56.92 252.66,56.92 Z" id="Path" fill="#B1B1B1"></path>
            <path d="M252.63,56.99 L107.19,56.99 C87.53,56.99 71.6,72.93 71.6,92.58 L71.6,260.54 C71.6,280.2 87.53,296.13 107.19,296.13 L252.63,296.13 C272.29,296.13 288.22,280.2 288.22,260.54 L288.22,92.58 C288.22,72.93 272.29,56.99 252.63,56.99 Z" id="Path" fill="#B0B0B0"></path>
            <path d="M107.21,57.07 L252.61,57.07 C272.23,57.07 288.15,73 288.15,92.61 L288.15,260.51 C288.15,280.13 272.23,296.05 252.61,296.05 L107.21,296.05 C87.6,296.05 71.67,280.13 71.67,260.51 L71.67,92.61 C71.67,73 87.6,57.07 107.21,57.07 Z" id="Path" fill="#AFAFAF"></path>
            <path d="M252.59,57.15 L107.24,57.15 C87.63,57.15 71.74,73.04 71.74,92.65 L71.74,260.48 C71.74,280.08 87.63,295.97 107.24,295.97 L252.59,295.97 C272.19,295.97 288.08,280.08 288.08,260.48 L288.08,92.65 C288.08,73.04 272.19,57.15 252.59,57.15 Z" id="Path" fill="#AEAEAE"></path>
            <path d="M252.56,57.23 L107.26,57.23 C87.68,57.23 71.81,73.1 71.81,92.67 L71.81,260.45 C71.81,280.03 87.68,295.9 107.26,295.9 L252.56,295.9 C272.14,295.9 288.01,280.03 288.01,260.45 L288.01,92.67 C288.01,73.1 272.14,57.23 252.56,57.23 Z" id="Path" fill="#ADADAD"></path>
            <path d="M252.54,57.31 L107.28,57.31 C87.73,57.31 71.88,73.16 71.88,92.71 L71.88,260.42 C71.88,279.97 87.73,295.82 107.28,295.82 L252.54,295.82 C272.09,295.82 287.94,279.97 287.94,260.42 L287.94,92.71 C287.94,73.16 272.09,57.31 252.54,57.31 Z" id="Path" fill="#ACACAC"></path>
            <path d="M252.52,57.39 L107.31,57.39 C87.78,57.39 71.96,73.21 71.96,92.74 L71.96,260.39 C71.96,279.91 87.78,295.74 107.31,295.74 L252.52,295.74 C272.04,295.74 287.87,279.91 287.87,260.39 L287.87,92.74 C287.87,73.21 272.04,57.39 252.52,57.39 Z" id="Path" fill="#ABABAB"></path>
            <path d="M252.49,57.46 L107.33,57.46 C87.83,57.46 72.03,73.27 72.03,92.77 L72.03,260.35 C72.03,279.85 87.83,295.66 107.33,295.66 L252.49,295.66 C271.99,295.66 287.8,279.85 287.8,260.35 L287.8,92.77 C287.8,73.27 271.99,57.46 252.49,57.46 Z" id="Path" fill="#AAAAAA"></path>
            <path d="M252.47,57.54 L107.36,57.54 C87.88,57.54 72.1,73.33 72.1,92.8 L72.1,260.32 C72.1,279.79 87.88,295.58 107.36,295.58 L252.47,295.58 C271.94,295.58 287.73,279.79 287.73,260.32 L287.73,92.8 C287.73,73.33 271.94,57.54 252.47,57.54 Z" id="Path" fill="#A9A9A9"></path>
            <path d="M252.44,57.62 L107.38,57.62 C87.93,57.62 72.17,73.39 72.17,92.83 L72.17,260.29 C72.17,279.74 87.93,295.5 107.38,295.5 L252.44,295.5 C271.89,295.5 287.65,279.74 287.65,260.29 L287.65,92.83 C287.65,73.39 271.89,57.62 252.44,57.62 Z" id="Path" fill="#A8A8A8"></path>
            <path d="M252.42,57.7 L107.4,57.7 C87.98,57.7 72.24,73.44 72.24,92.86 L72.24,260.26 C72.24,279.68 87.98,295.42 107.4,295.42 L252.42,295.42 C271.84,295.42 287.58,279.68 287.58,260.26 L287.58,92.86 C287.58,73.44 271.84,57.7 252.42,57.7 Z" id="Path" fill="#A7A7A7"></path>
            <path d="M252.4,57.78 L107.43,57.78 C88.03,57.78 72.31,73.5 72.31,92.89 L72.31,260.23 C72.31,279.62 88.03,295.34 107.43,295.34 L252.4,295.34 C271.79,295.34 287.51,279.62 287.51,260.23 L287.51,92.89 C287.51,73.5 271.79,57.78 252.4,57.78 Z" id="Path" fill="#A6A6A6"></path>
            <path d="M252.37,57.86 L107.45,57.86 C88.08,57.86 72.38,73.56 72.38,92.93 L72.38,260.2 C72.38,279.57 88.08,295.27 107.45,295.27 L252.37,295.27 C271.74,295.27 287.44,279.57 287.44,260.2 L287.44,92.93 C287.44,73.56 271.74,57.86 252.37,57.86 Z" id="Path" fill="#A5A5A5"></path>
            <path d="M252.35,57.94 L107.48,57.94 C88.13,57.94 72.45,73.62 72.45,92.96 L72.45,260.17 C72.45,279.51 88.13,295.19 107.48,295.19 L252.35,295.19 C271.69,295.19 287.37,279.51 287.37,260.17 L287.37,92.96 C287.37,73.62 271.69,57.94 252.35,57.94 Z" id="Path" fill="#A4A4A4"></path>
            <path d="M252.32,58.01 L107.5,58.01 C88.18,58.01 72.52,73.67 72.52,92.99 L72.52,260.13 C72.52,279.45 88.18,295.11 107.5,295.11 L252.32,295.11 C271.64,295.11 287.3,279.45 287.3,260.13 L287.3,92.99 C287.3,73.67 271.64,58.01 252.32,58.01 Z" id="Path" fill="#A3A3A3"></path>
            <path d="M252.3,58.09 L107.52,58.09 C88.23,58.09 72.6,73.73 72.6,93.02 L72.6,260.1 C72.6,279.39 88.23,295.03 107.52,295.03 L252.3,295.03 C271.59,295.03 287.23,279.39 287.23,260.1 L287.23,93.02 C287.23,73.73 271.59,58.09 252.3,58.09 Z" id="Path" fill="#A2A2A2"></path>
            <path d="M252.28,58.17 L107.55,58.17 C88.28,58.17 72.67,73.79 72.67,93.05 L72.67,260.07 C72.67,279.34 88.28,294.95 107.55,294.95 L252.28,294.95 C271.54,294.95 287.15,279.34 287.15,260.07 L287.15,93.05 C287.15,73.79 271.54,58.17 252.28,58.17 Z" id="Path" fill="#A1A1A1"></path>
            <path d="M252.25,58.25 L107.57,58.25 C88.33,58.25 72.74,73.85 72.74,93.08 L72.74,260.04 C72.74,279.28 88.33,294.87 107.57,294.87 L252.25,294.87 C271.49,294.87 287.09,279.28 287.09,260.04 L287.09,93.08 C287.09,73.85 271.49,58.25 252.25,58.25 Z" id="Path" fill="#A0A0A0"></path>
            <path d="M252.23,58.33 L107.6,58.33 C88.38,58.33 72.81,73.9 72.81,93.12 L72.81,260.01 C72.81,279.22 88.38,294.79 107.6,294.79 L252.23,294.79 C271.44,294.79 287.01,279.22 287.01,260.01 L287.01,93.12 C287.01,73.9 271.44,58.33 252.23,58.33 Z" id="Path" fill="#9F9F9F"></path>
            <path d="M252.2,58.41 L107.62,58.41 C88.44,58.41 72.88,73.96 72.88,93.15 L72.88,259.98 C72.88,279.16 88.44,294.72 107.62,294.72 L252.2,294.72 C271.39,294.72 286.94,279.16 286.94,259.98 L286.94,93.15 C286.94,73.96 271.39,58.41 252.2,58.41 Z" id="Path" fill="#9E9E9E"></path>
            <path d="M252.18,58.49 L107.64,58.49 C88.48,58.49 72.95,74.02 72.95,93.18 L72.95,259.95 C72.95,279.11 88.48,294.64 107.64,294.64 L252.18,294.64 C271.34,294.64 286.87,279.11 286.87,259.95 L286.87,93.18 C286.87,74.02 271.34,58.49 252.18,58.49 Z" id="Path" fill="#9D9D9D"></path>
            <path d="M252.15,58.57 L107.67,58.57 C88.53,58.57 73.02,74.08 73.02,93.21 L73.02,259.91 C73.02,279.05 88.53,294.56 107.67,294.56 L252.15,294.56 C271.29,294.56 286.8,279.05 286.8,259.91 L286.8,93.21 C286.8,74.08 271.29,58.57 252.15,58.57 Z" id="Path" fill="#9C9C9C"></path>
            <path d="M252.13,58.64 L107.69,58.64 C88.58,58.64 73.09,74.13 73.09,93.24 L73.09,259.88 C73.09,278.99 88.58,294.48 107.69,294.48 L252.13,294.48 C271.24,294.48 286.73,278.99 286.73,259.88 L286.73,93.24 C286.73,74.13 271.24,58.64 252.13,58.64 Z" id="Path" fill="#9B9B9B"></path>
            <path d="M252.11,58.72 L107.72,58.72 C88.63,58.72 73.17,74.19 73.17,93.27 L73.17,259.85 C73.17,278.93 88.63,294.4 107.72,294.4 L252.11,294.4 C271.19,294.4 286.66,278.93 286.66,259.85 L286.66,93.27 C286.66,74.19 271.19,58.72 252.11,58.72 Z" id="Path" fill="#9A9A9A"></path>
            <path d="M107.74,58.8 L252.08,58.8 C271.13,58.8 286.59,74.26 286.59,93.3 L286.59,259.82 C286.59,278.87 271.13,294.32 252.08,294.32 L107.74,294.32 C88.7,294.32 73.24,278.87 73.24,259.82 L73.24,93.3 C73.24,74.26 88.7,58.8 107.74,58.8 Z" id="Path" fill="#999999"></path>
            <path d="M252.06,58.88 L107.76,58.88 C88.73,58.88 73.31,74.31 73.31,93.34 L73.31,259.79 C73.31,278.82 88.73,294.25 107.76,294.25 L252.06,294.25 C271.09,294.25 286.52,278.82 286.52,259.79 L286.52,93.34 C286.52,74.31 271.09,58.88 252.06,58.88 Z" id="Path" fill="#989898"></path>
            <path d="M252.03,58.96 L107.79,58.96 C88.78,58.96 73.38,74.36 73.38,93.37 L73.38,259.76 C73.38,278.76 88.78,294.17 107.79,294.17 L252.03,294.17 C271.04,294.17 286.44,278.76 286.44,259.76 L286.44,93.37 C286.44,74.36 271.04,58.96 252.03,58.96 Z" id="Path" fill="#979797"></path>
            <path d="M252.01,59.04 L107.81,59.04 C88.83,59.04 73.45,74.42 73.45,93.4 L73.45,259.73 C73.45,278.7 88.83,294.09 107.81,294.09 L252.01,294.09 C270.99,294.09 286.37,278.7 286.37,259.73 L286.37,93.4 C286.37,74.42 270.99,59.04 252.01,59.04 Z" id="Path" fill="#969696"></path>
            <path d="M251.99,59.12 L107.84,59.12 C88.89,59.12 73.52,74.48 73.52,93.43 L73.52,259.7 C73.52,278.65 88.89,294.01 107.84,294.01 L251.99,294.01 C270.94,294.01 286.3,278.65 286.3,259.7 L286.3,93.43 C286.3,74.48 270.94,59.12 251.99,59.12 Z" id="Path" fill="#959595"></path>
            <path d="M251.96,59.19 L107.86,59.19 C88.94,59.19 73.59,74.54 73.59,93.46 L73.59,259.67 C73.59,278.59 88.94,293.93 107.86,293.93 L251.96,293.93 C270.89,293.93 286.23,278.59 286.23,259.67 L286.23,93.46 C286.23,74.54 270.89,59.19 251.96,59.19 Z" id="Path" fill="#949494"></path>
            <path d="M251.94,59.27 L107.88,59.27 C88.98,59.27 73.66,74.59 73.66,93.49 L73.66,259.63 C73.66,278.53 88.98,293.85 107.88,293.85 L251.94,293.85 C270.84,293.85 286.16,278.53 286.16,259.63 L286.16,93.49 C286.16,74.59 270.84,59.27 251.94,59.27 Z" id="Path" fill="#939393"></path>
            <path d="M251.91,59.35 L107.91,59.35 C89.03,59.35 73.74,74.65 73.74,93.52 L73.74,259.6 C73.74,278.47 89.03,293.77 107.91,293.77 L251.91,293.77 C270.79,293.77 286.09,278.47 286.09,259.6 L286.09,93.52 C286.09,74.65 270.79,59.35 251.91,59.35 Z" id="Path" fill="#929292"></path>
            <path d="M251.89,59.43 L107.93,59.43 C89.08,59.43 73.81,74.71 73.81,93.56 L73.81,259.57 C73.81,278.42 89.08,293.69 107.93,293.69 L251.89,293.69 C270.74,293.69 286.02,278.42 286.02,259.57 L286.02,93.56 C286.02,74.71 270.74,59.43 251.89,59.43 Z" id="Path" fill="#919191"></path>
            <path d="M251.87,59.51 L107.96,59.51 C89.14,59.51 73.88,74.76 73.88,93.59 L73.88,259.54 C73.88,278.36 89.14,293.62 107.96,293.62 L251.87,293.62 C270.69,293.62 285.95,278.36 285.95,259.54 L285.95,93.59 C285.95,74.76 270.69,59.51 251.87,59.51 Z" id="Path" fill="#909090"></path>
            <path d="M251.84,59.59 L107.98,59.59 C89.19,59.59 73.95,74.82 73.95,93.62 L73.95,259.51 C73.95,278.3 89.19,293.54 107.98,293.54 L251.84,293.54 C270.64,293.54 285.87,278.3 285.87,259.51 L285.87,93.62 C285.87,74.82 270.64,59.59 251.84,59.59 Z" id="Path" fill="#8F8F8F"></path>
            <path d="M251.82,59.66 L108,59.66 C89.23,59.66 74.02,74.88 74.02,93.65 L74.02,259.48 C74.02,278.25 89.23,293.46 108,293.46 L251.82,293.46 C270.59,293.46 285.8,278.25 285.8,259.48 L285.8,93.65 C285.8,74.88 270.59,59.66 251.82,59.66 Z" id="Path" fill="#8E8E8E"></path>
            <path d="M251.8,59.74 L108.03,59.74 C89.28,59.74 74.09,74.94 74.09,93.68 L74.09,259.44 C74.09,278.19 89.28,293.38 108.03,293.38 L251.8,293.38 C270.54,293.38 285.73,278.19 285.73,259.44 L285.73,93.68 C285.73,74.94 270.54,59.74 251.8,59.74 Z" id="Path" fill="#8D8D8D"></path>
            <path d="M251.77,59.82 L108.05,59.82 C89.33,59.82 74.16,74.99 74.16,93.71 L74.16,259.41 C74.16,278.13 89.33,293.3 108.05,293.3 L251.77,293.3 C270.49,293.3 285.66,278.13 285.66,259.41 L285.66,93.71 C285.66,74.99 270.49,59.82 251.77,59.82 Z" id="Path" fill="#8C8C8C"></path>
            <path d="M251.75,59.9 L108.08,59.9 C89.39,59.9 74.23,75.05 74.23,93.74 L74.23,259.38 C74.23,278.07 89.39,293.22 108.08,293.22 L251.75,293.22 C270.44,293.22 285.59,278.07 285.59,259.38 L285.59,93.74 C285.59,75.05 270.44,59.9 251.75,59.9 Z" id="Path" fill="#8B8B8B"></path>
            <path d="M251.72,59.98 L108.1,59.98 C89.44,59.98 74.31,75.11 74.31,93.77 L74.31,259.35 C74.31,278.01 89.44,293.15 108.1,293.15 L251.72,293.15 C270.39,293.15 285.52,278.01 285.52,259.35 L285.52,93.77 C285.52,75.11 270.39,59.98 251.72,59.98 Z" id="Path" fill="#8A8A8A"></path>
            <path d="M108.12,60.06 L251.7,60.06 C270.33,60.06 285.45,75.18 285.45,93.81 L285.45,259.32 C285.45,277.94 270.33,293.07 251.7,293.07 L108.12,293.07 C89.5,293.07 74.38,277.94 74.38,259.32 L74.38,93.81 C74.38,75.18 89.5,60.06 108.12,60.06 Z" id="Path" fill="#898989"></path>
            <path d="M251.68,60.14 L108.15,60.14 C89.53,60.14 74.45,75.22 74.45,93.84 L74.45,259.29 C74.45,277.9 89.53,292.99 108.15,292.99 L251.68,292.99 C270.29,292.99 285.37,277.9 285.37,259.29 L285.37,93.84 C285.37,75.22 270.29,60.14 251.68,60.14 Z" id="Path" fill="#888888"></path>
            <path d="M251.65,60.22 L108.17,60.22 C89.59,60.22 74.52,75.28 74.52,93.87 L74.52,259.26 C74.52,277.84 89.59,292.91 108.17,292.91 L251.65,292.91 C270.24,292.91 285.3,277.84 285.3,259.26 L285.3,93.87 C285.3,75.28 270.24,60.22 251.65,60.22 Z" id="Path" fill="#878787"></path>
            <path d="M251.63,60.29 L108.19,60.29 C89.64,60.29 74.59,75.34 74.59,93.9 L74.59,259.22 C74.59,277.78 89.64,292.83 108.19,292.83 L251.63,292.83 C270.19,292.83 285.24,277.78 285.24,259.22 L285.24,93.9 C285.24,75.34 270.19,60.29 251.63,60.29 Z" id="Path" fill="#868686"></path>
            <path d="M251.6,60.37 L108.22,60.37 C89.69,60.37 74.66,75.4 74.66,93.93 L74.66,259.19 C74.66,277.73 89.69,292.75 108.22,292.75 L251.6,292.75 C270.14,292.75 285.16,277.73 285.16,259.19 L285.16,93.93 C285.16,75.4 270.14,60.37 251.6,60.37 Z" id="Path" fill="#858585"></path>
            <path d="M251.58,60.45 L108.24,60.45 C89.74,60.45 74.73,75.46 74.73,93.96 L74.73,259.16 C74.73,277.67 89.74,292.67 108.24,292.67 L251.58,292.67 C270.09,292.67 285.09,277.67 285.09,259.16 L285.09,93.96 C285.09,75.46 270.09,60.45 251.58,60.45 Z" id="Path" fill="#848484"></path>
            <path d="M108.27,60.53 L251.56,60.53 C270.03,60.53 285.02,75.52 285.02,93.99 L285.02,259.13 C285.02,277.6 270.03,292.59 251.56,292.59 L108.27,292.59 C89.8,292.59 74.8,277.6 74.8,259.13 L74.8,93.99 C74.8,75.52 89.8,60.53 108.27,60.53 Z" id="Path" fill="#838383"></path>
            <path d="M251.53,60.61 L108.29,60.61 C89.84,60.61 74.87,75.57 74.87,94.03 L74.87,259.1 C74.87,277.55 89.84,292.51 108.29,292.51 L251.53,292.51 C269.99,292.51 284.95,277.55 284.95,259.1 L284.95,94.03 C284.95,75.57 269.99,60.61 251.53,60.61 Z" id="Path" fill="#828282"></path>
            <path d="M251.51,60.69 L108.32,60.69 C89.89,60.69 74.95,75.63 74.95,94.06 L74.95,259.07 C74.95,277.5 89.89,292.44 108.32,292.44 L251.51,292.44 C269.94,292.44 284.88,277.5 284.88,259.07 L284.88,94.06 C284.88,75.63 269.94,60.69 251.51,60.69 Z" id="Path" fill="#818181"></path>
            <path d="M251.48,60.77 L108.34,60.77 C89.94,60.77 75.02,75.69 75.02,94.09 L75.02,259.04 C75.02,277.44 89.94,292.36 108.34,292.36 L251.48,292.36 C269.89,292.36 284.81,277.44 284.81,259.04 L284.81,94.09 C284.81,75.69 269.89,60.77 251.48,60.77 Z" id="Path" fill="#808080"></path>
            <path d="M251.46,60.84 L108.36,60.84 C89.98,60.84 75.09,75.74 75.09,94.12 L75.09,259 C75.09,277.38 89.98,292.28 108.36,292.28 L251.46,292.28 C269.84,292.28 284.74,277.38 284.74,259 L284.74,94.12 C284.74,75.74 269.84,60.84 251.46,60.84 Z" id="Path" fill="#7F7F7F"></path>
            <path d="M251.43,60.92 L108.39,60.92 C90.04,60.92 75.16,75.8 75.16,94.15 L75.16,258.97 C75.16,277.33 90.04,292.2 108.39,292.2 L251.43,292.2 C269.79,292.2 284.66,277.33 284.66,258.97 L284.66,94.15 C284.66,75.8 269.79,60.92 251.43,60.92 Z" id="Path" fill="#7E7E7E"></path>
            <path d="M251.41,61 L108.41,61 C90.09,61 75.23,75.86 75.23,94.18 L75.23,258.94 C75.23,277.27 90.09,292.12 108.41,292.12 L251.41,292.12 C269.74,292.12 284.59,277.27 284.59,258.94 L284.59,94.18 C284.59,75.86 269.74,61 251.41,61 Z" id="Path" fill="#7D7D7D"></path>
            <path d="M251.39,61.08 L108.44,61.08 C90.14,61.08 75.3,75.91 75.3,94.21 L75.3,258.91 C75.3,277.21 90.14,292.04 108.44,292.04 L251.39,292.04 C269.69,292.04 284.52,277.21 284.52,258.91 L284.52,94.21 C284.52,75.91 269.69,61.08 251.39,61.08 Z" id="Path" fill="#7C7C7C"></path>
            <path d="M251.36,61.16 L108.46,61.16 C90.19,61.16 75.37,75.97 75.37,94.25 L75.37,258.88 C75.37,277.15 90.19,291.97 108.46,291.97 L251.36,291.97 C269.64,291.97 284.45,277.15 284.45,258.88 L284.45,94.25 C284.45,75.97 269.64,61.16 251.36,61.16 Z" id="Path" fill="#7B7B7B"></path>
            <path d="M251.34,61.24 L108.49,61.24 C90.24,61.24 75.44,76.03 75.44,94.28 L75.44,258.85 C75.44,277.1 90.24,291.89 108.49,291.89 L251.34,291.89 C269.59,291.89 284.38,277.1 284.38,258.85 L284.38,94.28 C284.38,76.03 269.59,61.24 251.34,61.24 Z" id="Path" fill="#7A7A7A"></path>
            <path d="M251.31,61.31 L108.51,61.31 C90.29,61.31 75.51,76.09 75.51,94.31 L75.51,258.82 C75.51,277.04 90.29,291.81 108.51,291.81 L251.31,291.81 C269.54,291.81 284.31,277.04 284.31,258.82 L284.31,94.31 C284.31,76.09 269.54,61.31 251.31,61.31 Z" id="Path" fill="#797979"></path>
            <path d="M251.29,61.39 L108.53,61.39 C90.34,61.39 75.59,76.14 75.59,94.34 L75.59,258.78 C75.59,276.98 90.34,291.73 108.53,291.73 L251.29,291.73 C269.49,291.73 284.24,276.98 284.24,258.78 L284.24,94.34 C284.24,76.14 269.49,61.39 251.29,61.39 Z" id="Path" fill="#787878"></path>
            <path d="M251.27,61.47 L108.56,61.47 C90.39,61.47 75.66,76.2 75.66,94.37 L75.66,258.75 C75.66,276.92 90.39,291.65 108.56,291.65 L251.27,291.65 C269.44,291.65 284.17,276.92 284.17,258.75 L284.17,94.37 C284.17,76.2 269.44,61.47 251.27,61.47 Z" id="Path" fill="#777777"></path>
            <path d="M251.24,61.55 L108.58,61.55 C90.44,61.55 75.73,76.26 75.73,94.4 L75.73,258.72 C75.73,276.87 90.44,291.57 108.58,291.57 L251.24,291.57 C269.39,291.57 284.09,276.87 284.09,258.72 L284.09,94.4 C284.09,76.26 269.39,61.55 251.24,61.55 Z" id="Path" fill="#767676"></path>
            <path d="M251.22,61.63 L108.61,61.63 C90.49,61.63 75.8,76.32 75.8,94.43 L75.8,258.69 C75.8,276.81 90.49,291.49 108.61,291.49 L251.22,291.49 C269.34,291.49 284.02,276.81 284.02,258.69 L284.02,94.43 C284.02,76.32 269.34,61.63 251.22,61.63 Z" id="Path" fill="#757575"></path>
            <path d="M251.19,61.71 L108.63,61.71 C90.54,61.71 75.87,76.37 75.87,94.47 L75.87,258.66 C75.87,276.75 90.54,291.42 108.63,291.42 L251.19,291.42 C269.29,291.42 283.95,276.75 283.95,258.66 L283.95,94.47 C283.95,76.37 269.29,61.71 251.19,61.71 Z" id="Path" fill="#747474"></path>
            <path d="M251.17,61.79 L108.65,61.79 C90.59,61.79 75.94,76.43 75.94,94.5 L75.94,258.63 C75.94,276.69 90.59,291.34 108.65,291.34 L251.17,291.34 C269.24,291.34 283.88,276.69 283.88,258.63 L283.88,94.5 C283.88,76.43 269.24,61.79 251.17,61.79 Z" id="Path" fill="#737373"></path>
            <path d="M251.15,61.86 L108.68,61.86 C90.64,61.86 76.01,76.49 76.01,94.53 L76.01,258.59 C76.01,276.63 90.64,291.26 108.68,291.26 L251.15,291.26 C269.19,291.26 283.81,276.63 283.81,258.59 L283.81,94.53 C283.81,76.49 269.19,61.86 251.15,61.86 Z" id="Path" fill="#727272"></path>
            <path d="M251.12,61.94 L108.7,61.94 C90.69,61.94 76.08,76.55 76.08,94.56 L76.08,258.56 C76.08,276.58 90.69,291.18 108.7,291.18 L251.12,291.18 C269.14,291.18 283.74,276.58 283.74,258.56 L283.74,94.56 C283.74,76.55 269.14,61.94 251.12,61.94 Z" id="Path" fill="#717171"></path>
            <path d="M108.72,62.02 L251.1,62.02 C269.07,62.02 283.67,76.62 283.67,94.59 L283.67,258.53 C283.67,276.51 269.07,291.1 251.1,291.1 L108.72,291.1 C90.75,291.1 76.16,276.51 76.16,258.53 L76.16,94.59 C76.16,76.62 90.75,62.02 108.72,62.02 Z" id="Path" fill="#707070"></path>
            <path d="M251.07,62.1 L108.75,62.1 C90.79,62.1 76.23,76.66 76.23,94.62 L76.23,258.5 C76.23,276.46 90.79,291.02 108.75,291.02 L251.07,291.02 C269.03,291.02 283.6,276.46 283.6,258.5 L283.6,94.62 C283.6,76.66 269.03,62.1 251.07,62.1 Z" id="Path" fill="#6F6F6F"></path>
            <path d="M251.05,62.18 L108.77,62.18 C90.84,62.18 76.3,76.72 76.3,94.65 L76.3,258.47 C76.3,276.41 90.84,290.94 108.77,290.94 L251.05,290.94 C268.99,290.94 283.52,276.41 283.52,258.47 L283.52,94.65 C283.52,76.72 268.99,62.18 251.05,62.18 Z" id="Path" fill="#6E6E6E"></path>
            <path d="M108.8,62.26 L251.03,62.26 C268.93,62.26 283.46,76.79 283.46,94.69 L283.46,258.44 C283.46,276.34 268.93,290.87 251.03,290.87 L108.8,290.87 C90.9,290.87 76.37,276.34 76.37,258.44 L76.37,94.69 C76.37,76.79 90.9,62.26 108.8,62.26 Z" id="Path" fill="#6D6D6D"></path>
            <path d="M251,62.34 L108.82,62.34 C90.94,62.34 76.44,76.84 76.44,94.72 L76.44,258.41 C76.44,276.29 90.94,290.79 108.82,290.79 L251,290.79 C268.89,290.79 283.38,276.29 283.38,258.41 L283.38,94.72 C283.38,76.84 268.89,62.34 251,62.34 Z" id="Path" fill="#6C6C6C"></path>
            <path d="M250.98,62.41 L108.85,62.41 C90.99,62.41 76.51,76.89 76.51,94.75 L76.51,258.38 C76.51,276.23 90.99,290.71 108.85,290.71 L250.98,290.71 C268.84,290.71 283.31,276.23 283.31,258.38 L283.31,94.75 C283.31,76.89 268.84,62.41 250.98,62.41 Z" id="Path" fill="#6B6B6B"></path>
            <path d="M108.87,62.49 L250.96,62.49 C268.77,62.49 283.24,76.96 283.24,94.78 L283.24,258.34 C283.24,276.16 268.77,290.63 250.96,290.63 L108.87,290.63 C91.05,290.63 76.58,276.16 76.58,258.34 L76.58,94.78 C76.58,76.96 91.05,62.49 108.87,62.49 Z" id="Path" fill="#6A6A6A"></path>
            <path d="M250.93,62.57 L108.89,62.57 C91.09,62.57 76.65,77.01 76.65,94.81 L76.65,258.31 C76.65,276.12 91.09,290.55 108.89,290.55 L250.93,290.55 C268.74,290.55 283.17,276.12 283.17,258.31 L283.17,94.81 C283.17,77.01 268.74,62.57 250.93,62.57 Z" id="Path" fill="#696969"></path>
            <path d="M250.91,62.65 L108.91,62.65 C91.14,62.65 76.72,77.06 76.72,94.84 L76.72,258.28 C76.72,276.06 91.14,290.47 108.91,290.47 L250.91,290.47 C268.68,290.47 283.1,276.06 283.1,258.28 L283.1,94.84 C283.1,77.06 268.68,62.65 250.91,62.65 Z" id="Path" fill="#686868"></path>
            <path d="M250.88,62.73 L108.94,62.73 C91.19,62.73 76.8,77.12 76.8,94.87 L76.8,258.25 C76.8,276 91.19,290.4 108.94,290.4 L250.88,290.4 C268.64,290.4 283.03,276 283.03,258.25 L283.03,94.87 C283.03,77.12 268.64,62.73 250.88,62.73 Z" id="Path" fill="#676767"></path>
            <path d="M250.86,62.81 L108.97,62.81 C91.24,62.81 76.87,77.18 76.87,94.91 L76.87,258.22 C76.87,275.95 91.24,290.32 108.97,290.32 L250.86,290.32 C268.59,290.32 282.96,275.95 282.96,258.22 L282.96,94.91 C282.96,77.18 268.59,62.81 250.86,62.81 Z" id="Path" fill="#666666"></path>
            <path d="M250.84,62.89 L108.99,62.89 C91.29,62.89 76.94,77.24 76.94,94.93 L76.94,258.19 C76.94,275.89 91.29,290.24 108.99,290.24 L250.84,290.24 C268.54,290.24 282.88,275.89 282.88,258.19 L282.88,94.93 C282.88,77.24 268.54,62.89 250.84,62.89 Z" id="Path" fill="#656565"></path>
            <path d="M250.81,62.96 L109.01,62.96 C91.34,62.96 77.01,77.29 77.01,94.97 L77.01,258.16 C77.01,275.83 91.34,290.16 109.01,290.16 L250.81,290.16 C268.49,290.16 282.81,275.83 282.81,258.16 L282.81,94.97 C282.81,77.29 268.49,62.96 250.81,62.96 Z" id="Path" fill="#646464"></path>
            <path d="M250.79,63.04 L109.03,63.04 C91.39,63.04 77.08,77.35 77.08,95 L77.08,258.13 C77.08,275.78 91.39,290.08 109.03,290.08 L250.79,290.08 C268.43,290.08 282.74,275.78 282.74,258.13 L282.74,95 C282.74,77.35 268.43,63.04 250.79,63.04 Z" id="Path" fill="#636363"></path>
            <path d="M250.76,63.12 L109.06,63.12 C91.44,63.12 77.15,77.41 77.15,95.03 L77.15,258.09 C77.15,275.72 91.44,290 109.06,290 L250.76,290 C268.39,290 282.67,275.72 282.67,258.09 L282.67,95.03 C282.67,77.41 268.39,63.12 250.76,63.12 Z" id="Path" fill="#626262"></path>
            <path d="M250.74,63.2 L109.08,63.2 C91.49,63.2 77.22,77.46 77.22,95.06 L77.22,258.06 C77.22,275.66 91.49,289.92 109.08,289.92 L250.74,289.92 C268.34,289.92 282.6,275.66 282.6,258.06 L282.6,95.06 C282.6,77.46 268.34,63.2 250.74,63.2 Z" id="Path" fill="#616161"></path>
            <path d="M250.72,63.28 L109.11,63.28 C91.54,63.28 77.29,77.52 77.29,95.09 L77.29,258.03 C77.29,275.6 91.54,289.84 109.11,289.84 L250.72,289.84 C268.28,289.84 282.53,275.6 282.53,258.03 L282.53,95.09 C282.53,77.52 268.28,63.28 250.72,63.28 Z" id="Path" fill="#606060"></path>
            <path d="M250.69,63.36 L109.13,63.36 C91.59,63.36 77.36,77.58 77.36,95.13 L77.36,258 C77.36,275.54 91.59,289.77 109.13,289.77 L250.69,289.77 C268.23,289.77 282.46,275.54 282.46,258 L282.46,95.13 C282.46,77.58 268.23,63.36 250.69,63.36 Z" id="Path" fill="#5F5F5F"></path>
            <path d="M250.67,63.44 L109.16,63.44 C91.64,63.44 77.44,77.64 77.44,95.15 L77.44,257.97 C77.44,275.49 91.64,289.69 109.16,289.69 L250.67,289.69 C268.18,289.69 282.38,275.49 282.38,257.97 L282.38,95.15 C282.38,77.64 268.18,63.44 250.67,63.44 Z" id="Path" fill="#5E5E5E"></path>
            <path d="M250.64,63.52 L109.18,63.52 C91.69,63.52 77.51,77.7 77.51,95.19 L77.51,257.94 C77.51,275.43 91.69,289.61 109.18,289.61 L250.64,289.61 C268.14,289.61 282.32,275.43 282.32,257.94 L282.32,95.19 C282.32,77.7 268.14,63.52 250.64,63.52 Z" id="Path" fill="#5D5D5D"></path>
            <path d="M250.62,63.6 L109.2,63.6 C91.74,63.6 77.58,77.75 77.58,95.22 L77.58,257.91 C77.58,275.37 91.74,289.53 109.2,289.53 L250.62,289.53 C268.09,289.53 282.25,275.37 282.25,257.91 L282.25,95.22 C282.25,77.75 268.09,63.6 250.62,63.6 Z" id="Path" fill="#5C5C5C"></path>
            <path d="M250.59,63.67 L109.23,63.67 C91.79,63.67 77.65,77.81 77.65,95.25 L77.65,257.87 C77.65,275.31 91.79,289.45 109.23,289.45 L250.59,289.45 C268.03,289.45 282.17,275.31 282.17,257.87 L282.17,95.25 C282.17,77.81 268.03,63.67 250.59,63.67 Z" id="Path" fill="#5B5B5B"></path>
            <path d="M250.57,63.75 L109.25,63.75 C91.84,63.75 77.72,77.87 77.72,95.28 L77.72,257.84 C77.72,275.26 91.84,289.37 109.25,289.37 L250.57,289.37 C267.99,289.37 282.1,275.26 282.1,257.84 L282.1,95.28 C282.1,77.87 267.99,63.75 250.57,63.75 Z" id="Path" fill="#5A5A5A"></path>
            <path d="M250.55,63.83 L109.27,63.83 C91.89,63.83 77.79,77.93 77.79,95.31 L77.79,257.81 C77.79,275.2 91.89,289.29 109.27,289.29 L250.55,289.29 C267.93,289.29 282.03,275.2 282.03,257.81 L282.03,95.31 C282.03,77.93 267.93,63.83 250.55,63.83 Z" id="Path" fill="#595959"></path>
            <path d="M250.52,63.91 L109.3,63.91 C91.94,63.91 77.86,77.98 77.86,95.34 L77.86,257.78 C77.86,275.14 91.94,289.22 109.3,289.22 L250.52,289.22 C267.89,289.22 281.96,275.14 281.96,257.78 L281.96,95.34 C281.96,77.98 267.89,63.91 250.52,63.91 Z" id="Path" fill="#585858"></path>
            <path d="M109.32,63.99 L250.5,63.99 C267.82,63.99 281.89,78.05 281.89,95.37 L281.89,257.75 C281.89,275.07 267.82,289.14 250.5,289.14 L109.32,289.14 C92,289.14 77.94,275.07 77.94,257.75 L77.94,95.37 C77.94,78.05 92,63.99 109.32,63.99 Z" id="Path" fill="#575757"></path>
            <path d="M250.48,64.07 L109.35,64.07 C92.04,64.07 78.01,78.1 78.01,95.41 L78.01,257.72 C78.01,275.03 92.04,289.06 109.35,289.06 L250.48,289.06 C267.79,289.06 281.82,275.03 281.82,257.72 L281.82,95.41 C281.82,78.1 267.79,64.07 250.48,64.07 Z" id="Path" fill="#565656"></path>
            <path d="M250.45,64.15 L109.37,64.15 C92.09,64.15 78.08,78.16 78.08,95.44 L78.08,257.69 C78.08,274.97 92.09,288.98 109.37,288.98 L250.45,288.98 C267.74,288.98 281.75,274.97 281.75,257.69 L281.75,95.44 C281.75,78.16 267.74,64.15 250.45,64.15 Z" id="Path" fill="#555555"></path>
            <path d="M250.43,64.22 L109.4,64.22 C92.14,64.22 78.15,78.21 78.15,95.47 L78.15,257.65 C78.15,274.91 92.14,288.9 109.4,288.9 L250.43,288.9 C267.68,288.9 281.67,274.91 281.67,257.65 L281.67,95.47 C281.67,78.21 267.68,64.22 250.43,64.22 Z" id="Path" fill="#545454"></path>
            <path d="M250.41,64.3 L109.42,64.3 C92.19,64.3 78.22,78.27 78.22,95.5 L78.22,257.63 C78.22,274.86 92.19,288.82 109.42,288.82 L250.41,288.82 C267.64,288.82 281.61,274.86 281.61,257.63 L281.61,95.5 C281.61,78.27 267.64,64.3 250.41,64.3 Z" id="Path" fill="#535353"></path>
            <path d="M250.38,64.38 L109.44,64.38 C92.24,64.38 78.29,78.33 78.29,95.53 L78.29,257.59 C78.29,274.8 92.24,288.75 109.44,288.75 L250.38,288.75 C267.59,288.75 281.53,274.8 281.53,257.59 L281.53,95.53 C281.53,78.33 267.59,64.38 250.38,64.38 Z" id="Path" fill="#525252"></path>
            <path d="M250.36,64.46 L109.47,64.46 C92.29,64.46 78.36,78.38 78.36,95.56 L78.36,257.56 C78.36,274.74 92.29,288.66 109.47,288.66 L250.36,288.66 C267.53,288.66 281.46,274.74 281.46,257.56 L281.46,95.56 C281.46,78.38 267.53,64.46 250.36,64.46 Z" id="Path" fill="#515151"></path>
            <path d="M250.33,64.54 L109.49,64.54 C92.34,64.54 78.43,78.44 78.43,95.6 L78.43,257.53 C78.43,274.68 92.34,288.59 109.49,288.59 L250.33,288.59 C267.48,288.59 281.39,274.68 281.39,257.53 L281.39,95.6 C281.39,78.44 267.48,64.54 250.33,64.54 Z" id="Path" fill="#505050"></path>
            <path d="M250.31,64.62 L109.52,64.62 C92.39,64.62 78.5,78.5 78.5,95.63 L78.5,257.5 C78.5,274.63 92.39,288.51 109.52,288.51 L250.31,288.51 C267.43,288.51 281.32,274.63 281.32,257.5 L281.32,95.63 C281.32,78.5 267.43,64.62 250.31,64.62 Z" id="Path" fill="#4F4F4F"></path>
            <path d="M250.28,64.69 L109.54,64.69 C92.44,64.69 78.58,78.56 78.58,95.66 L78.58,257.47 C78.58,274.57 92.44,288.43 109.54,288.43 L250.28,288.43 C267.39,288.43 281.25,274.57 281.25,257.47 L281.25,95.66 C281.25,78.56 267.39,64.69 250.28,64.69 Z" id="Path" fill="#4E4E4E"></path>
            <path d="M250.26,64.77 L109.57,64.77 C92.49,64.77 78.65,78.62 78.65,95.69 L78.65,257.43 C78.65,274.51 92.49,288.35 109.57,288.35 L250.26,288.35 C267.34,288.35 281.18,274.51 281.18,257.43 L281.18,95.69 C281.18,78.62 267.34,64.77 250.26,64.77 Z" id="Path" fill="#4D4D4D"></path>
            <path d="M250.24,64.85 L109.59,64.85 C92.54,64.85 78.72,78.67 78.72,95.72 L78.72,257.41 C78.72,274.45 92.54,288.27 109.59,288.27 L250.24,288.27 C267.28,288.27 281.11,274.45 281.11,257.41 L281.11,95.72 C281.11,78.67 267.28,64.85 250.24,64.85 Z" id="Path" fill="#4C4C4C"></path>
            <path d="M250.21,64.93 L109.61,64.93 C92.59,64.93 78.79,78.73 78.79,95.75 L78.79,257.37 C78.79,274.39 92.59,288.19 109.61,288.19 L250.21,288.19 C267.23,288.19 281.03,274.39 281.03,257.37 L281.03,95.75 C281.03,78.73 267.23,64.93 250.21,64.93 Z" id="Path" fill="#4B4B4B"></path>
            <path d="M250.19,65.01 L109.64,65.01 C92.64,65.01 78.86,78.79 78.86,95.79 L78.86,257.34 C78.86,274.34 92.64,288.12 109.64,288.12 L250.19,288.12 C267.18,288.12 280.96,274.34 280.96,257.34 L280.96,95.79 C280.96,78.79 267.18,65.01 250.19,65.01 Z" id="Path" fill="#4A4A4A"></path>
            <path d="M250.16,65.09 L109.66,65.09 C92.69,65.09 78.93,78.85 78.93,95.82 L78.93,257.31 C78.93,274.28 92.69,288.04 109.66,288.04 L250.16,288.04 C267.14,288.04 280.89,274.28 280.89,257.31 L280.89,95.82 C280.89,78.85 267.14,65.09 250.16,65.09 Z" id="Path" fill="#494949"></path>
            <path d="M250.14,65.17 L109.69,65.17 C92.74,65.17 79,78.9 79,95.85 L79,257.28 C79,274.22 92.74,287.96 109.69,287.96 L250.14,287.96 C267.09,287.96 280.82,274.22 280.82,257.28 L280.82,95.85 C280.82,78.9 267.09,65.17 250.14,65.17 Z" id="Path" fill="#484848"></path>
            <path d="M109.71,65.24 L250.12,65.24 C267.02,65.24 280.75,78.97 280.75,95.88 L280.75,257.25 C280.75,274.15 267.02,287.88 250.12,287.88 L109.71,287.88 C92.8,287.88 79.08,274.15 79.08,257.25 L79.08,95.88 C79.08,78.97 92.8,65.24 109.71,65.24 Z" id="Path" fill="#474747"></path>
            <path d="M250.09,65.32 L109.73,65.32 C92.84,65.32 79.14,79.02 79.14,95.91 L79.14,257.22 C79.14,274.11 92.84,287.8 109.73,287.8 L250.09,287.8 C266.98,287.8 280.68,274.11 280.68,257.22 L280.68,95.91 C280.68,79.02 266.98,65.32 250.09,65.32 Z" id="Path" fill="#464646"></path>
            <path d="M250.07,65.4 L109.75,65.4 C92.89,65.4 79.22,79.07 79.22,95.94 L79.22,257.19 C79.22,274.05 92.89,287.72 109.75,287.72 L250.07,287.72 C266.93,287.72 280.61,274.05 280.61,257.19 L280.61,95.94 C280.61,79.07 266.93,65.4 250.07,65.4 Z" id="Path" fill="#454545"></path>
            <path d="M109.78,65.48 L250.05,65.48 C266.87,65.48 280.54,79.14 280.54,95.97 L280.54,257.15 C280.54,273.98 266.87,287.64 250.05,287.64 L109.78,287.64 C92.95,287.64 79.29,273.98 79.29,257.15 L79.29,95.97 C79.29,79.14 92.95,65.48 109.78,65.48 Z" id="Path" fill="#444444"></path>
            <path d="M250.02,65.56 L109.8,65.56 C92.99,65.56 79.36,79.19 79.36,96.01 L79.36,257.12 C79.36,273.93 92.99,287.56 109.8,287.56 L250.02,287.56 C266.83,287.56 280.46,273.93 280.46,257.12 L280.46,96.01 C280.46,79.19 266.83,65.56 250.02,65.56 Z" id="Path" fill="#434343"></path>
            <path d="M250,65.64 L109.83,65.64 C93.04,65.64 79.43,79.25 79.43,96.04 L79.43,257.09 C79.43,273.88 93.04,287.49 109.83,287.49 L250,287.49 C266.78,287.49 280.39,273.88 280.39,257.09 L280.39,96.04 C280.39,79.25 266.78,65.64 250,65.64 Z" id="Path" fill="#424242"></path>
            <path d="M109.85,65.71 L249.97,65.71 C266.72,65.71 280.32,79.31 280.32,96.07 L280.32,257.06 C280.32,273.81 266.72,287.41 249.97,287.41 L109.85,287.41 C93.1,287.41 79.5,273.81 79.5,257.06 L79.5,96.07 C79.5,79.32 93.1,65.71 109.85,65.71 Z" id="Path" fill="#414141"></path>
            <path d="M249.95,65.79 L109.88,65.79 C93.14,65.79 79.57,79.36 79.57,96.1 L79.57,257.03 C79.57,273.76 93.14,287.33 109.88,287.33 L249.95,287.33 C266.68,287.33 280.25,273.76 280.25,257.03 L280.25,96.1 C280.25,79.36 266.68,65.79 249.95,65.79 Z" id="Path" fill="#404040"></path>
            <path d="M249.92,65.87 L109.9,65.87 C93.19,65.87 79.64,79.42 79.64,96.13 L79.64,257 C79.64,273.71 93.19,287.25 109.9,287.25 L249.92,287.25 C266.63,287.25 280.18,273.71 280.18,257 L280.18,96.13 C280.18,79.42 266.63,65.87 249.92,65.87 Z" id="Path" fill="#3F3F3F"></path>
            <path d="M249.9,65.95 L109.92,65.95 C93.24,65.95 79.72,79.48 79.72,96.16 L79.72,256.97 C79.72,273.65 93.24,287.18 109.92,287.18 L249.9,287.18 C266.59,287.18 280.11,273.65 280.11,256.97 L280.11,96.16 C280.11,79.48 266.59,65.95 249.9,65.95 Z" id="Path" fill="#3E3E3E"></path>
            <path d="M249.88,66.03 L109.95,66.03 C93.29,66.03 79.79,79.53 79.79,96.19 L79.79,256.93 C79.79,273.59 93.29,287.09 109.95,287.09 L249.88,287.09 C266.53,287.09 280.04,273.59 280.04,256.93 L280.04,96.19 C280.04,79.53 266.53,66.03 249.88,66.03 Z" id="Path" fill="#3D3D3D"></path>
            <path d="M249.85,66.11 L109.97,66.11 C93.34,66.11 79.86,79.59 79.86,96.23 L79.86,256.9 C79.86,273.53 93.34,287.02 109.97,287.02 L249.85,287.02 C266.48,287.02 279.97,273.53 279.97,256.9 L279.97,96.23 C279.97,79.59 266.48,66.11 249.85,66.11 Z" id="Path" fill="#3C3C3C"></path>
            <path d="M249.83,66.19 L109.99,66.19 C93.39,66.19 79.93,79.65 79.93,96.26 L79.93,256.87 C79.93,273.48 93.39,286.94 109.99,286.94 L249.83,286.94 C266.43,286.94 279.89,273.48 279.89,256.87 L279.89,96.26 C279.89,79.65 266.43,66.19 249.83,66.19 Z" id="Path" fill="#3B3B3B"></path>
            <path d="M249.8,66.26 L110.02,66.26 C93.44,66.26 80,79.71 80,96.29 L80,256.84 C80,273.42 93.44,286.86 110.02,286.86 L249.8,286.86 C266.38,286.86 279.82,273.42 279.82,256.84 L279.82,96.29 C279.82,79.71 266.38,66.26 249.8,66.26 Z" id="Path" fill="#3A3A3A"></path>
            <path d="M249.78,66.34 L110.04,66.34 C93.49,66.34 80.07,79.76 80.07,96.32 L80.07,256.81 C80.07,273.36 93.49,286.78 110.04,286.78 L249.78,286.78 C266.33,286.78 279.75,273.36 279.75,256.81 L279.75,96.32 C279.75,79.76 266.33,66.34 249.78,66.34 Z" id="Path" fill="#393939"></path>
            <path d="M249.76,66.42 L110.07,66.42 C93.54,66.42 80.14,79.82 80.14,96.35 L80.14,256.78 C80.14,273.3 93.54,286.7 110.07,286.7 L249.76,286.7 C266.28,286.7 279.68,273.3 279.68,256.78 L279.68,96.35 C279.68,79.82 266.28,66.42 249.76,66.42 Z" id="Path" fill="#383838"></path>
            <path d="M249.73,66.5 L110.09,66.5 C93.59,66.5 80.21,79.88 80.21,96.38 L80.21,256.74 C80.21,273.25 93.59,286.62 110.09,286.62 L249.73,286.62 C266.23,286.62 279.61,273.25 279.61,256.74 L279.61,96.38 C279.61,79.88 266.23,66.5 249.73,66.5 Z" id="Path" fill="#373737"></path>
            <path d="M249.71,66.58 L110.11,66.58 C93.64,66.58 80.28,79.94 80.28,96.41 L80.28,256.71 C80.28,273.19 93.64,286.54 110.11,286.54 L249.71,286.54 C266.18,286.54 279.54,273.19 279.54,256.71 L279.54,96.41 C279.54,79.94 266.18,66.58 249.71,66.58 Z" id="Path" fill="#363636"></path>
            <path d="M249.68,66.66 L110.14,66.66 C93.69,66.66 80.36,79.99 80.36,96.44 L80.36,256.68 C80.36,273.13 93.69,286.47 110.14,286.47 L249.68,286.47 C266.13,286.47 279.47,273.13 279.47,256.68 L279.47,96.44 C279.47,79.99 266.13,66.66 249.68,66.66 Z" id="Path" fill="#353535"></path>
            <path d="M249.66,66.74 L110.16,66.74 C93.74,66.74 80.43,80.05 80.43,96.47 L80.43,256.65 C80.43,273.07 93.74,286.39 110.16,286.39 L249.66,286.39 C266.08,286.39 279.4,273.07 279.4,256.65 L279.4,96.47 C279.4,80.05 266.08,66.74 249.66,66.74 Z" id="Path" fill="#343434"></path>
            <path d="M249.63,66.82 L110.19,66.82 C93.79,66.82 80.5,80.11 80.5,96.51 L80.5,256.62 C80.5,273.01 93.79,286.31 110.19,286.31 L249.63,286.31 C266.03,286.31 279.33,273.01 279.33,256.62 L279.33,96.51 C279.33,80.11 266.03,66.82 249.63,66.82 Z" id="Path" fill="#333333"></path>
            <path d="M249.61,66.9 L110.21,66.9 C93.84,66.9 80.57,80.17 80.57,96.54 L80.57,256.59 C80.57,272.96 93.84,286.23 110.21,286.23 L249.61,286.23 C265.98,286.23 279.25,272.96 279.25,256.59 L279.25,96.54 C279.25,80.17 265.98,66.9 249.61,66.9 Z" id="Path" fill="#323232"></path>
            <path d="M110.24,66.97 L249.59,66.97 C265.92,66.97 279.18,80.24 279.18,96.57 L279.18,256.56 C279.18,272.89 265.92,286.15 249.59,286.15 L110.24,286.15 C93.9,286.15 80.64,272.89 80.64,256.56 L80.64,96.57 C80.64,80.24 93.9,66.97 110.24,66.97 Z" id="Path" fill="#313131"></path>
            <path d="M249.56,67.05 L110.26,67.05 C93.94,67.05 80.71,80.28 80.71,96.6 L80.71,256.52 C80.71,272.84 93.94,286.07 110.26,286.07 L249.56,286.07 C265.88,286.07 279.11,272.84 279.11,256.52 L279.11,96.6 C279.11,80.28 265.88,67.05 249.56,67.05 Z" id="Path" fill="#303030"></path>
            <path d="M249.54,67.13 L110.28,67.13 C93.99,67.13 80.78,80.34 80.78,96.63 L80.78,256.49 C80.78,272.79 93.99,286 110.28,286 L249.54,286 C265.83,286 279.04,272.79 279.04,256.49 L279.04,96.63 C279.04,80.34 265.83,67.13 249.54,67.13 Z" id="Path" fill="#2F2F2F"></path>
            <path d="M249.52,67.21 L110.31,67.21 C94.04,67.21 80.86,80.4 80.86,96.66 L80.86,256.46 C80.86,272.73 94.04,285.92 110.31,285.92 L249.52,285.92 C265.78,285.92 278.97,272.73 278.97,256.46 L278.97,96.66 C278.97,80.4 265.78,67.21 249.52,67.21 Z" id="Path" fill="#2E2E2E"></path>
            <path d="M249.49,67.29 L110.33,67.29 C94.09,67.29 80.93,80.45 80.93,96.69 L80.93,256.43 C80.93,272.67 94.09,285.84 110.33,285.84 L249.49,285.84 C265.73,285.84 278.9,272.67 278.9,256.43 L278.9,96.69 C278.9,80.45 265.73,67.29 249.49,67.29 Z" id="Path" fill="#2D2D2D"></path>
            <path d="M249.47,67.37 L110.36,67.37 C94.14,67.37 80.99,80.51 80.99,96.73 L80.99,256.4 C80.99,272.61 94.14,285.76 110.36,285.76 L249.47,285.76 C265.68,285.76 278.83,272.61 278.83,256.4 L278.83,96.73 C278.83,80.51 265.68,67.37 249.47,67.37 Z" id="Path" fill="#2C2C2C"></path>
            <path d="M249.44,67.45 L110.38,67.45 C94.19,67.45 81.07,80.57 81.07,96.76 L81.07,256.37 C81.07,272.56 94.19,285.68 110.38,285.68 L249.44,285.68 C265.63,285.68 278.75,272.56 278.75,256.37 L278.75,96.76 C278.75,80.57 265.63,67.45 249.44,67.45 Z" id="Path" fill="#2B2B2B"></path>
            <path d="M249.42,67.52 L110.4,67.52 C94.24,67.52 81.14,80.62 81.14,96.79 L81.14,256.34 C81.14,272.5 94.24,285.6 110.4,285.6 L249.42,285.6 C265.58,285.6 278.69,272.5 278.69,256.34 L278.69,96.79 C278.69,80.62 265.58,67.52 249.42,67.52 Z" id="Path" fill="#2A2A2A"></path>
            <path d="M249.4,67.6 L110.43,67.6 C94.29,67.6 81.21,80.68 81.21,96.82 L81.21,256.3 C81.21,272.44 94.29,285.52 110.43,285.52 L249.4,285.52 C265.53,285.52 278.61,272.44 278.61,256.3 L278.61,96.82 C278.61,80.68 265.53,67.6 249.4,67.6 Z" id="Path" fill="#292929"></path>
            <path d="M249.37,67.68 L110.45,67.68 C94.34,67.68 81.28,80.74 81.28,96.85 L81.28,256.27 C81.28,272.38 94.34,285.44 110.45,285.44 L249.37,285.44 C265.48,285.44 278.54,272.38 278.54,256.27 L278.54,96.85 C278.54,80.74 265.48,67.68 249.37,67.68 Z" id="Path" fill="#282828"></path>
            <path d="M249.35,67.76 L110.47,67.76 C94.39,67.76 81.35,80.8 81.35,96.88 L81.35,256.25 C81.35,272.33 94.39,285.37 110.47,285.37 L249.35,285.37 C265.43,285.37 278.47,272.33 278.47,256.25 L278.47,96.88 C278.47,80.8 265.43,67.76 249.35,67.76 Z" id="Path" fill="#272727"></path>
            <path d="M249.32,67.84 L110.5,67.84 C94.44,67.84 81.42,80.85 81.42,96.91 L81.42,256.21 C81.42,272.27 94.44,285.29 110.5,285.29 L249.32,285.29 C265.38,285.29 278.4,272.27 278.4,256.21 L278.4,96.91 C278.4,80.85 265.38,67.84 249.32,67.84 Z" id="Path" fill="#262626"></path>
            <path d="M249.3,67.92 L110.52,67.92 C94.49,67.92 81.49,80.91 81.49,96.95 L81.49,256.18 C81.49,272.21 94.49,285.21 110.52,285.21 L249.3,285.21 C265.33,285.21 278.33,272.21 278.33,256.18 L278.33,96.95 C278.33,80.91 265.33,67.92 249.3,67.92 Z" id="Path" fill="#252525"></path>
            <path d="M249.28,68 L110.55,68 C94.54,68 81.57,80.97 81.57,96.98 L81.57,256.15 C81.57,272.15 94.54,285.13 110.55,285.13 L249.28,285.13 C265.28,285.13 278.26,272.15 278.26,256.15 L278.26,96.98 C278.26,80.97 265.28,68 249.28,68 Z" id="Path" fill="#242424"></path>
            <path d="M249.25,68.07 L110.57,68.07 C94.59,68.07 81.64,81.03 81.64,97.01 L81.64,256.12 C81.64,272.09 94.59,285.05 110.57,285.05 L249.25,285.05 C265.23,285.05 278.19,272.09 278.19,256.12 L278.19,97.01 C278.19,81.03 265.23,68.07 249.25,68.07 Z" id="Path" fill="#232323"></path>
            <path d="M249.23,68.15 L110.59,68.15 C94.64,68.15 81.71,81.09 81.71,97.04 L81.71,256.09 C81.71,272.04 94.64,284.97 110.59,284.97 L249.23,284.97 C265.18,284.97 278.12,272.04 278.12,256.09 L278.12,97.04 C278.12,81.09 265.18,68.15 249.23,68.15 Z" id="Path" fill="#222222"></path>
            <path d="M249.2,68.23 L110.62,68.23 C94.69,68.23 81.78,81.14 81.78,97.07 L81.78,256.05 C81.78,271.98 94.69,284.89 110.62,284.89 L249.2,284.89 C265.13,284.89 278.04,271.98 278.04,256.05 L278.04,97.07 C278.04,81.14 265.13,68.23 249.2,68.23 Z" id="Path" fill="#212121"></path>
            <path d="M249.18,68.31 L110.64,68.31 C94.74,68.31 81.85,81.2 81.85,97.1 L81.85,256.02 C81.85,271.92 94.74,284.81 110.64,284.81 L249.18,284.81 C265.08,284.81 277.97,271.92 277.97,256.02 L277.97,97.1 C277.97,81.2 265.08,68.31 249.18,68.31 Z" id="Path" fill="#202020"></path>
            <path d="M249.16,68.39 L110.67,68.39 C94.79,68.39 81.92,81.26 81.92,97.13 L81.92,255.99 C81.92,271.87 94.79,284.74 110.67,284.74 L249.16,284.74 C265.03,284.74 277.9,271.87 277.9,255.99 L277.9,97.13 C277.9,81.26 265.03,68.39 249.16,68.39 Z" id="Path" fill="#1F1F1F"></path>
            <path d="M249.13,68.47 L110.69,68.47 C94.84,68.47 81.99,81.32 81.99,97.17 L81.99,255.96 C81.99,271.81 94.84,284.66 110.69,284.66 L249.13,284.66 C264.98,284.66 277.83,271.81 277.83,255.96 L277.83,97.17 C277.83,81.32 264.98,68.47 249.13,68.47 Z" id="Path" fill="#1E1E1E"></path>
            <path d="M249.11,68.54 L110.71,68.54 C94.89,68.54 82.06,81.37 82.06,97.2 L82.06,255.93 C82.06,271.75 94.89,284.58 110.71,284.58 L249.11,284.58 C264.93,284.58 277.76,271.75 277.76,255.93 L277.76,97.2 C277.76,81.37 264.93,68.54 249.11,68.54 Z" id="Path" fill="#1D1D1D"></path>
            <path d="M249.08,68.62 L110.74,68.62 C94.94,68.62 82.13,81.43 82.13,97.23 L82.13,255.9 C82.13,271.69 94.94,284.5 110.74,284.5 L249.08,284.5 C264.88,284.5 277.69,271.69 277.69,255.9 L277.69,97.23 C277.69,81.43 264.88,68.62 249.08,68.62 Z" id="Path" fill="#1C1C1C"></path>
            <path d="M249.06,68.7 L110.76,68.7 C94.99,68.7 82.21,81.49 82.21,97.26 L82.21,255.87 C82.21,271.64 94.99,284.42 110.76,284.42 L249.06,284.42 C264.83,284.42 277.62,271.64 277.62,255.87 L277.62,97.26 C277.62,81.49 264.83,68.7 249.06,68.7 Z" id="Path" fill="#1B1B1B"></path>
            <path d="M249.04,68.78 L110.79,68.78 C95.04,68.78 82.28,81.55 82.28,97.29 L82.28,255.83 C82.28,271.58 95.04,284.34 110.79,284.34 L249.04,284.34 C264.78,284.34 277.55,271.58 277.55,255.83 L277.55,97.29 C277.55,81.55 264.78,68.78 249.04,68.78 Z" id="Path" fill="#1A1A1A"></path>
            <path d="M249.01,68.86 L110.81,68.86 C95.09,68.86 82.35,81.6 82.35,97.32 L82.35,255.8 C82.35,271.52 95.09,284.26 110.81,284.26 L249.01,284.26 C264.73,284.26 277.47,271.52 277.47,255.8 L277.47,97.32 C277.47,81.6 264.73,68.86 249.01,68.86 Z" id="Path" fill="#191919"></path>
            <path d="M110.83,68.94 L248.99,68.94 C264.67,68.94 277.4,81.67 277.4,97.35 L277.4,255.77 C277.4,271.45 264.67,284.19 248.99,284.19 L110.83,284.19 C95.15,284.19 82.42,271.45 82.42,255.77 L82.42,97.35 C82.42,81.67 95.15,68.94 110.83,68.94 Z" id="Path" fill="#181818"></path>
            <path d="M248.96,69.02 L110.86,69.02 C95.19,69.02 82.49,81.72 82.49,97.39 L82.49,255.74 C82.49,271.41 95.19,284.11 110.86,284.11 L248.96,284.11 C264.63,284.11 277.33,271.41 277.33,255.74 L277.33,97.39 C277.33,81.72 264.63,69.02 248.96,69.02 Z" id="Path" fill="#171717"></path>
            <path d="M248.94,69.09 L110.88,69.09 C95.24,69.09 82.56,81.77 82.56,97.41 L82.56,255.71 C82.56,271.35 95.24,284.03 110.88,284.03 L248.94,284.03 C264.58,284.03 277.26,271.35 277.26,255.71 L277.26,97.41 C277.26,81.77 264.58,69.09 248.94,69.09 Z" id="Path" fill="#161616"></path>
            <path d="M248.92,69.17 L110.91,69.17 C95.29,69.17 82.63,81.83 82.63,97.45 L82.63,255.68 C82.63,271.29 95.29,283.95 110.91,283.95 L248.92,283.95 C264.53,283.95 277.19,271.29 277.19,255.68 L277.19,97.45 C277.19,81.83 264.53,69.17 248.92,69.17 Z" id="Path" fill="#151515"></path>
            <path d="M248.89,69.25 L110.93,69.25 C95.34,69.25 82.71,81.89 82.71,97.48 L82.71,255.65 C82.71,271.24 95.34,283.87 110.93,283.87 L248.89,283.87 C264.48,283.87 277.12,271.24 277.12,255.65 L277.12,97.48 C277.12,81.89 264.48,69.25 248.89,69.25 Z" id="Path" fill="#141414"></path>
            <path d="M248.87,69.33 L110.96,69.33 C95.39,69.33 82.77,81.95 82.77,97.51 L82.77,255.61 C82.77,271.18 95.39,283.79 110.96,283.79 L248.87,283.79 C264.43,283.79 277.05,271.18 277.05,255.61 L277.05,97.51 C277.05,81.95 264.43,69.33 248.87,69.33 Z" id="Path" fill="#131313"></path>
            <path d="M248.84,69.41 L110.98,69.41 C95.44,69.41 82.85,82 82.85,97.54 L82.85,255.58 C82.85,271.12 95.44,283.71 110.98,283.71 L248.84,283.71 C264.38,283.71 276.98,271.12 276.98,255.58 L276.98,97.54 C276.98,82 264.38,69.41 248.84,69.41 Z" id="Path" fill="#121212"></path>
            <path d="M248.82,69.49 L111,69.49 C95.49,69.49 82.92,82.06 82.92,97.57 L82.92,255.55 C82.92,271.06 95.49,283.64 111,283.64 L248.82,283.64 C264.33,283.64 276.9,271.06 276.9,255.55 L276.9,97.57 C276.9,82.06 264.33,69.49 248.82,69.49 Z" id="Path" fill="#111111"></path>
            <path d="M248.8,69.57 L111.03,69.57 C95.54,69.57 82.99,82.12 82.99,97.6 L82.99,255.52 C82.99,271.01 95.54,283.56 111.03,283.56 L248.8,283.56 C264.28,283.56 276.84,271.01 276.84,255.52 L276.84,97.6 C276.84,82.12 264.28,69.57 248.8,69.57 Z" id="Path" fill="#101010"></path>
            <path d="M248.77,69.64 L111.05,69.64 C95.59,69.64 83.06,82.18 83.06,97.63 L83.06,255.49 C83.06,270.95 95.59,283.48 111.05,283.48 L248.77,283.48 C264.23,283.48 276.76,270.95 276.76,255.49 L276.76,97.63 C276.76,82.18 264.23,69.64 248.77,69.64 Z" id="Path" fill="#0F0F0F"></path>
            <path d="M248.75,69.72 L111.08,69.72 C95.64,69.72 83.13,82.24 83.13,97.67 L83.13,255.46 C83.13,270.89 95.64,283.4 111.08,283.4 L248.75,283.4 C264.18,283.4 276.69,270.89 276.69,255.46 L276.69,97.67 C276.69,82.24 264.18,69.72 248.75,69.72 Z" id="Path" fill="#0E0E0E"></path>
            <path d="M248.72,69.8 L111.1,69.8 C95.69,69.8 83.2,82.29 83.2,97.7 L83.2,255.43 C83.2,270.83 95.69,283.32 111.1,283.32 L248.72,283.32 C264.13,283.32 276.62,270.83 276.62,255.43 L276.62,97.7 C276.62,82.29 264.13,69.8 248.72,69.8 Z" id="Path" fill="#0D0D0D"></path>
            <path d="M248.7,69.88 L111.12,69.88 C95.74,69.88 83.27,82.35 83.27,97.73 L83.27,255.39 C83.27,270.77 95.74,283.24 111.12,283.24 L248.7,283.24 C264.08,283.24 276.55,270.77 276.55,255.39 L276.55,97.73 C276.55,82.35 264.08,69.88 248.7,69.88 Z" id="Path" fill="#0C0C0C"></path>
            <path d="M248.68,69.96 L111.15,69.96 C95.79,69.96 83.35,82.41 83.35,97.76 L83.35,255.37 C83.35,270.72 95.79,283.17 111.15,283.17 L248.68,283.17 C264.03,283.17 276.48,270.72 276.48,255.37 L276.48,97.76 C276.48,82.41 264.03,69.96 248.68,69.96 Z" id="Path" fill="#0B0B0B"></path>
            <path d="M248.65,70.04 L111.17,70.04 C95.84,70.04 83.42,82.46 83.42,97.79 L83.42,255.33 C83.42,270.66 95.84,283.09 111.17,283.09 L248.65,283.09 C263.98,283.09 276.41,270.66 276.41,255.33 L276.41,97.79 C276.41,82.46 263.98,70.04 248.65,70.04 Z" id="Path" fill="#0A0A0A"></path>
            <path d="M248.63,70.12 L111.2,70.12 C95.89,70.12 83.49,82.52 83.49,97.82 L83.49,255.3 C83.49,270.6 95.89,283.01 111.2,283.01 L248.63,283.01 C263.93,283.01 276.34,270.6 276.34,255.3 L276.34,97.82 C276.34,82.52 263.93,70.12 248.63,70.12 Z" id="Path" fill="#090909"></path>
            <path d="M111.22,70.2 L248.6,70.2 C263.87,70.2 276.26,82.59 276.26,97.86 L276.26,255.27 C276.26,270.53 263.87,282.93 248.6,282.93 L111.22,282.93 C95.95,282.93 83.56,270.53 83.56,255.27 L83.56,97.86 C83.56,82.59 95.95,70.2 111.22,70.2 Z" id="Path" fill="#080808"></path>
            <path d="M248.58,70.27 L111.24,70.27 C95.99,70.27 83.63,82.64 83.63,97.89 L83.63,255.24 C83.63,270.49 95.99,282.85 111.24,282.85 L248.58,282.85 C263.83,282.85 276.19,270.49 276.19,255.24 L276.19,97.89 C276.19,82.64 263.83,70.27 248.58,70.27 Z" id="Path" fill="#070707"></path>
            <path d="M248.56,70.35 L111.27,70.35 C96.04,70.35 83.7,82.69 83.7,97.92 L83.7,255.21 C83.7,270.43 96.04,282.77 111.27,282.77 L248.56,282.77 C263.78,282.77 276.12,270.43 276.12,255.21 L276.12,97.92 C276.12,82.69 263.78,70.35 248.56,70.35 Z" id="Path" fill="#060606"></path>
            <path d="M111.29,70.43 L248.53,70.43 C263.72,70.43 276.05,82.76 276.05,97.95 L276.05,255.18 C276.05,270.36 263.72,282.69 248.53,282.69 L111.29,282.69 C96.1,282.69 83.77,270.36 83.77,255.18 L83.77,97.95 C83.77,82.76 96.1,70.43 111.29,70.43 Z" id="Path" fill="#050505"></path>
            <path d="M248.51,70.51 L111.32,70.51 C96.14,70.51 83.85,82.81 83.85,97.98 L83.85,255.15 C83.85,270.32 96.14,282.62 111.32,282.62 L248.51,282.62 C263.68,282.62 275.98,270.32 275.98,255.15 L275.98,97.98 C275.98,82.81 263.68,70.51 248.51,70.51 Z" id="Path" fill="#040404"></path>
            <path d="M248.48,70.59 L111.34,70.59 C96.19,70.59 83.91,82.87 83.91,98.01 L83.91,255.11 C83.91,270.26 96.19,282.54 111.34,282.54 L248.48,282.54 C263.63,282.54 275.91,270.26 275.91,255.11 L275.91,98.01 C275.91,82.87 263.63,70.59 248.48,70.59 Z" id="Path" fill="#030303"></path>
            <path d="M111.36,70.67 L248.46,70.67 C263.57,70.67 275.84,82.93 275.84,98.04 L275.84,255.08 C275.84,270.19 263.57,282.46 248.46,282.46 L111.36,282.46 C96.25,282.46 83.99,270.19 83.99,255.08 L83.99,98.04 C83.99,82.93 96.25,70.67 111.36,70.67 Z" id="Path" fill="#020202"></path>
            <path d="M248.44,70.74 L111.39,70.74 C96.29,70.74 84.06,82.98 84.06,98.08 L84.06,255.05 C84.06,270.14 96.29,282.38 111.39,282.38 L248.44,282.38 C263.53,282.38 275.77,270.14 275.77,255.05 L275.77,98.08 C275.77,82.98 263.53,70.74 248.44,70.74 Z" id="Path" fill="#010101"></path>
            <path d="M248.41,70.82 L111.41,70.82 C96.34,70.82 84.13,83.04 84.13,98.11 L84.13,255.02 C84.13,270.09 96.34,282.3 111.41,282.3 L248.41,282.3 C263.48,282.3 275.7,270.09 275.7,255.02 L275.7,98.11 C275.7,83.04 263.48,70.82 248.41,70.82 Z" id="Path" fill="#000000"></path>
            <path d="M286.8,82.68 L286.8,257.78 C286.8,274.6 273.17,288.23 256.35,288.23 L103.47,288.23 C86.66,288.23 73.03,274.6 73.03,257.78 L73.03,82.68 C73.03,65.87 86.66,52.24 103.47,52.24 L256.35,52.24 C273.17,52.24 286.8,65.87 286.8,82.68 Z" id="Path" fill="#FFFFFF"></path>
            <path d="M72.89,199.44 C113.14,199.44 145.77,166.81 145.77,126.56 C145.77,86.3 113.14,53.67 72.89,53.67 C32.63,53.67 0,86.3 0,126.56 C0,166.81 32.63,199.44 72.89,199.44 Z" id="Path" fill-opacity="0.0368498689" fill="#000000"></path>
            <path d="M233.64,52.23 C219.19,109.43 167.4,151.75 105.72,151.75 C94.44,151.75 83.48,150.33 73.03,147.66 L73.03,82.68 C73.03,65.87 86.66,52.24 103.47,52.24 L233.64,52.24 L233.64,52.23 Z" id="Path" fill-opacity="0.0253223339" fill="#000000"></path>
            <path d="M137.34,123.75 C137.34,143.4 128.55,160.99 114.67,172.79 C103.44,182.35 88.88,188.12 72.98,188.12 C57.07,188.12 42.6,182.39 31.38,172.88 C17.45,161.07 8.6,143.44 8.6,123.75 C8.6,88.2 37.42,59.38 72.98,59.38 C108.53,59.38 137.34,88.2 137.34,123.75 Z" id="Path" fill="#27B2FF"></path>
            <path d="M86.87,115.91 C94.59,108.19 94.59,95.67 86.87,87.95 C79.15,80.22 66.63,80.22 58.9,87.95 C51.18,95.67 51.18,108.19 58.9,115.91 C66.63,123.64 79.15,123.64 86.87,115.91 Z" id="Path" fill="#FFFFFF"></path>
            <path d="M114.67,172.79 C103.44,182.36 88.88,188.13 72.98,188.13 C57.07,188.13 42.6,182.39 31.38,172.88 C34.42,152.61 51.91,137.06 73.03,137.06 C94.16,137.06 111.6,152.56 114.68,172.79 L114.67,172.79 Z" id="Path" fill="#FFFFFF"></path>
            <path d="M248.18,89.8 L167.88,89.8 C165.35,89.8 163.29,91.85 163.29,94.39 L163.29,94.9 C163.29,97.44 165.35,99.49 167.88,99.49 L248.18,99.49 C250.71,99.49 252.77,97.44 252.77,94.9 L252.77,94.39 C252.77,91.85 250.71,89.8 248.18,89.8 Z" id="Path" fill="#CCCCCC"></path>
            <path d="M248.18,121.71 L167.88,121.71 C165.35,121.71 163.29,123.76 163.29,126.3 L163.29,126.81 C163.29,129.35 165.35,131.4 167.88,131.4 L248.18,131.4 C250.71,131.4 252.77,129.35 252.77,126.81 L252.77,126.3 C252.77,123.76 250.71,121.71 248.18,121.71 Z" id="Path" fill="#E6E6E6"></path>
            <path d="M248.18,153.62 L167.88,153.62 C165.35,153.62 163.29,155.67 163.29,158.21 L163.29,158.72 C163.29,161.26 165.35,163.31 167.88,163.31 L248.18,163.31 C250.71,163.31 252.77,161.26 252.77,158.72 L252.77,158.21 C252.77,155.67 250.71,153.62 248.18,153.62 Z" id="Path" fill="#E6E6E6"></path>
            <path d="M248,208.33 L111.54,208.33 C109,208.33 106.95,210.38 106.95,212.92 L106.95,213.43 C106.95,215.97 109,218.02 111.54,218.02 L248,218.02 C250.53,218.02 252.59,215.97 252.59,213.43 L252.59,212.92 C252.59,210.38 250.53,208.33 248,208.33 Z" id="Path" fill="#E6E6E6"></path>
            <path d="M226.59,241.4 L111.18,241.4 C108.84,241.4 106.95,243.29 106.95,245.63 L106.95,246.86 C106.95,249.2 108.84,251.09 111.18,251.09 L226.59,251.09 C228.93,251.09 230.82,249.2 230.82,246.86 L230.82,245.63 C230.82,243.29 228.93,241.4 226.59,241.4 Z" id="Path" fill="#E6E6E6"></path>
            <path d="M373.43,127.53 C375,129.06 375.21,131.43 373.88,132.82 L330.04,178.98 L267.54,238.82 L261.95,233.23 L321.49,170.43 L367.91,126.85 C369.28,125.57 371.56,125.73 373.09,127.21 L373.42,127.53 L373.43,127.53 Z" id="Path" fill="#FFFFFF"></path>
            <path d="M365.08,129.39 L371.1,135.41 C371.72,136.02 372.01,136.8 371.79,137.27 C368.81,143.64 363.73,150.58 357.6,157.66 C356.75,158.64 355.88,159.62 355,160.6 C344.46,172.31 331.49,184.28 320.81,194.66 C307.33,207.78 265.17,243.46 265.17,243.46 L257.03,235.32 C257.03,235.32 292.71,193.16 305.83,179.68 C316.21,168.99 328.18,156.02 339.89,145.49 C340.87,144.61 341.85,143.74 342.82,142.89 C349.91,136.76 356.85,131.68 363.22,128.7 C363.52,128.56 363.95,128.63 364.38,128.86 C364.62,128.99 364.86,129.17 365.08,129.39 Z" id="Path" fill="#D84A61"></path>
            <path d="M365.61,135.59 L364.23,136.83 C359.7,132.01 353.19,130.45 348.76,133.11 C340.22,138.23 327.93,146.85 314.74,160.12 C313.06,161.81 312.85,162.78 312.17,164.07 C311.35,165.62 309.77,166.53 307.86,166.61 C307.01,166.64 306.32,165.53 306.84,164.96 C322.43,147.81 337.4,137.16 347.34,131.19 C349.85,129.68 353.09,129.3 356.44,130.1 C359.79,130.91 363.04,132.86 365.61,135.59 L365.61,135.59 Z" id="Path" fill="#D84A61"></path>
            <path d="M257.03,235.32 L265.16,243.46 L253.03,250.1 C251.65,250.85 249.63,248.84 250.39,247.46 L257.03,235.32 Z" id="Path" fill="#E6E6E6"></path>
            <path d="M342.82,142.9 L357.59,157.67 C356.75,158.65 355.88,159.63 355,160.61 L339.88,145.49 C340.86,144.61 341.85,143.74 342.82,142.9 Z" id="Path" fill="#FFFFFF"></path>
            <path d="M181.15,329.31 C256.84,329.31 318.19,327.19 318.19,324.58 C318.19,321.96 256.84,319.84 181.15,319.84 C105.47,319.84 44.12,321.96 44.12,324.58 C44.12,327.19 105.47,329.31 181.15,329.31 Z" id="Path" fill-opacity="0.298841783" fill="#000000"></path>
            <path d="M19.61,235.19 C13.54,235.19 8.6,230.25 8.6,224.18 C8.6,218.11 13.54,213.18 19.61,213.18 C25.68,213.18 30.62,218.11 30.62,224.18 C30.62,230.25 25.68,235.19 19.61,235.19 Z M19.61,218.01 C16.21,218.01 13.44,220.78 13.44,224.18 C13.44,227.59 16.21,230.35 19.61,230.35 C23.01,230.35 25.78,227.59 25.78,224.18 C25.78,220.78 23.01,218.01 19.61,218.01 Z" id="Shape" fill="#D2F1FF"></path>
            <path d="M323.83,110.39 C322.38,110.39 321.2,109.21 321.2,107.76 L321.2,81.52 C321.2,80.07 322.38,78.9 323.83,78.9 C325.28,78.9 326.45,80.07 326.45,81.52 L326.45,107.76 C326.45,109.21 325.28,110.39 323.83,110.39 Z" id="Path" fill="#FFB703"></path>
            <path d="M336.95,97.27 L310.71,97.27 C309.26,97.27 308.08,96.09 308.08,94.65 C308.08,93.2 309.26,92.02 310.71,92.02 L336.95,92.02 C338.4,92.02 339.57,93.2 339.57,94.65 C339.57,96.09 338.4,97.27 336.95,97.27 Z" id="Path" fill="#FFB703"></path>
            <path d="M273.37,26.86 C265.97,26.86 259.94,20.83 259.94,13.43 C259.94,6.03 265.97,0 273.37,0 C280.78,0 286.8,6.03 286.8,13.43 C286.8,20.83 280.78,26.86 273.37,26.86 Z M273.37,4.14 C268.25,4.14 264.08,8.31 264.08,13.43 C264.08,18.55 268.25,22.72 273.37,22.72 C278.49,22.72 282.66,18.55 282.66,13.43 C282.66,8.31 278.49,4.14 273.37,4.14 Z" id="Shape" fill="#ED5875"></path>
            <path d="M326.08,46.67 C327.32,45.43 327.32,43.41 326.08,42.17 C324.83,40.93 322.82,40.93 321.58,42.17 C320.33,43.41 320.33,45.43 321.58,46.67 C322.82,47.91 324.83,47.91 326.08,46.67 Z" id="Path" fill="#27B2FF"></path>
            <path d="M42.09,263.44 C44.31,263.44 46.12,261.64 46.12,259.42 C46.12,257.2 44.31,255.4 42.09,255.4 C39.87,255.4 38.07,257.2 38.07,259.42 C38.07,261.64 39.87,263.44 42.09,263.44 Z" id="Path" fill="#FFB703"></path>
        </g>
    </g>
</svg>